<svg width="647" height="559" viewBox="0 0 647 559" fill="none" xmlns="http://www.w3.org/2000/svg">
<path d="M645.878 333.002C551.181 296.467 444.046 327.684 419.539 400.949C391.53 484.502 507.006 636.939 532.064 509.388C575.977 285.918 56.5785 224.342 102.149 443.815C125.773 557.638 228.604 534.959 284.872 461.724C319.771 416.331 355.983 366.304 362.914 308.184C370.355 244.921 368.501 130.181 335.248 74.1137C312.131 35.1548 260.645 -1.28032 213.824 0.663914C172.327 2.38805 121.567 34.3589 136.078 80.4705C165.902 175.065 309.829 142.343 357.272 88.921C424.151 13.5313 454.497 -142.004 380.077 -221.849C332.019 -273.243 174.309 -259.161 204.023 -163.509C231.622 -74.897 364.649 -156.395 359.474 -226.843C349.271 -365.221 151.995 -324.279 81.4706 -276.47C47.1199 -253.113 -2.25484 -218.625 1.68139 -176.706" stroke="#E7A805" stroke-miterlimit="10" stroke-linecap="round" stroke-dasharray="6 6"/>
</svg>
