<svg width="801" height="442" viewBox="0 0 801 442" fill="none" xmlns="http://www.w3.org/2000/svg">
<path d="M403.11 440.075C389.1 339.547 309.814 261.022 233.862 275.148C147.214 291.205 69.9685 466.148 193.654 426.158C410.357 356.108 212.14 -127.913 42.3567 18.4384C-45.7005 94.3302 24.0317 173.235 115.371 186.894C171.997 195.38 233.311 202.764 287.492 180.62C346.418 156.426 445.841 99.1232 478.727 42.8396C501.573 3.72116 508.445 -58.9776 484.023 -98.972C462.378 -134.418 409.791 -163.286 376.515 -128.221C308.279 -56.2395 406.735 53.725 476.468 69.282C574.841 91.1732 725.561 42.2277 759.259 -61.5899C780.874 -128.55 692.027 -259.612 622.812 -187.212C558.728 -120.079 694.541 -43.3153 753.627 -82.0271C869.668 -158.102 738.135 -310.722 662.108 -349.185C625.016 -367.885 570.9 -394.319 536.159 -370.535" stroke="#E7A805" stroke-width="2" stroke-miterlimit="10" stroke-linecap="round" stroke-dasharray="11 11"/>
</svg>
