<svg width="693" height="697" viewBox="0 0 693 697" fill="none" xmlns="http://www.w3.org/2000/svg">
<path d="M285.738 391.025H176.812L122.354 297.55L176.812 204.075H285.738L340.196 297.55L285.738 391.025ZM461.663 295.575H352.737L298.279 202.1L352.737 108.625H461.663L516.121 202.1L461.663 295.575ZM105.963 290.3H-2.96263L-57.4213 196.825L-2.96264 103.35H105.963L160.421 196.825L105.963 290.3ZM283.163 188.1H174.237L119.779 94.6249L174.237 1.1499H283.163L337.621 94.6249L283.163 188.1ZM460.363 696.375H351.437L296.979 602.9L351.437 509.425H460.363L514.821 602.9L460.363 696.375ZM633.063 594.525H524.137L469.679 501.05L524.137 407.575H633.063L687.521 501.05L633.063 594.525ZM285.738 591.95H176.812L122.354 498.475L176.812 405H285.738L340.196 498.475L285.738 591.95ZM460.363 494.075H351.437L296.979 400.6L351.437 307.125H460.363L514.821 400.6L460.363 494.075ZM111.188 493.85H2.26237L-52.1963 400.375L2.26237 306.9H111.188L165.646 400.375L111.188 493.85ZM636.988 193.725H528.062L473.604 100.25L528.062 6.77491H636.988L691.446 100.25L636.988 193.725Z" stroke="#656565"/>
</svg>
