<svg aria-hidden="true" style="position: absolute; width: 0; height: 0; overflow: hidden;" version="1.1" xmlns="http://www.w3.org/2000/svg" xmlns:xlink="http://www.w3.org/1999/xlink">
<defs>
<symbol id="icon-Bee" viewBox="0 0 36 32">
<path fill="#040404" style="fill: var(--color1, #040404)" d="M23.363 0l0.264 0.020 0.244 0.061 0.325 0.162 0.203 0.182 0.163 0.182 0.163 0.323 0.061 0.263v0.303l-0.061 0.283-0.102 0.243-0.142 0.263-0.569 0.768-0.447 0.566-0.264 0.344-0.224 0.283-0.264 0.323-0.427 0.546-0.081 0.121 0.061 0.101 0.244 0.243 0.142 0.162 0.366 0.364 0.142 0.162 0.305 0.303 0.142 0.162 0.142 0.141 0.183 0.222 0.224 0.263 0.284 0.384 0.244 0.384 0.203 0.364 0.244 0.404 0.244 0.344 0.163 0.202 0.183 0.202 0.163 0.162 0.284 0.222 0.345 0.243 0.427 0.243 0.65 0.323 0.711 0.303 0.589 0.263 0.752 0.344 0.589 0.283 0.569 0.263 0.691 0.344 0.569 0.263 0.67 0.323 0.427 0.242 0.305 0.202 0.244 0.182 0.224 0.182 0.264 0.242 0.203 0.202 0.183 0.222 0.284 0.364 0.244 0.384 0.244 0.445 0.203 0.465 0.142 0.404 0.122 0.424 0.122 0.606 0.041 0.303 0.020 0.263v0.687l-0.041 0.465-0.081 0.445-0.122 0.485-0.142 0.404-0.183 0.424-0.203 0.384-0.203 0.323-0.284 0.364-0.163 0.202-0.224 0.243-0.345 0.323-0.223 0.182-0.163 0.182-0.142 0.283-0.122 0.344-0.142 0.526-0.224 0.546-0.163 0.323-0.203 0.384-0.264 0.384-0.325 0.424-0.244 0.263-0.264 0.263-0.224 0.182-0.264 0.202-0.488 0.323-0.447 0.243-0.467 0.202-0.63 0.202-0.447 0.101-0.488 0.081-0.488 0.041h-0.285l-0.528-0.041-0.528-0.101-0.508-0.142-0.488-0.182-0.528-0.243-0.305-0.142-0.305-0.101-0.203-0.041h-0.285l-0.406 0.121-0.305 0.121-0.447 0.222-0.406 0.242-0.366 0.243-0.386 0.283-0.244 0.182-0.345 0.283-0.284 0.263-0.224 0.182-0.264 0.263-0.163 0.142-0.366 0.364-0.163 0.142-0.569 0.566-0.163 0.142-0.366 0.364-0.102 0.081-0.081-0.040-0.792-0.788-0.142-0.162-0.447-0.445-0.163-0.142-0.224-0.202-0.345-0.263-0.284-0.202-0.508-0.323-0.488-0.303-0.386-0.243-0.792-0.526-0.325-0.182-0.223-0.101-0.284-0.101-0.223-0.041h-0.406l-0.325 0.061-0.569 0.202-0.528 0.202-0.528 0.162-0.488 0.101-0.63 0.081h-0.874l-0.569-0.081-0.508-0.121-0.569-0.202-0.589-0.283-0.386-0.222-0.345-0.243-0.284-0.243-0.264-0.243-0.183-0.182-0.142-0.162-0.223-0.263-0.264-0.364-0.244-0.404-0.203-0.384-0.203-0.485-0.264-0.768-0.102-0.323-0.183-0.283-0.244-0.283-0.264-0.243-0.284-0.283-0.142-0.162-0.183-0.202-0.305-0.404-0.203-0.323-0.183-0.323-0.223-0.465-0.244-0.728-0.122-0.546-0.061-0.424-0.020-0.263v-0.627l0.061-0.505 0.102-0.505 0.122-0.445 0.163-0.445 0.284-0.586 0.264-0.445 0.325-0.445 0.203-0.222 0.142-0.162 0.345-0.344 0.223-0.182 0.345-0.263 0.386-0.243 0.366-0.202 1.056-0.526 0.569-0.263 0.833-0.404 0.569-0.263 0.731-0.344 1.178-0.546 0.813-0.384 0.65-0.323 0.203-0.142 0.102-0.182 0.244-0.526 0.244-0.505 0.244-0.425 0.244-0.384 0.264-0.364 0.223-0.283 0.264-0.303 0.142-0.162 0.203-0.202 0.101-0.121 0.163-0.141 0.264-0.243 0.203-0.162 0.406-0.303 0.244-0.162 0.081-0.061-0.020-0.101-0.284-0.384-0.203-0.243-0.264-0.344-0.203-0.263-0.264-0.323-0.203-0.263-0.528-0.687-0.264-0.323-0.244-0.364-0.163-0.323-0.081-0.243-0.020-0.101v-0.263l0.081-0.323 0.122-0.222 0.122-0.162 0.122-0.141 0.162-0.121 0.284-0.162 0.244-0.081 0.102-0.020h0.366l0.284 0.081 0.244 0.142 0.223 0.182 0.142 0.162 0.183 0.202 0.223 0.283 0.284 0.344 0.223 0.283 0.284 0.344 0.203 0.263 0.67 0.849 0.203 0.263 0.223 0.243 0.223 0.222 0.345 0.243 0.244 0.121 0.366 0.081h0.325l0.345-0.081h0.285l0.386 0.081 0.223 0.020h0.224l0.325-0.081 0.325-0.162 0.224-0.182 0.244-0.243 0.142-0.182 0.183-0.263 0.264-0.384 0.203-0.283 0.264-0.364 0.224-0.283 0.264-0.323 0.447-0.566 0.244-0.283 0.244-0.263 0.163-0.162 0.284-0.182 0.305-0.121 0.223-0.040zM17.553 6.994l-0.406 0.040-0.406 0.081-0.488 0.141-0.325 0.121-0.488 0.222-0.488 0.283-0.345 0.243-0.325 0.263-0.203 0.182-0.162 0.142-0.305 0.323-0.223 0.303-0.264 0.404-0.163 0.303-0.203 0.485-0.122 0.364-0.142 0.606-0.081 0.505v0.142l0.142 0.020 1.463 0.020h7.578l1.524-0.020 0.102-0.020-0.020-0.303-0.122-0.687-0.122-0.465-0.142-0.404-0.284-0.586-0.285-0.425-0.223-0.283-0.244-0.263-0.163-0.162-0.163-0.142-0.284-0.222-0.406-0.283-0.386-0.222-0.345-0.182-0.488-0.202-0.488-0.162-0.569-0.121-0.406-0.040h-0.528zM25.984 13.119l0.020 6.57 0.041 0.323 0.081 0.142 0.163 0.142 0.427 0.243 1.138 0.566 0.589 0.263 0.508 0.202 0.406 0.121 0.366 0.061h0.569l0.406-0.081 0.366-0.121 0.345-0.162 0.325-0.202 0.264-0.202 0.244-0.222 0.224-0.222 0.203-0.283 0.163-0.263 0.142-0.303 0.122-0.424 0.061-0.445v-0.505l-0.061-0.424-0.102-0.424-0.122-0.323-0.163-0.344-0.203-0.283-0.183-0.202-0.203-0.202-0.305-0.222-0.406-0.243-0.467-0.242-0.67-0.303-0.61-0.283-1.32-0.606-0.671-0.303-0.589-0.283-0.528-0.243-0.447-0.202-0.122-0.061zM9.589 13.261l-0.549 0.243-1.503 0.687-0.67 0.303-0.569 0.263-0.589 0.283-0.386 0.182-0.386 0.202-0.609 0.323-0.284 0.182-0.264 0.202-0.264 0.243-0.223 0.283-0.183 0.283-0.142 0.303-0.142 0.424-0.081 0.384-0.020 0.162v0.627l0.061 0.364 0.122 0.404 0.142 0.344 0.183 0.323 0.244 0.323 0.223 0.242 0.203 0.182 0.345 0.242 0.305 0.162 0.406 0.162 0.386 0.101 0.305 0.040h0.447l0.427-0.061 0.427-0.121 0.447-0.182 0.874-0.384 0.386-0.202 0.284-0.182 0.203-0.182 0.163-0.182 0.122-0.222 0.061-0.202 0.061-0.344 0.041-0.566 0.020-4.589v-1.051h-0.020zM14.465 15.747l-1.402 0.020-0.244 0.040-0.183 0.121-0.142 0.182-0.061 0.142-0.041 0.344v1.9h10.808l0.041-0.020 0.020-0.081 0.020-0.667v-0.505l-0.020-0.707-0.020-0.222-0.081-0.202-0.142-0.182-0.142-0.101-0.223-0.040-1.341-0.020h-6.846zM15.318 22.135l-2.763 0.020v0.202l0.041 0.445 0.081 0.384 0.102 0.344 0.162 0.384 0.162 0.323 0.203 0.323 0.284 0.384 0.244 0.263 0.386 0.384 0.345 0.263 0.284 0.202 0.366 0.222 0.386 0.202 0.548 0.222 0.427 0.121 0.467 0.081 0.366 0.040h0.589l0.549-0.061 0.589-0.121 0.467-0.142 0.488-0.202 0.325-0.162 0.366-0.202 0.305-0.202 0.366-0.283 0.305-0.283 0.264-0.263 0.183-0.222 0.203-0.283 0.264-0.445 0.183-0.404 0.183-0.586 0.081-0.424 0.041-0.323v-0.182l-0.061-0.020h-7.781zM25.883 23.328l-0.081 0.182-0.203 0.566-0.203 0.586-0.183 0.424 0.041 0.081 0.163 0.142 0.285 0.162 0.325 0.162 0.285 0.121 0.406 0.121 0.488 0.081h0.63l0.467-0.101 0.406-0.162 0.285-0.162 0.305-0.222 0.264-0.222 0.203-0.222 0.122-0.182-0.020-0.061-0.244-0.101-0.874-0.283-0.833-0.283-1.91-0.627h-0.122zM9.772 23.429l-0.955 0.303-1.889 0.627-0.569 0.182-0.325 0.101 0.122 0.162 0.223 0.243 0.102 0.121 0.223 0.182 0.284 0.202 0.508 0.243 0.427 0.121 0.244 0.041 0.244 0.020h0.325l0.366-0.061 0.386-0.101 0.386-0.162 0.345-0.182 0.203-0.142 0.020-0.101-0.101-0.344-0.325-0.93-0.122-0.364-0.061-0.162h-0.061z"></path>
<path fill="#040404" style="fill: var(--color1, #040404)" d="M17.553 6.994l-0.406 0.040-0.406 0.081-0.488 0.141-0.325 0.121-0.488 0.222-0.488 0.283-0.345 0.243-0.325 0.263-0.203 0.182-0.162 0.142-0.305 0.323-0.223 0.303-0.264 0.404-0.163 0.303-0.203 0.485-0.122 0.364-0.142 0.606-0.081 0.505v0.142l0.142 0.020 1.463 0.020h7.578l1.524-0.020 0.102-0.020-0.020-0.303-0.122-0.687-0.122-0.465-0.142-0.404-0.284-0.586-0.285-0.425-0.223-0.283-0.244-0.263-0.163-0.162-0.163-0.142-0.284-0.222-0.406-0.283-0.386-0.222-0.345-0.182-0.488-0.202-0.488-0.162-0.569-0.121-0.406-0.040h-0.528z"></path>
<path fill="#e7a805" style="fill: var(--color2, #e7a805)" d="M15.318 22.135l-2.763 0.020v0.202l0.041 0.445 0.081 0.384 0.102 0.344 0.162 0.384 0.162 0.323 0.203 0.323 0.284 0.384 0.244 0.263 0.386 0.384 0.345 0.263 0.284 0.202 0.366 0.222 0.386 0.202 0.548 0.222 0.427 0.121 0.467 0.081 0.366 0.040h0.589l0.549-0.061 0.589-0.121 0.467-0.142 0.488-0.202 0.325-0.162 0.366-0.202 0.305-0.202 0.366-0.283 0.305-0.283 0.264-0.263 0.183-0.222 0.203-0.283 0.264-0.445 0.183-0.404 0.183-0.586 0.081-0.424 0.041-0.323v-0.182l-0.061-0.020h-7.781z"></path>
<path fill="#e7a805" style="fill: var(--color2, #e7a805)" d="M14.465 15.747l-1.402 0.020-0.244 0.040-0.183 0.121-0.142 0.182-0.061 0.142-0.041 0.344v1.9h10.808l0.041-0.020 0.020-0.081 0.020-0.667v-0.505l-0.020-0.707-0.020-0.222-0.081-0.202-0.142-0.182-0.142-0.101-0.223-0.040-1.341-0.020h-6.846z"></path>
<path fill="#faed3e" style="fill: var(--color3, #faed3e)" opacity="0.5" d="M9.589 13.261l-0.549 0.243-1.503 0.687-0.67 0.303-0.569 0.263-0.589 0.283-0.386 0.182-0.386 0.202-0.609 0.323-0.284 0.182-0.264 0.202-0.264 0.243-0.223 0.283-0.183 0.283-0.142 0.303-0.142 0.424-0.081 0.384-0.020 0.162v0.627l0.061 0.364 0.122 0.404 0.142 0.344 0.183 0.323 0.244 0.323 0.223 0.242 0.203 0.182 0.345 0.242 0.305 0.162 0.406 0.162 0.386 0.101 0.305 0.040h0.447l0.427-0.061 0.427-0.121 0.447-0.182 0.874-0.384 0.386-0.202 0.284-0.182 0.203-0.182 0.163-0.182 0.122-0.222 0.061-0.202 0.061-0.344 0.041-0.566 0.020-4.589v-1.051h-0.020z"></path>
<path fill="#faed3e" style="fill: var(--color3, #faed3e)" opacity="0.5" d="M25.984 13.119l0.020 6.57 0.041 0.323 0.081 0.142 0.163 0.142 0.427 0.243 1.138 0.566 0.589 0.263 0.508 0.202 0.406 0.121 0.366 0.061h0.569l0.406-0.081 0.366-0.121 0.345-0.162 0.325-0.202 0.264-0.202 0.244-0.222 0.224-0.222 0.203-0.283 0.163-0.263 0.142-0.303 0.122-0.424 0.061-0.445v-0.505l-0.061-0.424-0.102-0.424-0.122-0.323-0.163-0.344-0.203-0.283-0.183-0.202-0.203-0.202-0.305-0.222-0.406-0.243-0.467-0.242-0.67-0.303-0.61-0.283-1.32-0.606-0.671-0.303-0.589-0.283-0.528-0.243-0.447-0.202-0.122-0.061z"></path>
<path fill="#faed3e" style="fill: var(--color3, #faed3e)" opacity="0.5" d="M25.883 23.328l-0.081 0.182-0.203 0.566-0.203 0.586-0.183 0.424 0.041 0.081 0.163 0.142 0.285 0.162 0.325 0.162 0.285 0.121 0.406 0.121 0.488 0.081h0.63l0.467-0.101 0.406-0.162 0.285-0.162 0.305-0.222 0.264-0.222 0.203-0.222 0.122-0.182-0.020-0.061-0.244-0.101-0.874-0.283-0.833-0.283-1.91-0.627h-0.122z"></path>
<path fill="#faed3e" style="fill: var(--color3, #faed3e)" opacity="0.5" d="M9.772 23.429l-0.955 0.303-1.889 0.627-0.569 0.182-0.325 0.101 0.122 0.162 0.223 0.243 0.102 0.121 0.223 0.182 0.284 0.202 0.508 0.243 0.427 0.121 0.244 0.041 0.244 0.020h0.325l0.366-0.061 0.386-0.101 0.386-0.162 0.345-0.182 0.203-0.142 0.020-0.101-0.101-0.344-0.325-0.93-0.122-0.364-0.061-0.162h-0.061z"></path>
</symbol>
<symbol id="icon-facebook" viewBox="0 0 31 32">
<path fill="#f6f6f6" style="fill: var(--color4, #f6f6f6)" d="M28.184 15.948c0-6.976-5.662-12.638-12.638-12.638s-12.638 5.662-12.638 12.638c0 6.117 4.347 11.21 10.11 12.385v-8.594h-2.528v-3.791h2.528v-3.159c0-2.439 1.984-4.423 4.423-4.423h3.159v3.791h-2.527c-0.695 0-1.264 0.569-1.264 1.264v2.527h3.791v3.791h-3.791v8.783c6.382-0.632 11.374-6.015 11.374-12.575z"></path>
</symbol>
<symbol id="icon-Github" viewBox="0 0 32 32">
<path fill="#f6f6f6" style="fill: var(--color4, #f6f6f6)" d="M15.79 0.491c-2.074 0-4.127 0.408-6.043 1.202s-3.656 1.957-5.123 3.423c-2.961 2.961-4.625 6.977-4.625 11.165 0 6.979 4.532 12.9 10.8 15 0.79 0.126 1.042-0.363 1.042-0.789v-2.669c-4.374 0.947-5.305-2.116-5.305-2.116-0.726-1.832-1.753-2.321-1.753-2.321-1.437-0.979 0.111-0.947 0.111-0.947 1.579 0.11 2.416 1.626 2.416 1.626 1.374 2.4 3.695 1.69 4.595 1.311 0.142-1.026 0.553-1.721 0.995-2.116-3.505-0.395-7.184-1.753-7.184-7.769 0-1.753 0.6-3.158 1.626-4.279-0.158-0.395-0.711-2.037 0.158-4.169 0 0 1.326-0.426 4.342 1.611 1.247-0.347 2.605-0.521 3.948-0.521s2.7 0.174 3.947 0.521c3.016-2.037 4.342-1.611 4.342-1.611 0.868 2.132 0.316 3.774 0.158 4.169 1.026 1.121 1.626 2.526 1.626 4.279 0 6.032-3.695 7.358-7.216 7.753 0.568 0.49 1.089 1.453 1.089 2.921v4.326c0 0.426 0.253 0.932 1.058 0.789 6.269-2.116 10.784-8.021 10.784-15 0-2.074-0.408-4.127-1.202-6.043s-1.957-3.656-3.423-5.123c-1.466-1.466-3.207-2.629-5.123-3.423s-3.969-1.202-6.042-1.202z"></path>
</symbol>
<symbol id="icon-instagram" viewBox="0 0 31 32">
<path fill="#f6f6f6" style="fill: var(--color4, #f6f6f6)" d="M16.811 3.311c1.418 0.004 2.138 0.011 2.759 0.029l0.245 0.009c0.282 0.010 0.561 0.023 0.898 0.038 1.341 0.063 2.256 0.275 3.059 0.586 0.832 0.32 1.533 0.754 2.234 1.453 0.641 0.63 1.137 1.392 1.453 2.234 0.311 0.803 0.523 1.718 0.586 3.061 0.015 0.335 0.028 0.614 0.038 0.898l0.008 0.244c0.019 0.62 0.026 1.34 0.029 2.758l0.001 0.94v1.651c0.003 0.919-0.007 1.839-0.029 2.758l-0.008 0.245c-0.010 0.284-0.023 0.562-0.038 0.898-0.063 1.343-0.277 2.256-0.587 3.061-0.316 0.841-0.812 1.604-1.453 2.234-0.63 0.641-1.392 1.137-2.234 1.453-0.803 0.311-1.718 0.523-3.059 0.586l-0.898 0.038-0.245 0.008c-0.621 0.018-1.341 0.026-2.759 0.029l-2.59 0.001c-0.92 0.003-1.84-0.006-2.759-0.029l-0.245-0.008c-0.299-0.011-0.598-0.024-0.897-0.039-1.341-0.063-2.256-0.275-3.061-0.586-0.841-0.316-1.603-0.812-2.232-1.453-0.642-0.63-1.138-1.392-1.455-2.234-0.311-0.803-0.523-1.718-0.586-3.061l-0.038-0.898-0.006-0.245c-0.023-0.919-0.034-1.839-0.031-2.758v-2.592c-0.003-0.919 0.006-1.839 0.028-2.758l0.009-0.244c0.010-0.284 0.023-0.562 0.038-0.898 0.063-1.343 0.275-2.256 0.586-3.061 0.317-0.842 0.815-1.604 1.457-2.234 0.629-0.641 1.391-1.137 2.231-1.453 0.804-0.311 1.718-0.523 3.061-0.586 0.335-0.015 0.615-0.028 0.897-0.038l0.245-0.008c0.919-0.022 1.839-0.032 2.758-0.029l2.592-0.001zM15.516 9.614c-1.672 0-3.275 0.664-4.457 1.846s-1.846 2.785-1.846 4.457c0 1.672 0.664 3.275 1.846 4.457s2.785 1.846 4.457 1.846c1.672 0 3.275-0.664 4.457-1.846s1.846-2.785 1.846-4.457c0-1.672-0.664-3.275-1.846-4.457s-2.785-1.846-4.457-1.846zM15.516 12.135c0.497 0 0.988 0.098 1.447 0.288s0.876 0.468 1.227 0.819c0.351 0.351 0.63 0.768 0.82 1.227s0.288 0.951 0.288 1.447-0.098 0.988-0.288 1.447c-0.19 0.459-0.468 0.876-0.82 1.227s-0.768 0.63-1.227 0.82c-0.459 0.19-0.951 0.288-1.447 0.288-1.003 0-1.965-0.398-2.674-1.108s-1.108-1.671-1.108-2.674c0-1.003 0.398-1.965 1.108-2.674s1.671-1.108 2.674-1.108zM22.135 7.723c-0.418 0-0.819 0.166-1.114 0.462s-0.461 0.696-0.461 1.114 0.166 0.819 0.461 1.114c0.296 0.296 0.696 0.462 1.114 0.462s0.819-0.166 1.114-0.462c0.295-0.295 0.461-0.696 0.461-1.114s-0.166-0.819-0.461-1.114c-0.296-0.295-0.696-0.462-1.114-0.462z"></path>
</symbol>
</defs>
</svg>
