<svg width="102" height="112" viewBox="0 0 102 112" fill="none" xmlns="http://www.w3.org/2000/svg">
<path d="M73.1298 22.8333H71.939L72.7728 23.6834L79.7704 30.8183L79.7704 30.8183L79.7766 30.8244C79.9322 30.9777 80.0569 31.1616 80.1428 31.3656L80.6036 31.1715L80.1428 31.3656C80.2288 31.5696 80.2741 31.7894 80.276 32.0121C80.2779 32.2347 80.2363 32.4553 80.1538 32.6609C80.0714 32.8664 79.9498 33.0525 79.7967 33.2086C79.6437 33.3646 79.4623 33.4875 79.2633 33.5705C79.0643 33.6535 78.8515 33.6951 78.6371 33.6932C78.4227 33.6913 78.2106 33.6459 78.013 33.5594L77.8124 34.0174L78.013 33.5594C77.8154 33.4728 77.636 33.3468 77.4856 33.188L77.4857 33.1879L77.4796 33.1817L67.4772 22.9832L67.3302 22.8333H67.1203H53.125H52.625V23.3333V38.5C52.625 38.9451 52.4515 39.3701 52.1456 39.682C51.8401 39.9935 51.4278 40.1667 51 40.1667C50.5722 40.1667 50.1599 39.9935 49.8544 39.682C49.5485 39.3701 49.375 38.9451 49.375 38.5V23.3333V22.8333H48.875H12.75C12.3222 22.8333 11.9099 22.6601 11.6044 22.3486C11.2985 22.0368 11.125 21.6118 11.125 21.1667C11.125 20.7215 11.2985 20.2966 11.6044 19.9847C11.9099 19.6732 12.3222 19.5 12.75 19.5H89.25C89.6778 19.5 90.0901 19.6732 90.3956 19.9847C90.7015 20.2966 90.875 20.7215 90.875 21.1667C90.875 21.6118 90.7015 22.0368 90.3956 22.3486C90.0901 22.6601 89.6778 22.8333 89.25 22.8333H73.1298Z" fill="#656565" stroke="#040404"/>
<mask id="path-2-inside-1_103255_505" fill="white">
<path d="M76.5631 56.9482H76.1721C76.4239 56.2543 76.5562 55.5213 76.5631 54.7815V52.6148C76.5614 50.8914 75.8892 49.2391 74.694 48.0205C73.4989 46.8019 71.8783 46.1165 70.1881 46.1148H69.7971C70.0489 45.421 70.1812 44.688 70.1881 43.9482V41.7815C70.1864 40.0581 69.5142 38.4058 68.319 37.1872C67.1239 35.9686 65.5033 35.2832 63.8131 35.2815H38.3131C36.6229 35.2832 35.0023 35.9686 33.8072 37.1872C32.612 38.4058 31.9398 40.0581 31.9381 41.7815V43.9482C31.9452 44.6879 32.0774 45.4209 32.3291 46.1148H31.9381C30.2479 46.1165 28.6273 46.8019 27.4322 48.0205C26.237 49.2391 25.5648 50.8914 25.5631 52.6148V54.7815C25.5702 55.5213 25.7024 56.2543 25.9541 56.9482H25.5631C23.8729 56.9499 22.2523 57.6353 21.0572 58.8539C19.862 60.0725 19.1898 61.7248 19.1881 63.4482V65.6148C19.1898 67.3382 19.862 68.9905 21.0572 70.2091C22.2523 71.4277 23.8729 72.1131 25.5631 72.1148H25.9541C25.7023 72.8087 25.57 73.5417 25.5631 74.2815V76.4482C25.5648 78.1715 26.237 79.8238 27.4322 81.0425C28.6273 82.2611 30.2479 82.9464 31.9381 82.9482H32.3291C32.0773 83.642 31.945 84.375 31.9381 85.1148V87.2815C31.9398 89.0049 32.612 90.6572 33.8072 91.8758C35.0023 93.0944 36.6229 93.7798 38.3131 93.7815H63.8131C65.5033 93.7798 67.1239 93.0944 68.319 91.8758C69.5142 90.6572 70.1864 89.0049 70.1881 87.2815V85.1148C70.1812 84.375 70.0489 83.642 69.7971 82.9482H70.1881C71.8783 82.9464 73.4989 82.2611 74.694 81.0425C75.8892 79.8238 76.5614 78.1715 76.5631 76.4482V74.2815C76.5562 73.5417 76.4239 72.8087 76.1721 72.1148H76.5631C78.2533 72.1131 79.8739 71.4277 81.069 70.2091C82.2642 68.9905 82.9364 67.3382 82.9381 65.6148V63.4482C82.9364 61.7248 82.2642 60.0725 81.069 58.8539C79.8739 57.6353 78.2533 56.9499 76.5631 56.9482ZM36.1881 43.9482V41.7815C36.1881 41.2069 36.412 40.6558 36.8105 40.2494C37.209 39.8431 37.7495 39.6148 38.3131 39.6148H63.8131C64.3767 39.6148 64.9172 39.8431 65.3157 40.2494C65.7142 40.6558 65.9381 41.2069 65.9381 41.7815V43.9482C65.9381 44.5228 65.7142 45.0739 65.3157 45.4802C64.9172 45.8866 64.3767 46.1148 63.8131 46.1148H38.3131C37.7495 46.1148 37.209 45.8866 36.8105 45.4802C36.412 45.0739 36.1881 44.5228 36.1881 43.9482ZM65.9381 85.1148V87.2815C65.9381 87.8561 65.7142 88.4072 65.3157 88.8136C64.9172 89.2199 64.3767 89.4482 63.8131 89.4482H38.3131C37.7495 89.4482 37.209 89.2199 36.8105 88.8136C36.412 88.4072 36.1881 87.8561 36.1881 87.2815V85.1148C36.1881 84.5402 36.412 83.9891 36.8105 83.5828C37.209 83.1764 37.7495 82.9482 38.3131 82.9482H63.8131C64.3767 82.9482 64.9172 83.1764 65.3157 83.5828C65.7142 83.9891 65.9381 84.5402 65.9381 85.1148ZM78.6881 65.6148C78.6881 66.1895 78.4642 66.7406 78.0657 67.1469C77.6672 67.5532 77.1267 67.7815 76.5631 67.7815H56.6731C56.1095 67.7815 55.569 68.0098 55.1705 68.4161C54.772 68.8224 54.5481 69.3735 54.5481 69.9482C54.5481 70.5228 54.772 71.0739 55.1705 71.4802C55.569 71.8866 56.1095 72.1148 56.6731 72.1148H70.1881C70.7517 72.1148 71.2922 72.3431 71.6907 72.7494C72.0892 73.1558 72.3131 73.7069 72.3131 74.2815V76.4482C72.3131 77.0228 72.0892 77.5739 71.6907 77.9802C71.2922 78.3866 70.7517 78.6148 70.1881 78.6148H31.9381C31.3745 78.6148 30.834 78.3866 30.4355 77.9802C30.037 77.5739 29.8131 77.0228 29.8131 76.4482V74.2815C29.8131 73.7069 30.037 73.1558 30.4355 72.7494C30.834 72.3431 31.3745 72.1148 31.9381 72.1148H45.4531C46.0167 72.1148 46.5572 71.8866 46.9557 71.4802C47.3542 71.0739 47.5781 70.5228 47.5781 69.9482C47.5781 69.3735 47.3542 68.8224 46.9557 68.4161C46.5572 68.0098 46.0167 67.7815 45.4531 67.7815H25.5631C24.9995 67.7815 24.459 67.5532 24.0605 67.1469C23.662 66.7406 23.4381 66.1895 23.4381 65.6148V63.4482C23.4381 62.8735 23.662 62.3224 24.0605 61.9161C24.459 61.5098 24.9995 61.2815 25.5631 61.2815H43.7106C44.2742 61.2815 44.8147 61.0532 45.2132 60.6469C45.6117 60.2406 45.8356 59.6895 45.8356 59.1148C45.8356 58.5402 45.6117 57.9891 45.2132 57.5828C44.8147 57.1764 44.2742 56.9482 43.7106 56.9482H31.9381C31.3745 56.9482 30.834 56.7199 30.4355 56.3136C30.037 55.9072 29.8131 55.3561 29.8131 54.7815V52.6148C29.8131 52.0402 30.037 51.4891 30.4355 51.0828C30.834 50.6764 31.3745 50.4482 31.9381 50.4482H70.1881C70.7517 50.4482 71.2922 50.6764 71.6907 51.0828C72.0892 51.4891 72.3131 52.0402 72.3131 52.6148V54.7815C72.3131 55.3561 72.0892 55.9072 71.6907 56.3136C71.2922 56.7199 70.7517 56.9482 70.1881 56.9482H58.4156C57.852 56.9482 57.3115 57.1764 56.913 57.5828C56.5145 57.9891 56.2906 58.5402 56.2906 59.1148C56.2906 59.6895 56.5145 60.2406 56.913 60.6469C57.3115 61.0532 57.852 61.2815 58.4156 61.2815H76.5631C77.1267 61.2815 77.6672 61.5098 78.0657 61.9161C78.4642 62.3224 78.6881 62.8735 78.6881 63.4482V65.6148Z"/>
</mask>
<path d="M76.5631 56.9482H76.1721C76.4239 56.2543 76.5562 55.5213 76.5631 54.7815V52.6148C76.5614 50.8914 75.8892 49.2391 74.694 48.0205C73.4989 46.8019 71.8783 46.1165 70.1881 46.1148H69.7971C70.0489 45.421 70.1812 44.688 70.1881 43.9482V41.7815C70.1864 40.0581 69.5142 38.4058 68.319 37.1872C67.1239 35.9686 65.5033 35.2832 63.8131 35.2815H38.3131C36.6229 35.2832 35.0023 35.9686 33.8072 37.1872C32.612 38.4058 31.9398 40.0581 31.9381 41.7815V43.9482C31.9452 44.6879 32.0774 45.4209 32.3291 46.1148H31.9381C30.2479 46.1165 28.6273 46.8019 27.4322 48.0205C26.237 49.2391 25.5648 50.8914 25.5631 52.6148V54.7815C25.5702 55.5213 25.7024 56.2543 25.9541 56.9482H25.5631C23.8729 56.9499 22.2523 57.6353 21.0572 58.8539C19.862 60.0725 19.1898 61.7248 19.1881 63.4482V65.6148C19.1898 67.3382 19.862 68.9905 21.0572 70.2091C22.2523 71.4277 23.8729 72.1131 25.5631 72.1148H25.9541C25.7023 72.8087 25.57 73.5417 25.5631 74.2815V76.4482C25.5648 78.1715 26.237 79.8238 27.4322 81.0425C28.6273 82.2611 30.2479 82.9464 31.9381 82.9482H32.3291C32.0773 83.642 31.945 84.375 31.9381 85.1148V87.2815C31.9398 89.0049 32.612 90.6572 33.8072 91.8758C35.0023 93.0944 36.6229 93.7798 38.3131 93.7815H63.8131C65.5033 93.7798 67.1239 93.0944 68.319 91.8758C69.5142 90.6572 70.1864 89.0049 70.1881 87.2815V85.1148C70.1812 84.375 70.0489 83.642 69.7971 82.9482H70.1881C71.8783 82.9464 73.4989 82.2611 74.694 81.0425C75.8892 79.8238 76.5614 78.1715 76.5631 76.4482V74.2815C76.5562 73.5417 76.4239 72.8087 76.1721 72.1148H76.5631C78.2533 72.1131 79.8739 71.4277 81.069 70.2091C82.2642 68.9905 82.9364 67.3382 82.9381 65.6148V63.4482C82.9364 61.7248 82.2642 60.0725 81.069 58.8539C79.8739 57.6353 78.2533 56.9499 76.5631 56.9482ZM36.1881 43.9482V41.7815C36.1881 41.2069 36.412 40.6558 36.8105 40.2494C37.209 39.8431 37.7495 39.6148 38.3131 39.6148H63.8131C64.3767 39.6148 64.9172 39.8431 65.3157 40.2494C65.7142 40.6558 65.9381 41.2069 65.9381 41.7815V43.9482C65.9381 44.5228 65.7142 45.0739 65.3157 45.4802C64.9172 45.8866 64.3767 46.1148 63.8131 46.1148H38.3131C37.7495 46.1148 37.209 45.8866 36.8105 45.4802C36.412 45.0739 36.1881 44.5228 36.1881 43.9482ZM65.9381 85.1148V87.2815C65.9381 87.8561 65.7142 88.4072 65.3157 88.8136C64.9172 89.2199 64.3767 89.4482 63.8131 89.4482H38.3131C37.7495 89.4482 37.209 89.2199 36.8105 88.8136C36.412 88.4072 36.1881 87.8561 36.1881 87.2815V85.1148C36.1881 84.5402 36.412 83.9891 36.8105 83.5828C37.209 83.1764 37.7495 82.9482 38.3131 82.9482H63.8131C64.3767 82.9482 64.9172 83.1764 65.3157 83.5828C65.7142 83.9891 65.9381 84.5402 65.9381 85.1148ZM78.6881 65.6148C78.6881 66.1895 78.4642 66.7406 78.0657 67.1469C77.6672 67.5532 77.1267 67.7815 76.5631 67.7815H56.6731C56.1095 67.7815 55.569 68.0098 55.1705 68.4161C54.772 68.8224 54.5481 69.3735 54.5481 69.9482C54.5481 70.5228 54.772 71.0739 55.1705 71.4802C55.569 71.8866 56.1095 72.1148 56.6731 72.1148H70.1881C70.7517 72.1148 71.2922 72.3431 71.6907 72.7494C72.0892 73.1558 72.3131 73.7069 72.3131 74.2815V76.4482C72.3131 77.0228 72.0892 77.5739 71.6907 77.9802C71.2922 78.3866 70.7517 78.6148 70.1881 78.6148H31.9381C31.3745 78.6148 30.834 78.3866 30.4355 77.9802C30.037 77.5739 29.8131 77.0228 29.8131 76.4482V74.2815C29.8131 73.7069 30.037 73.1558 30.4355 72.7494C30.834 72.3431 31.3745 72.1148 31.9381 72.1148H45.4531C46.0167 72.1148 46.5572 71.8866 46.9557 71.4802C47.3542 71.0739 47.5781 70.5228 47.5781 69.9482C47.5781 69.3735 47.3542 68.8224 46.9557 68.4161C46.5572 68.0098 46.0167 67.7815 45.4531 67.7815H25.5631C24.9995 67.7815 24.459 67.5532 24.0605 67.1469C23.662 66.7406 23.4381 66.1895 23.4381 65.6148V63.4482C23.4381 62.8735 23.662 62.3224 24.0605 61.9161C24.459 61.5098 24.9995 61.2815 25.5631 61.2815H43.7106C44.2742 61.2815 44.8147 61.0532 45.2132 60.6469C45.6117 60.2406 45.8356 59.6895 45.8356 59.1148C45.8356 58.5402 45.6117 57.9891 45.2132 57.5828C44.8147 57.1764 44.2742 56.9482 43.7106 56.9482H31.9381C31.3745 56.9482 30.834 56.7199 30.4355 56.3136C30.037 55.9072 29.8131 55.3561 29.8131 54.7815V52.6148C29.8131 52.0402 30.037 51.4891 30.4355 51.0828C30.834 50.6764 31.3745 50.4482 31.9381 50.4482H70.1881C70.7517 50.4482 71.2922 50.6764 71.6907 51.0828C72.0892 51.4891 72.3131 52.0402 72.3131 52.6148V54.7815C72.3131 55.3561 72.0892 55.9072 71.6907 56.3136C71.2922 56.7199 70.7517 56.9482 70.1881 56.9482H58.4156C57.852 56.9482 57.3115 57.1764 56.913 57.5828C56.5145 57.9891 56.2906 58.5402 56.2906 59.1148C56.2906 59.6895 56.5145 60.2406 56.913 60.6469C57.3115 61.0532 57.852 61.2815 58.4156 61.2815H76.5631C77.1267 61.2815 77.6672 61.5098 78.0657 61.9161C78.4642 62.3224 78.6881 62.8735 78.6881 63.4482V65.6148Z" fill="#E7A805" stroke="#040404" stroke-width="2" mask="url(#path-2-inside-1_103255_505)"/>
<path d="M51 71.5001H51.0005C52.8263 71.4982 54.5749 70.7578 55.8629 69.4445C57.1506 68.1315 57.8732 66.3533 57.875 64.5006V64.5001C57.875 63.1177 57.473 61.7657 56.7188 60.6148C55.9646 59.4638 54.8915 58.5653 53.6341 58.0343C52.3767 57.5032 50.9925 57.3641 49.6569 57.635C48.3214 57.9058 47.0961 58.5741 46.1352 59.5538C45.1745 60.5334 44.5213 61.7802 44.2568 63.1363C43.9922 64.4922 44.1279 65.8978 44.647 67.1757C45.1662 68.4537 46.046 69.5475 47.1767 70.3179C48.3075 71.0883 49.6381 71.5001 51 71.5001ZM45.3786 55.9057C47.0433 54.7716 48.9995 54.1668 50.9997 54.1667C53.6809 54.1701 56.2534 55.2575 58.1523 57.1937C60.0516 59.1302 61.1218 61.7579 61.125 64.5007C61.1249 66.5463 60.5299 68.5453 59.4162 70.2447C58.3025 71.9442 56.7205 73.2673 54.8715 74.0482C53.0226 74.829 50.9887 75.0332 49.0266 74.6352C47.0644 74.2373 45.2606 73.2547 43.844 71.8103C42.4272 70.3658 41.4613 68.5241 41.0699 66.5178C40.6785 64.5115 40.8795 62.4319 41.647 60.5425C42.4145 58.6532 43.7136 57.04 45.3786 55.9057Z" fill="#656565" stroke="#040404"/>
</svg>
