<svg width="280" height="286" viewBox="0 0 280 286" fill="none" xmlns="http://www.w3.org/2000/svg">
<path d="M200.748 45.6667H195.991L199.319 49.0658L218.528 68.6866L218.541 68.699L218.553 68.7112C218.921 69.0743 219.217 69.511 219.421 69.9968L221.265 69.2215L219.421 69.9969C219.626 70.4828 219.734 71.007 219.738 71.5385C219.743 72.0699 219.643 72.5961 219.447 73.0858C219.251 73.5754 218.963 74.0175 218.601 74.3873C218.239 74.7569 217.811 75.0469 217.343 75.2425C216.875 75.438 216.375 75.5359 215.872 75.5314C215.369 75.5269 214.871 75.4203 214.406 75.2164C213.941 75.0124 213.518 74.7147 213.162 74.3384L213.15 74.3258L213.138 74.3134L185.681 46.2675L185.093 45.6667H184.252H145.833H143.833V47.6667V89.375C143.833 90.4383 143.419 91.4498 142.696 92.189C141.973 92.9268 141.003 93.3333 140 93.3333C138.997 93.3333 138.027 92.9268 137.304 92.189C136.581 91.4498 136.167 90.4383 136.167 89.375V47.6667V45.6667H134.167H35C33.9971 45.6667 33.0266 45.2602 32.3043 44.5224C31.5806 43.7831 31.1666 42.7717 31.1666 41.7083C31.1666 40.645 31.5806 39.6335 32.3043 38.8943C33.0266 38.1565 33.9971 37.75 35 37.75H245C246.003 37.75 246.973 38.1565 247.696 38.8943C248.419 39.6335 248.833 40.645 248.833 41.7083C248.833 42.7717 248.419 43.7831 247.696 44.5224C246.973 45.2602 246.003 45.6667 245 45.6667H200.748Z" fill="#656565" stroke="#040404" stroke-width="4"/>
<mask id="path-2-inside-1_103173_745" fill="white">
<path d="M210.173 140.108H209.1C209.791 138.2 210.154 136.184 210.173 134.149V128.191C210.169 123.452 208.323 118.908 205.042 115.557C201.762 112.205 197.313 110.321 192.673 110.316H191.6C192.291 108.408 192.654 106.392 192.673 104.358V98.3993C192.669 93.66 190.823 89.1162 187.542 85.765C184.262 82.4138 179.813 80.529 175.173 80.5243H105.173C100.533 80.529 96.0849 82.4138 92.804 85.765C89.5231 89.1162 87.6779 93.66 87.6732 98.3993V104.358C87.6926 106.392 88.0557 108.408 88.7466 110.316H87.6732C83.0334 110.321 78.5848 112.205 75.304 115.557C72.0231 118.908 70.1779 123.452 70.1732 128.191V134.149C70.1926 136.184 70.5557 138.199 71.2466 140.108H70.1732C65.5334 140.112 61.0848 141.997 57.804 145.348C54.5231 148.7 52.6779 153.243 52.6732 157.983V163.941C52.6779 168.68 54.5231 173.224 57.804 176.575C61.0848 179.926 65.5334 181.811 70.1732 181.816H71.2466C70.5553 183.724 70.1922 185.74 70.1732 187.774V193.733C70.1779 198.472 72.0231 203.016 75.304 206.367C78.5848 209.718 83.0334 211.603 87.6732 211.608H88.7466C88.0553 213.516 87.6922 215.532 87.6732 217.566V223.524C87.6779 228.264 89.5231 232.807 92.804 236.159C96.0849 239.51 100.533 241.395 105.173 241.399H175.173C179.813 241.395 184.262 239.51 187.542 236.159C190.823 232.807 192.669 228.264 192.673 223.524V217.566C192.654 215.532 192.291 213.516 191.6 211.608H192.673C197.313 211.603 201.762 209.718 205.042 206.367C208.323 203.016 210.169 198.472 210.173 193.733V187.774C210.154 185.74 209.791 183.724 209.1 181.816H210.173C214.813 181.811 219.262 179.926 222.542 176.575C225.823 173.224 227.669 168.68 227.673 163.941V157.983C227.669 153.243 225.823 148.7 222.542 145.348C219.262 141.997 214.813 140.112 210.173 140.108ZM99.3399 104.358V98.3993C99.3399 96.819 99.9545 95.3035 101.048 94.1861C102.142 93.0687 103.626 92.441 105.173 92.441H175.173C176.72 92.441 178.204 93.0687 179.298 94.1861C180.392 95.3035 181.007 96.819 181.007 98.3993V104.358C181.007 105.938 180.392 107.453 179.298 108.571C178.204 109.688 176.72 110.316 175.173 110.316H105.173C103.626 110.316 102.142 109.688 101.048 108.571C99.9545 107.453 99.3399 105.938 99.3399 104.358ZM181.007 217.566V223.524C181.007 225.105 180.392 226.62 179.298 227.737C178.204 228.855 176.72 229.483 175.173 229.483H105.173C103.626 229.483 102.142 228.855 101.048 227.737C99.9545 226.62 99.3399 225.105 99.3399 223.524V217.566C99.3399 215.986 99.9545 214.47 101.048 213.353C102.142 212.235 103.626 211.608 105.173 211.608H175.173C176.72 211.608 178.204 212.235 179.298 213.353C180.392 214.47 181.007 215.986 181.007 217.566ZM216.007 163.941C216.007 165.521 215.392 167.037 214.298 168.154C213.204 169.272 211.72 169.899 210.173 169.899H155.573C154.026 169.899 152.542 170.527 151.448 171.644C150.354 172.762 149.74 174.277 149.74 175.858C149.74 177.438 150.354 178.953 151.448 180.071C152.542 181.188 154.026 181.816 155.573 181.816H192.673C194.22 181.816 195.704 182.444 196.798 183.561C197.892 184.679 198.507 186.194 198.507 187.774V193.733C198.507 195.313 197.892 196.828 196.798 197.946C195.704 199.063 194.22 199.691 192.673 199.691H87.6732C86.1261 199.691 84.6424 199.063 83.5484 197.946C82.4545 196.828 81.8399 195.313 81.8399 193.733V187.774C81.8399 186.194 82.4545 184.679 83.5484 183.561C84.6424 182.444 86.1261 181.816 87.6732 181.816H124.773C126.32 181.816 127.804 181.188 128.898 180.071C129.992 178.953 130.607 177.438 130.607 175.858C130.607 174.277 129.992 172.762 128.898 171.644C127.804 170.527 126.32 169.899 124.773 169.899H70.1732C68.6261 169.899 67.1424 169.272 66.0484 168.154C64.9545 167.037 64.3399 165.521 64.3399 163.941V157.983C64.3399 156.402 64.9545 154.887 66.0484 153.769C67.1424 152.652 68.6261 152.024 70.1732 152.024H119.99C121.537 152.024 123.021 151.397 124.115 150.279C125.209 149.162 125.823 147.646 125.823 146.066C125.823 144.486 125.209 142.97 124.115 141.853C123.021 140.735 121.537 140.108 119.99 140.108H87.6732C86.1261 140.108 84.6424 139.48 83.5484 138.362C82.4545 137.245 81.8399 135.73 81.8399 134.149V128.191C81.8399 126.611 82.4545 125.095 83.5484 123.978C84.6424 122.86 86.1261 122.233 87.6732 122.233H192.673C194.22 122.233 195.704 122.86 196.798 123.978C197.892 125.095 198.507 126.611 198.507 128.191V134.149C198.507 135.73 197.892 137.245 196.798 138.362C195.704 139.48 194.22 140.108 192.673 140.108H160.357C158.809 140.108 157.326 140.735 156.232 141.853C155.138 142.97 154.523 144.486 154.523 146.066C154.523 147.646 155.138 149.162 156.232 150.279C157.326 151.397 158.809 152.024 160.357 152.024H210.173C211.72 152.024 213.204 152.652 214.298 153.769C215.392 154.887 216.007 156.402 216.007 157.983V163.941Z"/>
</mask>
<path d="M210.173 140.108H209.1C209.791 138.2 210.154 136.184 210.173 134.149V128.191C210.169 123.452 208.323 118.908 205.042 115.557C201.762 112.205 197.313 110.321 192.673 110.316H191.6C192.291 108.408 192.654 106.392 192.673 104.358V98.3993C192.669 93.66 190.823 89.1162 187.542 85.765C184.262 82.4138 179.813 80.529 175.173 80.5243H105.173C100.533 80.529 96.0849 82.4138 92.804 85.765C89.5231 89.1162 87.6779 93.66 87.6732 98.3993V104.358C87.6926 106.392 88.0557 108.408 88.7466 110.316H87.6732C83.0334 110.321 78.5848 112.205 75.304 115.557C72.0231 118.908 70.1779 123.452 70.1732 128.191V134.149C70.1926 136.184 70.5557 138.199 71.2466 140.108H70.1732C65.5334 140.112 61.0848 141.997 57.804 145.348C54.5231 148.7 52.6779 153.243 52.6732 157.983V163.941C52.6779 168.68 54.5231 173.224 57.804 176.575C61.0848 179.926 65.5334 181.811 70.1732 181.816H71.2466C70.5553 183.724 70.1922 185.74 70.1732 187.774V193.733C70.1779 198.472 72.0231 203.016 75.304 206.367C78.5848 209.718 83.0334 211.603 87.6732 211.608H88.7466C88.0553 213.516 87.6922 215.532 87.6732 217.566V223.524C87.6779 228.264 89.5231 232.807 92.804 236.159C96.0849 239.51 100.533 241.395 105.173 241.399H175.173C179.813 241.395 184.262 239.51 187.542 236.159C190.823 232.807 192.669 228.264 192.673 223.524V217.566C192.654 215.532 192.291 213.516 191.6 211.608H192.673C197.313 211.603 201.762 209.718 205.042 206.367C208.323 203.016 210.169 198.472 210.173 193.733V187.774C210.154 185.74 209.791 183.724 209.1 181.816H210.173C214.813 181.811 219.262 179.926 222.542 176.575C225.823 173.224 227.669 168.68 227.673 163.941V157.983C227.669 153.243 225.823 148.7 222.542 145.348C219.262 141.997 214.813 140.112 210.173 140.108ZM99.3399 104.358V98.3993C99.3399 96.819 99.9545 95.3035 101.048 94.1861C102.142 93.0687 103.626 92.441 105.173 92.441H175.173C176.72 92.441 178.204 93.0687 179.298 94.1861C180.392 95.3035 181.007 96.819 181.007 98.3993V104.358C181.007 105.938 180.392 107.453 179.298 108.571C178.204 109.688 176.72 110.316 175.173 110.316H105.173C103.626 110.316 102.142 109.688 101.048 108.571C99.9545 107.453 99.3399 105.938 99.3399 104.358ZM181.007 217.566V223.524C181.007 225.105 180.392 226.62 179.298 227.737C178.204 228.855 176.72 229.483 175.173 229.483H105.173C103.626 229.483 102.142 228.855 101.048 227.737C99.9545 226.62 99.3399 225.105 99.3399 223.524V217.566C99.3399 215.986 99.9545 214.47 101.048 213.353C102.142 212.235 103.626 211.608 105.173 211.608H175.173C176.72 211.608 178.204 212.235 179.298 213.353C180.392 214.47 181.007 215.986 181.007 217.566ZM216.007 163.941C216.007 165.521 215.392 167.037 214.298 168.154C213.204 169.272 211.72 169.899 210.173 169.899H155.573C154.026 169.899 152.542 170.527 151.448 171.644C150.354 172.762 149.74 174.277 149.74 175.858C149.74 177.438 150.354 178.953 151.448 180.071C152.542 181.188 154.026 181.816 155.573 181.816H192.673C194.22 181.816 195.704 182.444 196.798 183.561C197.892 184.679 198.507 186.194 198.507 187.774V193.733C198.507 195.313 197.892 196.828 196.798 197.946C195.704 199.063 194.22 199.691 192.673 199.691H87.6732C86.1261 199.691 84.6424 199.063 83.5484 197.946C82.4545 196.828 81.8399 195.313 81.8399 193.733V187.774C81.8399 186.194 82.4545 184.679 83.5484 183.561C84.6424 182.444 86.1261 181.816 87.6732 181.816H124.773C126.32 181.816 127.804 181.188 128.898 180.071C129.992 178.953 130.607 177.438 130.607 175.858C130.607 174.277 129.992 172.762 128.898 171.644C127.804 170.527 126.32 169.899 124.773 169.899H70.1732C68.6261 169.899 67.1424 169.272 66.0484 168.154C64.9545 167.037 64.3399 165.521 64.3399 163.941V157.983C64.3399 156.402 64.9545 154.887 66.0484 153.769C67.1424 152.652 68.6261 152.024 70.1732 152.024H119.99C121.537 152.024 123.021 151.397 124.115 150.279C125.209 149.162 125.823 147.646 125.823 146.066C125.823 144.486 125.209 142.97 124.115 141.853C123.021 140.735 121.537 140.108 119.99 140.108H87.6732C86.1261 140.108 84.6424 139.48 83.5484 138.362C82.4545 137.245 81.8399 135.73 81.8399 134.149V128.191C81.8399 126.611 82.4545 125.095 83.5484 123.978C84.6424 122.86 86.1261 122.233 87.6732 122.233H192.673C194.22 122.233 195.704 122.86 196.798 123.978C197.892 125.095 198.507 126.611 198.507 128.191V134.149C198.507 135.73 197.892 137.245 196.798 138.362C195.704 139.48 194.22 140.108 192.673 140.108H160.357C158.809 140.108 157.326 140.735 156.232 141.853C155.138 142.97 154.523 144.486 154.523 146.066C154.523 147.646 155.138 149.162 156.232 150.279C157.326 151.397 158.809 152.024 160.357 152.024H210.173C211.72 152.024 213.204 152.652 214.298 153.769C215.392 154.887 216.007 156.402 216.007 157.983V163.941Z" fill="#E7A805" stroke="#040404" stroke-width="8" mask="url(#path-2-inside-1_103173_745)"/>
<path d="M140 180.75H140.002C145.186 180.745 150.146 178.639 153.798 174.908C157.449 171.18 159.495 166.133 159.5 160.877V160.875C159.5 156.953 158.362 153.117 156.224 149.849C154.087 146.582 151.044 144.028 147.476 142.519C143.908 141.009 139.979 140.613 136.188 141.384C132.397 142.154 128.921 144.054 126.197 146.836C123.473 149.619 121.622 153.158 120.873 157.005C120.124 160.853 120.508 164.841 121.979 168.467C123.45 172.094 125.943 175.201 129.15 177.389C132.358 179.579 136.134 180.75 140 180.75ZM124.923 137.756C129.39 134.708 134.636 133.084 139.999 133.083C147.188 133.093 154.088 136.013 159.185 141.219C164.283 146.426 167.158 153.495 167.167 160.877C167.166 166.383 165.568 171.761 162.578 176.332C159.587 180.903 155.342 184.459 150.382 186.557C145.424 188.655 139.969 189.203 134.708 188.134C129.446 187.065 124.607 184.425 120.805 180.542C117.003 176.658 114.408 171.704 113.357 166.305C112.305 160.905 112.845 155.309 114.907 150.226C116.968 145.143 120.456 140.805 124.923 137.756Z" fill="#656565" stroke="#040404" stroke-width="4"/>
</svg>
