<svg width="200" height="164" viewBox="0 0 200 164" fill="none" xmlns="http://www.w3.org/2000/svg">
<path d="M143.392 15.987H141.01L142.678 17.6872L156.399 31.677L156.405 31.6833L156.411 31.6894C156.714 31.9881 156.957 32.3464 157.125 32.7441C157.292 33.1418 157.381 33.5702 157.384 34.0042C157.388 34.4383 157.307 34.8682 157.146 35.2689L158.074 35.6413L157.146 35.2689C156.985 35.6696 156.748 36.0324 156.45 36.3365C156.152 36.6406 155.798 36.88 155.411 37.0417C155.023 37.2035 154.608 37.2846 154.19 37.2809C153.773 37.2772 153.359 37.1887 152.974 37.0201C152.589 36.8515 152.24 36.6058 151.947 36.2963L151.941 36.29L151.935 36.2838L132.322 16.2868L132.028 15.987H131.608H104.167H103.167V16.987V46.7255C103.167 47.5933 102.828 48.4216 102.232 49.0294C101.637 49.6365 100.833 49.9739 100 49.9739C99.1665 49.9739 98.3631 49.6365 97.7676 49.0294C97.1716 48.4216 96.8333 47.5933 96.8333 46.7255V16.987V15.987H95.8333H25C24.1665 15.987 23.3631 15.6495 22.7676 15.0424C22.1716 14.4347 21.8333 13.6063 21.8333 12.7386C21.8333 11.8709 22.1716 11.0425 22.7676 10.4348C23.3631 9.82766 24.1665 9.49023 25 9.49023H175C175.833 9.49023 176.637 9.82766 177.232 10.4348C177.828 11.0425 178.167 11.8709 178.167 12.7386C178.167 13.6063 177.828 14.4347 177.232 15.0424C176.637 15.6495 175.833 15.987 175 15.987H143.392Z" fill="#656565" stroke="#040404" stroke-width="2"/>
<mask id="path-2-inside-1_103256_653" fill="white">
<path d="M150.124 82.8985H149.357C149.851 81.538 150.11 80.1007 150.124 78.6501V74.4017C150.12 71.0226 148.802 67.7827 146.459 65.3933C144.115 63.0039 140.938 61.66 137.624 61.6566H136.857C137.351 60.2961 137.61 58.8588 137.624 57.4083V53.1599C137.62 49.7807 136.302 46.5409 133.959 44.1515C131.615 41.762 128.438 40.4182 125.124 40.4148H75.1238C71.8096 40.4182 68.6321 41.762 66.2886 44.1515C63.9451 46.5409 62.6271 49.7807 62.6238 53.1599V57.4083C62.6376 58.8588 62.897 60.2961 63.3904 61.6566H62.6238C59.3096 61.66 56.1321 63.0039 53.7886 65.3933C51.4451 67.7827 50.1271 71.0226 50.1238 74.4017V78.6501C50.1376 80.1007 50.397 81.5379 50.8904 82.8985H50.1238C46.8096 82.9018 43.6321 84.2457 41.2886 86.6351C38.9451 89.0246 37.6271 92.2644 37.6238 95.6436V99.8919C37.6271 103.271 38.9451 106.511 41.2886 108.9C43.6321 111.29 46.8096 112.634 50.1238 112.637H50.8904C50.3967 113.998 50.1373 115.435 50.1238 116.885V121.134C50.1271 124.513 51.4451 127.753 53.7886 130.142C56.1321 132.532 59.3096 133.875 62.6238 133.879H63.3904C62.8967 135.239 62.6373 136.677 62.6238 138.127V142.376C62.6271 145.755 63.9451 148.995 66.2886 151.384C68.6321 153.773 71.8096 155.117 75.1238 155.121H125.124C128.438 155.117 131.615 153.773 133.959 151.384C136.302 148.995 137.62 145.755 137.624 142.376V138.127C137.61 136.677 137.351 135.239 136.857 133.879H137.624C140.938 133.875 144.115 132.532 146.459 130.142C148.802 127.753 150.12 124.513 150.124 121.134V116.885C150.11 115.435 149.851 113.998 149.357 112.637H150.124C153.438 112.634 156.615 111.29 158.959 108.9C161.302 106.511 162.62 103.271 162.624 99.8919V95.6436C162.62 92.2644 161.302 89.0246 158.959 86.6351C156.615 84.2457 153.438 82.9018 150.124 82.8985ZM70.9571 57.4083V53.1599C70.9571 52.0332 71.3961 50.9526 72.1775 50.1558C72.9589 49.3591 74.0187 48.9115 75.1238 48.9115H125.124C126.229 48.9115 127.289 49.3591 128.07 50.1558C128.851 50.9526 129.29 52.0332 129.29 53.1599V57.4083C129.29 58.535 128.851 59.6156 128.07 60.4123C127.289 61.209 126.229 61.6566 125.124 61.6566H75.1238C74.0187 61.6566 72.9589 61.209 72.1775 60.4123C71.3961 59.6156 70.9571 58.535 70.9571 57.4083ZM129.29 138.127V142.376C129.29 143.502 128.851 144.583 128.07 145.38C127.289 146.176 126.229 146.624 125.124 146.624H75.1238C74.0187 146.624 72.9589 146.176 72.1775 145.38C71.3961 144.583 70.9571 143.502 70.9571 142.376V138.127C70.9571 137 71.3961 135.92 72.1775 135.123C72.9589 134.326 74.0187 133.879 75.1238 133.879H125.124C126.229 133.879 127.289 134.326 128.07 135.123C128.851 135.92 129.29 137 129.29 138.127ZM154.29 99.8919C154.29 101.019 153.851 102.099 153.07 102.896C152.289 103.693 151.229 104.14 150.124 104.14H111.124C110.019 104.14 108.959 104.588 108.177 105.385C107.396 106.181 106.957 107.262 106.957 108.389C106.957 109.515 107.396 110.596 108.177 111.393C108.959 112.189 110.019 112.637 111.124 112.637H137.624C138.729 112.637 139.789 113.085 140.57 113.881C141.351 114.678 141.79 115.759 141.79 116.885V121.134C141.79 122.26 141.351 123.341 140.57 124.138C139.789 124.935 138.729 125.382 137.624 125.382H62.6238C61.5187 125.382 60.4589 124.935 59.6775 124.138C58.8961 123.341 58.4571 122.26 58.4571 121.134V116.885C58.4571 115.759 58.8961 114.678 59.6775 113.881C60.4589 113.085 61.5187 112.637 62.6238 112.637H89.1238C90.2288 112.637 91.2887 112.189 92.0701 111.393C92.8515 110.596 93.2904 109.515 93.2904 108.389C93.2904 107.262 92.8515 106.181 92.0701 105.385C91.2887 104.588 90.2288 104.14 89.1238 104.14H50.1238C49.0187 104.14 47.9589 103.693 47.1775 102.896C46.3961 102.099 45.9571 101.019 45.9571 99.8919V95.6436C45.9571 94.5168 46.3961 93.4362 47.1775 92.6395C47.9589 91.8428 49.0187 91.3952 50.1238 91.3952H85.7071C86.8122 91.3952 87.872 90.9476 88.6534 90.1509C89.4348 89.3542 89.8738 88.2736 89.8738 87.1468C89.8738 86.0201 89.4348 84.9395 88.6534 84.1428C87.872 83.3461 86.8122 82.8985 85.7071 82.8985H62.6238C61.5187 82.8985 60.4589 82.4509 59.6775 81.6541C58.8961 80.8574 58.4571 79.7768 58.4571 78.6501V74.4017C58.4571 73.275 58.8961 72.1944 59.6775 71.3977C60.4589 70.601 61.5187 70.1534 62.6238 70.1534H137.624C138.729 70.1534 139.789 70.601 140.57 71.3977C141.351 72.1944 141.79 73.275 141.79 74.4017V78.6501C141.79 79.7768 141.351 80.8574 140.57 81.6541C139.789 82.4509 138.729 82.8985 137.624 82.8985H114.54C113.435 82.8985 112.376 83.3461 111.594 84.1428C110.813 84.9395 110.374 86.0201 110.374 87.1468C110.374 88.2736 110.813 89.3542 111.594 90.1509C112.376 90.9476 113.435 91.3952 114.54 91.3952H150.124C151.229 91.3952 152.289 91.8428 153.07 92.6395C153.851 93.4362 154.29 94.5168 154.29 95.6436V99.8919Z"/>
</mask>
<path d="M150.124 82.8985H149.357C149.851 81.538 150.11 80.1007 150.124 78.6501V74.4017C150.12 71.0226 148.802 67.7827 146.459 65.3933C144.115 63.0039 140.938 61.66 137.624 61.6566H136.857C137.351 60.2961 137.61 58.8588 137.624 57.4083V53.1599C137.62 49.7807 136.302 46.5409 133.959 44.1515C131.615 41.762 128.438 40.4182 125.124 40.4148H75.1238C71.8096 40.4182 68.6321 41.762 66.2886 44.1515C63.9451 46.5409 62.6271 49.7807 62.6238 53.1599V57.4083C62.6376 58.8588 62.897 60.2961 63.3904 61.6566H62.6238C59.3096 61.66 56.1321 63.0039 53.7886 65.3933C51.4451 67.7827 50.1271 71.0226 50.1238 74.4017V78.6501C50.1376 80.1007 50.397 81.5379 50.8904 82.8985H50.1238C46.8096 82.9018 43.6321 84.2457 41.2886 86.6351C38.9451 89.0246 37.6271 92.2644 37.6238 95.6436V99.8919C37.6271 103.271 38.9451 106.511 41.2886 108.9C43.6321 111.29 46.8096 112.634 50.1238 112.637H50.8904C50.3967 113.998 50.1373 115.435 50.1238 116.885V121.134C50.1271 124.513 51.4451 127.753 53.7886 130.142C56.1321 132.532 59.3096 133.875 62.6238 133.879H63.3904C62.8967 135.239 62.6373 136.677 62.6238 138.127V142.376C62.6271 145.755 63.9451 148.995 66.2886 151.384C68.6321 153.773 71.8096 155.117 75.1238 155.121H125.124C128.438 155.117 131.615 153.773 133.959 151.384C136.302 148.995 137.62 145.755 137.624 142.376V138.127C137.61 136.677 137.351 135.239 136.857 133.879H137.624C140.938 133.875 144.115 132.532 146.459 130.142C148.802 127.753 150.12 124.513 150.124 121.134V116.885C150.11 115.435 149.851 113.998 149.357 112.637H150.124C153.438 112.634 156.615 111.29 158.959 108.9C161.302 106.511 162.62 103.271 162.624 99.8919V95.6436C162.62 92.2644 161.302 89.0246 158.959 86.6351C156.615 84.2457 153.438 82.9018 150.124 82.8985ZM70.9571 57.4083V53.1599C70.9571 52.0332 71.3961 50.9526 72.1775 50.1558C72.9589 49.3591 74.0187 48.9115 75.1238 48.9115H125.124C126.229 48.9115 127.289 49.3591 128.07 50.1558C128.851 50.9526 129.29 52.0332 129.29 53.1599V57.4083C129.29 58.535 128.851 59.6156 128.07 60.4123C127.289 61.209 126.229 61.6566 125.124 61.6566H75.1238C74.0187 61.6566 72.9589 61.209 72.1775 60.4123C71.3961 59.6156 70.9571 58.535 70.9571 57.4083ZM129.29 138.127V142.376C129.29 143.502 128.851 144.583 128.07 145.38C127.289 146.176 126.229 146.624 125.124 146.624H75.1238C74.0187 146.624 72.9589 146.176 72.1775 145.38C71.3961 144.583 70.9571 143.502 70.9571 142.376V138.127C70.9571 137 71.3961 135.92 72.1775 135.123C72.9589 134.326 74.0187 133.879 75.1238 133.879H125.124C126.229 133.879 127.289 134.326 128.07 135.123C128.851 135.92 129.29 137 129.29 138.127ZM154.29 99.8919C154.29 101.019 153.851 102.099 153.07 102.896C152.289 103.693 151.229 104.14 150.124 104.14H111.124C110.019 104.14 108.959 104.588 108.177 105.385C107.396 106.181 106.957 107.262 106.957 108.389C106.957 109.515 107.396 110.596 108.177 111.393C108.959 112.189 110.019 112.637 111.124 112.637H137.624C138.729 112.637 139.789 113.085 140.57 113.881C141.351 114.678 141.79 115.759 141.79 116.885V121.134C141.79 122.26 141.351 123.341 140.57 124.138C139.789 124.935 138.729 125.382 137.624 125.382H62.6238C61.5187 125.382 60.4589 124.935 59.6775 124.138C58.8961 123.341 58.4571 122.26 58.4571 121.134V116.885C58.4571 115.759 58.8961 114.678 59.6775 113.881C60.4589 113.085 61.5187 112.637 62.6238 112.637H89.1238C90.2288 112.637 91.2887 112.189 92.0701 111.393C92.8515 110.596 93.2904 109.515 93.2904 108.389C93.2904 107.262 92.8515 106.181 92.0701 105.385C91.2887 104.588 90.2288 104.14 89.1238 104.14H50.1238C49.0187 104.14 47.9589 103.693 47.1775 102.896C46.3961 102.099 45.9571 101.019 45.9571 99.8919V95.6436C45.9571 94.5168 46.3961 93.4362 47.1775 92.6395C47.9589 91.8428 49.0187 91.3952 50.1238 91.3952H85.7071C86.8122 91.3952 87.872 90.9476 88.6534 90.1509C89.4348 89.3542 89.8738 88.2736 89.8738 87.1468C89.8738 86.0201 89.4348 84.9395 88.6534 84.1428C87.872 83.3461 86.8122 82.8985 85.7071 82.8985H62.6238C61.5187 82.8985 60.4589 82.4509 59.6775 81.6541C58.8961 80.8574 58.4571 79.7768 58.4571 78.6501V74.4017C58.4571 73.275 58.8961 72.1944 59.6775 71.3977C60.4589 70.601 61.5187 70.1534 62.6238 70.1534H137.624C138.729 70.1534 139.789 70.601 140.57 71.3977C141.351 72.1944 141.79 73.275 141.79 74.4017V78.6501C141.79 79.7768 141.351 80.8574 140.57 81.6541C139.789 82.4509 138.729 82.8985 137.624 82.8985H114.54C113.435 82.8985 112.376 83.3461 111.594 84.1428C110.813 84.9395 110.374 86.0201 110.374 87.1468C110.374 88.2736 110.813 89.3542 111.594 90.1509C112.376 90.9476 113.435 91.3952 114.54 91.3952H150.124C151.229 91.3952 152.289 91.8428 153.07 92.6395C153.851 93.4362 154.29 94.5168 154.29 95.6436V99.8919Z" fill="#E7A805" stroke="#040404" stroke-width="4" mask="url(#path-2-inside-1_103256_653)"/>
<path d="M100 111.451H100.001C103.586 111.447 107.02 109.993 109.549 107.415C112.078 104.836 113.496 101.345 113.5 97.7069V97.7059C113.5 94.9917 112.711 92.3369 111.23 90.077C109.749 87.817 107.642 86.0525 105.173 85.0098C102.703 83.967 99.9852 83.6938 97.3626 84.2257C94.7401 84.7576 92.3339 86.0699 90.4472 87.9936C88.5607 89.9171 87.2781 92.3654 86.7587 95.028C86.2393 97.6905 86.5057 100.45 87.525 102.96C88.5445 105.469 90.2721 107.617 92.4923 109.13C94.7129 110.642 97.3256 111.451 100 111.451ZM88.9887 80.8704C92.2496 78.6488 96.0813 77.4642 99.9994 77.4641C105.251 77.4707 110.29 79.6007 114.01 83.3934C117.731 87.1868 119.827 92.3341 119.833 97.7071C119.833 101.714 118.667 105.63 116.486 108.959C114.304 112.288 111.205 114.88 107.584 116.41C103.962 117.939 99.9778 118.339 96.1344 117.56C92.2908 116.78 88.7576 114.855 85.9825 112.026C83.2073 109.196 81.3152 105.589 80.5485 101.659C79.7817 97.7282 80.1754 93.6545 81.679 89.9534C83.1825 86.2525 85.7273 83.0923 88.9887 80.8704Z" fill="#656565" stroke="#040404" stroke-width="2"/>
</svg>
