<svg width="531" height="847" viewBox="0 0 531 847" fill="none" xmlns="http://www.w3.org/2000/svg">
<path d="M1.89996 289.556C102.254 304.767 200.113 251.139 208.212 174.311C217.506 86.6794 71.8208 -37.207 74.9149 92.7454C80.3225 320.425 600.757 268.322 508.842 63.8794C461.184 -42.1503 365.682 2.21172 326.566 85.8742C302.299 137.736 277.752 194.405 283.542 252.649C289.946 316.026 316.547 427.655 361.129 475.213C392.117 508.257 450.26 532.707 495.555 520.692C535.699 510.043 578.352 467.86 554.221 425.973C504.663 340.056 371.206 403.103 336.426 465.514C287.415 553.573 291.392 711.991 381.306 773.871C439.334 813.667 590.276 765.842 540.596 678.869C494.503 598.314 382.227 706.629 402.501 774.295C442.362 907.2 626.132 824.6 684.661 762.683C713.153 732.455 753.91 688.114 741.01 648.036" stroke="#656565" stroke-width="2" stroke-miterlimit="10" stroke-linecap="round" stroke-dasharray="11 11"/>
</svg>
