<svg width="464" height="845" viewBox="0 0 464 845" fill="none" xmlns="http://www.w3.org/2000/svg">
<path d="M0.89996 288.556C101.254 303.767 199.113 250.139 207.212 173.311C216.506 85.6794 70.8208 -38.207 73.9149 91.7454C79.3225 319.425 599.757 267.322 507.842 62.8794C460.184 -43.1503 364.682 1.21172 325.566 84.8742C301.299 136.736 276.752 193.405 282.542 251.649C288.946 315.026 315.547 426.655 360.129 474.213C391.117 507.257 449.26 531.707 494.555 519.692C534.699 509.043 577.352 466.86 553.221 424.973C503.663 339.056 370.206 402.103 335.426 464.514C286.415 552.573 290.392 710.991 380.306 772.871C438.334 812.667 589.276 764.842 539.596 677.869C493.503 597.314 381.227 705.629 401.501 773.295C441.362 906.2 625.132 823.6 683.661 761.683C712.153 731.455 752.91 687.114 740.01 647.036" stroke="#656565" stroke-miterlimit="10" stroke-linecap="round" stroke-dasharray="6 6"/>
</svg>
