<svg width="32" height="32" viewBox="0 0 32 32" fill="none" xmlns="http://www.w3.org/2000/svg">
<path d="M16.3227 3C14.5731 3 12.8407 3.3446 11.2243 4.01413C9.6079 4.68366 8.13921 5.66501 6.90208 6.90214C4.40358 9.40064 2.99994 12.7893 2.99994 16.3228C2.99994 22.2114 6.82357 27.2074 12.1127 28.9794C12.7788 29.0859 12.992 28.6729 12.992 28.3132V26.0617C9.3016 26.861 8.51556 24.2764 8.51556 24.2764C7.90271 22.731 7.03673 22.318 7.03673 22.318C5.82436 21.492 7.12999 21.5186 7.12999 21.5186C8.46227 21.6119 9.16837 22.8909 9.16837 22.8909C10.3275 24.9159 12.2859 24.3164 13.0453 23.9967C13.1652 23.1307 13.5116 22.5445 13.8846 22.2114C10.927 21.8783 7.82277 20.7326 7.82277 15.6566C7.82277 14.1778 8.32904 12.9921 9.19502 12.0461C9.06179 11.7131 8.59549 10.3275 9.32825 8.52894C9.32825 8.52894 10.4474 8.16923 12.992 9.88786C14.0445 9.59476 15.1903 9.44821 16.3227 9.44821C17.4551 9.44821 18.6009 9.59476 19.6534 9.88786C22.198 8.16923 23.3171 8.52894 23.3171 8.52894C24.0499 10.3275 23.5836 11.7131 23.4504 12.0461C24.3163 12.9921 24.8226 14.1778 24.8226 15.6566C24.8226 20.7459 21.7051 21.865 18.7341 22.1981C19.2137 22.6111 19.6534 23.4238 19.6534 24.6628V28.3132C19.6534 28.6729 19.8665 29.0993 20.546 28.9794C25.8351 27.1941 29.6454 22.2114 29.6454 16.3228C29.6454 14.5732 29.3008 12.8407 28.6313 11.2244C27.9618 9.60796 26.9804 8.13928 25.7433 6.90214C24.5062 5.66501 23.0375 4.68366 21.4211 4.01413C19.8047 3.3446 18.0723 3 16.3227 3Z" fill="#F6F6F6"/>
</svg>
