<svg width="32" height="32" viewBox="0 0 32 32" fill="none" xmlns="http://www.w3.org/2000/svg">
<path d="M17.3368 3C18.7993 3.0039 19.5415 3.0117 20.1824 3.0299L20.4346 3.039C20.7258 3.0494 21.0131 3.0624 21.3602 3.078C22.7434 3.143 23.6871 3.36139 24.5152 3.68248C25.3732 4.01268 26.096 4.45986 26.8188 5.18135C27.48 5.83098 27.9916 6.61713 28.3176 7.48489C28.6387 8.31297 28.8571 9.25675 28.9221 10.6412C28.9377 10.987 28.9507 11.2743 28.9611 11.5668L28.9689 11.819C28.9884 12.4586 28.9962 13.2009 28.9988 14.6633L29.0001 15.6331V17.3361C29.0033 18.2843 28.9933 19.2325 28.9702 20.1804L28.9624 20.4326C28.952 20.7251 28.939 21.0124 28.9234 21.3582C28.8584 22.7426 28.6374 23.6851 28.3176 24.5145C27.9916 25.3822 27.48 26.1684 26.8188 26.818C26.1691 27.4793 25.383 27.9908 24.5152 28.3169C23.6871 28.638 22.7434 28.8564 21.3602 28.9214L20.4346 28.9604L20.1824 28.9682C19.5415 28.9864 18.7993 28.9955 17.3368 28.9981L16.367 28.9994H14.6654C13.7167 29.0027 12.7681 28.9927 11.8197 28.9695L11.5675 28.9617C11.2589 28.95 10.9504 28.9366 10.642 28.9214C9.25879 28.8564 8.31501 28.638 7.48563 28.3169C6.61833 27.9907 5.83265 27.4792 5.18339 26.818C4.52163 26.1685 4.00966 25.3824 3.68322 24.5145C3.36213 23.6864 3.14374 22.7426 3.07874 21.3582L3.03974 20.4326L3.03324 20.1804C3.00928 19.2325 2.99844 18.2843 3.00074 17.3361V14.6633C2.99714 13.7151 3.00668 12.7669 3.02934 11.819L3.03844 11.5668C3.04884 11.2743 3.06184 10.987 3.07744 10.6412C3.14244 9.25675 3.36083 8.31427 3.68192 7.48489C4.00912 6.61677 4.52199 5.8306 5.18469 5.18135C5.83357 4.52038 6.6188 4.00887 7.48563 3.68248C8.31501 3.36139 9.25749 3.143 10.642 3.078C10.9877 3.0624 11.2763 3.0494 11.5675 3.039L11.8197 3.0312C12.7677 3.0081 13.7159 2.99813 14.6641 3.0013L17.3368 3ZM16.0004 9.49984C14.2766 9.49984 12.6233 10.1846 11.4043 11.4036C10.1854 12.6226 9.50058 14.2758 9.50058 15.9997C9.50058 17.7235 10.1854 19.3768 11.4043 20.5958C12.6233 21.8147 14.2766 22.4995 16.0004 22.4995C17.7243 22.4995 19.3776 21.8147 20.5965 20.5958C21.8155 19.3768 22.5003 17.7235 22.5003 15.9997C22.5003 14.2758 21.8155 12.6226 20.5965 11.4036C19.3776 10.1846 17.7243 9.49984 16.0004 9.49984ZM16.0004 12.0998C16.5126 12.0997 17.0197 12.2005 17.4929 12.3964C17.9661 12.5923 18.3961 12.8795 18.7583 13.2416C19.1205 13.6037 19.4078 14.0335 19.6039 14.5067C19.7999 14.9798 19.9009 15.4869 19.901 15.999C19.9011 16.5112 19.8003 17.0183 19.6044 17.4915C19.4085 17.9647 19.1213 18.3947 18.7592 18.7569C18.3971 19.1191 17.9672 19.4064 17.4941 19.6025C17.021 19.7985 16.5139 19.8995 16.0017 19.8996C14.9674 19.8996 13.9754 19.4887 13.2441 18.7573C12.5127 18.026 12.1018 17.034 12.1018 15.9997C12.1018 14.9654 12.5127 13.9734 13.2441 13.242C13.9754 12.5107 14.9674 12.0998 16.0017 12.0998M22.8266 7.54989C22.3956 7.54989 21.9823 7.72109 21.6775 8.02583C21.3728 8.33057 21.2016 8.74388 21.2016 9.17485C21.2016 9.60582 21.3728 10.0191 21.6775 10.3239C21.9823 10.6286 22.3956 10.7998 22.8266 10.7998C23.2575 10.7998 23.6708 10.6286 23.9756 10.3239C24.2803 10.0191 24.4515 9.60582 24.4515 9.17485C24.4515 8.74388 24.2803 8.33057 23.9756 8.02583C23.6708 7.72109 23.2575 7.54989 22.8266 7.54989Z" fill="#F6F6F6"/>
</svg>
