<svg aria-hidden="true" style="position: absolute; width: 0; height: 0; overflow: hidden;" version="1.1"
  xmlns="http://www.w3.org/2000/svg"
  xmlns:xlink="http://www.w3.org/1999/xlink">
  <defs>
    <symbol id="icon-arrow-right" viewBox="0 0 32 32">
      <path fill="none" stroke-linejoin="round" stroke-linecap="round" stroke-miterlimit="4" stroke-width="1.5238" d="M4 16.017l23.719-0.017M18.684 25.334l9.316-9.333-9.317-9.333"></path>
    </symbol>
    <symbol id="icon-clock" viewBox="0 0 32 32">
      <path fill="none" stroke-linejoin="round" stroke-linecap="round" stroke-miterlimit="4" stroke-width="0.6667" d="M16.024 6.394v9.606M21.708 19.271l-5.652-3.262M3 16c-0.002 7.177 5.816 12.998 12.996 13s13.002-5.814 13.004-12.992v-0.008c0.002-7.177-5.816-12.998-12.996-13s-13.002 5.814-13.004 12.992v0.008z"></path>
    </symbol>
    <symbol id="icon-down" viewBox="0 0 32 32">
      <path stroke-linejoin="round" stroke-linecap="round" stroke-miterlimit="4" stroke-width="2" d="M9.333 13.333l6.667 6.667 6.667-6.667"></path>
    </symbol>
    <symbol id="icon-Facebook" viewBox="0 0 32 32">
      <path fill="#fff" style="fill: var(--color1, #fff)" d="M18.484 10.123h2.29c0.141 0 0.282-0.106 0.282-0.282v-3.559c0-0.141-0.106-0.282-0.282-0.282h-3.136c-1.55 0-2.713 0.388-3.524 1.198-0.74 0.74-1.092 1.726-1.092 3.030v2.537h-1.797c-0.141 0-0.282 0.106-0.282 0.282v3.453c0 0.141 0.106 0.282 0.282 0.282h1.797v9.936c0 0.141 0.106 0.282 0.282 0.282h4.228c0.141 0 0.282-0.106 0.282-0.282v-9.971h2.572c0.141 0 0.247-0.106 0.247-0.211 0 0 0.282-1.691 0.388-3.488 0-0.070-0.035-0.141-0.070-0.211s-0.106-0.070-0.176-0.070h-2.96v-2.079c0-0.211 0.352-0.564 0.669-0.564zM17.568 13.294h2.924c-0.106 1.268-0.282 2.466-0.352 2.925h-2.607c-0.141 0-0.282 0.106-0.282 0.282v9.971h-3.664v-9.971c0-0.141-0.106-0.282-0.282-0.282h-1.797v-2.889h1.797c0.141 0 0.282-0.106 0.282-0.282v-2.854c0-1.128 0.317-1.973 0.916-2.607 0.705-0.705 1.762-1.057 3.136-1.057h2.889v3.065h-2.044c-0.564 0-1.198 0.564-1.198 1.092v2.361c0 0.141 0.141 0.247 0.282 0.247z"></path>
    </symbol>
    <symbol id="icon-file" viewBox="0 0 32 32">
      <path fill="#fff" style="fill: var(--color1, #fff)" d="M18.484 10.123h2.29c0.141 0 0.282-0.106 0.282-0.282v-3.559c0-0.141-0.106-0.282-0.282-0.282h-3.136c-1.55 0-2.713 0.388-3.524 1.198-0.74 0.74-1.092 1.726-1.092 3.030v2.537h-1.797c-0.141 0-0.282 0.106-0.282 0.282v3.453c0 0.141 0.106 0.282 0.282 0.282h1.797v9.936c0 0.141 0.106 0.282 0.282 0.282h4.228c0.141 0 0.282-0.106 0.282-0.282v-9.971h2.572c0.141 0 0.247-0.106 0.247-0.211 0 0 0.282-1.691 0.388-3.488 0-0.070-0.035-0.141-0.070-0.211s-0.106-0.070-0.176-0.070h-2.96v-2.079c0-0.211 0.352-0.564 0.669-0.564zM17.568 13.294h2.924c-0.106 1.268-0.282 2.466-0.352 2.925h-2.607c-0.141 0-0.282 0.106-0.282 0.282v9.971h-3.664v-9.971c0-0.141-0.106-0.282-0.282-0.282h-1.797v-2.889h1.797c0.141 0 0.282-0.106 0.282-0.282v-2.854c0-1.128 0.317-1.973 0.916-2.607 0.705-0.705 1.762-1.057 3.136-1.057h2.889v3.065h-2.044c-0.564 0-1.198 0.564-1.198 1.092v2.361c0 0.141 0.141 0.247 0.282 0.247z"></path>
    </symbol>
    <symbol id="icon-Instagram" viewBox="0 0 32 32">
      <path fill="#fff" style="fill: var(--color1, #fff)" d="M16.5 11.88c-0.914 0-1.807 0.271-2.567 0.779s-1.352 1.229-1.702 2.073-0.441 1.773-0.263 2.669c0.178 0.896 0.618 1.719 1.264 2.366s1.469 1.086 2.366 1.264c0.896 0.178 1.825 0.087 2.669-0.263s1.566-0.942 2.073-1.702c0.508-0.76 0.779-1.653 0.779-2.567-0.001-1.225-0.489-2.399-1.355-3.265s-2.040-1.353-3.265-1.355zM16.5 20.28c-0.748 0-1.478-0.222-2.1-0.637s-1.106-1.006-1.392-1.697-0.361-1.451-0.215-2.184c0.146-0.733 0.506-1.407 1.034-1.935s1.202-0.889 1.935-1.034c0.733-0.146 1.493-0.071 2.184 0.215s1.281 0.771 1.697 1.392c0.415 0.622 0.637 1.352 0.637 2.1 0 1.003-0.398 1.964-1.107 2.673s-1.67 1.107-2.673 1.107zM21.54 6h-10.080c-1.448 0.002-2.835 0.577-3.859 1.601s-1.599 2.411-1.601 3.859v10.080c0.002 1.448 0.577 2.835 1.601 3.859s2.411 1.599 3.859 1.601h10.080c1.448-0.002 2.835-0.578 3.859-1.601s1.599-2.411 1.601-3.859v-10.080c-0.002-1.448-0.578-2.835-1.601-3.859s-2.411-1.599-3.859-1.601zM26.16 21.54c-0.001 1.225-0.489 2.399-1.355 3.265s-2.040 1.353-3.265 1.355h-10.080c-1.225-0.001-2.399-0.489-3.265-1.355s-1.353-2.040-1.355-3.265v-10.080c0.001-1.225 0.489-2.399 1.355-3.265s2.040-1.353 3.265-1.355h10.080c1.225 0.001 2.399 0.489 3.265 1.355s1.353 2.040 1.355 3.265v10.080zM22.8 11.040c0 0.166-0.049 0.329-0.142 0.467s-0.224 0.246-0.377 0.309c-0.154 0.063-0.322 0.080-0.485 0.048s-0.313-0.113-0.43-0.23c-0.117-0.117-0.197-0.267-0.23-0.43s-0.016-0.332 0.048-0.485c0.064-0.153 0.171-0.285 0.309-0.377s0.301-0.142 0.467-0.142c0.223 0 0.436 0.088 0.594 0.246s0.246 0.371 0.246 0.594z"></path>
    </symbol>
    <symbol id="icon-less" viewBox="0 0 32 32">
      <path d="M16 29.243c-2.62 0.001-5.181-0.776-7.36-2.231s-3.877-3.524-4.88-5.944c-1.003-2.42-1.265-5.084-0.754-7.653s1.773-4.93 3.625-6.782c1.853-1.853 4.213-3.114 6.782-3.625s5.233-0.248 7.653 0.754c2.42 1.003 4.489 2.701 5.944 4.88s2.232 4.74 2.231 7.36c-0.004 3.511-1.401 6.877-3.883 9.359s-5.848 3.879-9.359 3.883zM16 4.087c-2.356-0.001-4.659 0.698-6.619 2.006s-3.486 3.169-4.388 5.345c-0.902 2.177-1.138 4.572-0.679 6.882s1.593 4.434 3.259 6.1c1.666 1.666 3.788 2.801 6.099 3.261s4.706 0.224 6.883-0.677c2.177-0.901 4.037-2.428 5.347-4.387s2.008-4.262 2.008-6.618c-0.003-3.158-1.259-6.186-3.491-8.419s-5.26-3.49-8.418-3.494z"></path>
      <path d="M20 15.334c0.177 0 0.346 0.070 0.471 0.195s0.195 0.295 0.195 0.471-0.070 0.346-0.195 0.471c-0.125 0.125-0.295 0.195-0.471 0.195h-8c-0.177 0-0.346-0.070-0.471-0.195s-0.195-0.295-0.195-0.471 0.070-0.346 0.195-0.471c0.125-0.125 0.295-0.195 0.471-0.195h8z"></path>
    </symbol>
    <symbol id="icon-location" viewBox="0 0 32 32">
      <path fill="none" stroke-linejoin="round" stroke-linecap="round" stroke-miterlimit="4" stroke-width="0.6667" d="M16 3c-2.62 0-5.133 1.041-6.986 2.894s-2.894 4.366-2.894 6.986v0.72c0.4 5.413 4.893 9.767 9.88 15.4 5.207-5.88 9.88-10.333 9.88-16.12 0-2.62-1.041-5.133-2.894-6.986s-4.366-2.894-6.986-2.894zM16 8.133c0.94 0 1.86 0.279 2.642 0.802s1.391 1.265 1.751 2.134c0.36 0.869 0.453 1.825 0.269 2.747s-0.637 1.769-1.303 2.434c-0.665 0.665-1.513 1.117-2.436 1.299s-1.878 0.087-2.747-0.273c-0.869-0.361-1.61-0.971-2.132-1.754s-0.799-1.702-0.798-2.643c0.002-1.26 0.503-2.467 1.395-3.357s2.099-1.39 3.359-1.39z"></path>
    </symbol>
    <symbol id="icon-mail" viewBox="0 0 32 32">
      <path fill="none" stroke-linejoin="round" stroke-linecap="round" stroke-miterlimit="4" stroke-width="0.6667" d="M25.667 5.667h-19.333c-1.473 0-2.667 1.194-2.667 2.667v15.333c0 1.473 1.194 2.667 2.667 2.667h19.333c1.473 0 2.667-1.194 2.667-2.667v-15.333c0-1.473-1.194-2.667-2.667-2.667z"></path>
      <path fill="none" stroke="#c41212" style="stroke: var(--color2, #c41212)" stroke-linejoin="round" stroke-linecap="round" stroke-miterlimit="4" stroke-width="0.6667" d="M25.823 9.149l-9.823 7.232-9.823-7.232"></path>
    </symbol>
    <symbol id="icon-menu" viewBox="0 0 32 32">
      <path stroke-linejoin="miter" stroke-linecap="square" stroke-miterlimit="4" stroke-width="1.3333" d="M4.667 10h22.667M4.667 16h18.667M4.667 22h22.667"></path>
    </symbol>
    <symbol id="icon-more" viewBox="0 0 32 32">
      <path d="M20 16.667h-3.333v3.333c0 0.177-0.070 0.346-0.195 0.471s-0.295 0.195-0.471 0.195-0.346-0.070-0.471-0.195c-0.125-0.125-0.195-0.295-0.195-0.471v-3.333h-3.333c-0.177 0-0.346-0.070-0.471-0.195s-0.195-0.295-0.195-0.471 0.070-0.346 0.195-0.471c0.125-0.125 0.295-0.195 0.471-0.195h3.333v-3.333c0-0.177 0.070-0.346 0.195-0.471s0.295-0.195 0.471-0.195 0.346 0.070 0.471 0.195c0.125 0.125 0.195 0.295 0.195 0.471v3.333h3.333c0.177 0 0.346 0.070 0.471 0.195s0.195 0.295 0.195 0.471-0.070 0.346-0.195 0.471c-0.125 0.125-0.295 0.195-0.471 0.195z"></path>
      <path d="M16 29.243c-2.62 0.001-5.181-0.776-7.36-2.231s-3.877-3.524-4.88-5.944c-1.003-2.42-1.265-5.084-0.754-7.653s1.773-4.93 3.625-6.782c1.853-1.853 4.213-3.114 6.782-3.625s5.233-0.248 7.653 0.754c2.42 1.003 4.489 2.701 5.944 4.88s2.232 4.74 2.231 7.36c-0.004 3.511-1.401 6.877-3.883 9.359s-5.848 3.879-9.359 3.883zM16 4.087c-2.356-0.001-4.659 0.698-6.619 2.006s-3.486 3.169-4.388 5.345c-0.902 2.177-1.138 4.572-0.679 6.882s1.593 4.434 3.259 6.1c1.666 1.666 3.788 2.801 6.099 3.261s4.706 0.224 6.883-0.677c2.177-0.901 4.037-2.428 5.347-4.387s2.008-4.262 2.008-6.618c-0.003-3.158-1.259-6.186-3.491-8.419s-5.26-3.49-8.418-3.494z"></path>
    </symbol>
    <symbol id="icon-phone" viewBox="0 0 32 32">
      <path fill="none" stroke-linejoin="round" stroke-linecap="round" stroke-miterlimit="4" stroke-width="0.6667" d="M12.872 8.311c-0.286-0.954-0.483-1.932-0.587-2.923-0.105-0.987-0.967-1.722-1.959-1.722h-4.605c-1.185 0-2.097 1.023-1.993 2.203 1.050 11.886 10.518 21.353 22.404 22.404 1.18 0.104 2.203-0.805 2.203-1.989v-4.107c0-1.499-0.735-2.357-1.722-2.462-0.99-0.104-1.969-0.301-2.923-0.587-0.566-0.168-1.166-0.18-1.738-0.034s-1.093 0.444-1.509 0.862l-1.971 1.971c-3.555-1.926-6.473-4.844-8.399-8.399l1.971-1.971c0.419-0.416 0.717-0.937 0.863-1.509s0.134-1.172-0.034-1.738z"></path>
    </symbol>
    <symbol id="icon-telegram" viewBox="0 0 32 32">
      <path fill="none" stroke-linejoin="round" stroke-linecap="round" stroke-miterlimit="4" stroke-width="0.6667" d="M25.846 7c0.735 0 1.289 0.644 0.992 1.843l-3.596 16.948c-0.251 1.205-0.98 1.495-1.985 0.934l-8.577-6.334c-0.033-0.024-0.060-0.055-0.079-0.092s-0.028-0.077-0.028-0.118c0-0.041 0.010-0.081 0.028-0.118s0.046-0.068 0.079-0.092l9.904-8.944c0.451-0.399-0.097-0.593-0.689-0.232l-12.431 7.842c-0.038 0.025-0.081 0.040-0.125 0.046s-0.090 0.001-0.133-0.014l-5.278-1.669c-1.173-0.341-1.173-1.147 0.264-1.72l21.117-8.145c0.168-0.080 0.349-0.126 0.535-0.135z"></path>
    </symbol>
    <symbol id="icon-tikTok" viewBox="0 0 32 32">
      <path fill="none" stroke-linejoin="round" stroke-linecap="round" stroke-miterlimit="10" stroke-width="0.5" d="M25.6 9.733c-2.533-0.533-4.4-2.667-4.533-5.2v-0.4h-4.133v16.667c0 2-1.6 3.467-3.467 3.467-1.067 0-2.133-0.533-2.8-1.333-1.333-1.6-1.067-3.867 0.533-5.067 0.8-0.533 1.467-0.533 2.4-0.533v-4.267c-4.267-0.533-7.333 2.4-8 6.533-0.267 2.4 0.4 4.667 2.133 6.4 2.933 3.067 7.867 3.067 10.933 0.133 1.467-1.467 2.267-3.467 2.267-5.467v-8.4c1.733 1.2 3.733 1.867 5.867 1.867v-4.267c-0.4 0-0.8 0-1.2-0.133z"></path>
    </symbol>
    <symbol id="icon-up" viewBox="0 0 32 32">
      <path stroke-linejoin="round" stroke-linecap="round" stroke-miterlimit="4" stroke-width="2" d="M22.667 20l-6.667-6.667-6.667 6.667"></path>
    </symbol>
    <symbol id="icon-user" viewBox="0 0 32 32">
      <path fill="none" stroke-linejoin="miter" stroke-linecap="square" stroke-miterlimit="4" stroke-width="1.3333" d="M26.303 24.929c-0.607-1.701-1.947-3.204-3.809-4.276s-4.145-1.653-6.493-1.653-4.631 0.581-6.493 1.653c-1.863 1.072-3.203 2.575-3.809 4.276"></path>
      <path fill="none" stroke-linejoin="miter" stroke-linecap="round" stroke-miterlimit="4" stroke-width="1.3333" d="M16 16c2.945 0 5.333-2.388 5.333-5.333s-2.388-5.333-5.333-5.333-5.333 2.388-5.333 5.333c0 2.946 2.388 5.333 5.333 5.333z"></path>
    </symbol>
    <symbol id="icon-viber" viewBox="0 0 32 32">
      <path fill="none" stroke-linejoin="miter" stroke-linecap="round" stroke-miterlimit="4" stroke-width="0.5" d="M16.338 9.295c1.762 0.012 3.272 0.605 4.467 1.765 1.203 1.168 1.81 2.78 1.824 4.764M16.87 10.87l0.002-0.001h0.024c1.278 0.093 2.32 0.536 3.063 1.346 0.736 0.801 1.097 1.819 1.072 2.994M17.335 12.5l0.004-0.001h0.018c0.63 0.033 1.158 0.229 1.526 0.607 0.367 0.379 0.552 0.913 0.582 1.557M15.898 5c-1.935 0.028-6.093 0.344-8.416 2.467-1.725 1.72-2.334 4.233-2.397 7.35s-0.146 8.959 5.51 10.543h0.003l-0.004 2.416c0 0-0.037 0.977 0.613 1.177 0.78 0.242 1.239-0.5 1.988-1.302 0.409-0.44 0.976-1.084 1.403-1.58 3.866 0.326 6.841-0.416 7.18-0.525 0.779-0.252 5.198-0.816 5.917-6.657 0.743-6.020-0.362-9.83-2.35-11.546-0.599-0.55-3.019-2.3-8.41-2.323 0 0-0.397-0.025-1.041-0.017l0.004-0.003zM12.361 9.99c-0.213-0.030-0.431 0.012-0.619 0.117l-0.010 0.002c-0.432 0.247-0.819 0.562-1.151 0.932l-0.008 0.008c-0.268 0.323-0.422 0.639-0.462 0.948-0.008 0.046-0.010 0.093-0.007 0.14 0 0.137 0.022 0.27 0.065 0.4l0.013 0.010c0.136 0.48 0.475 1.276 1.21 2.604 0.422 0.768 0.907 1.5 1.452 2.186 0.271 0.345 0.562 0.673 0.874 0.984l0.133 0.132c0.312 0.309 0.641 0.599 0.988 0.87 0.69 0.543 1.424 1.027 2.195 1.447 1.334 0.733 2.135 1.070 2.615 1.206l0.010 0.014c0.175 0.056 0.36 0.075 0.542 0.055 0.312-0.037 0.629-0.19 0.952-0.46 0.004 0 0.003-0.002 0.008-0.005 0.372-0.33 0.686-0.72 0.934-1.148l0.003-0.010c0.226-0.432 0.151-0.842-0.181-1.12-0.004 0-0.701-0.58-1.041-0.83-0.362-0.255-0.734-0.492-1.118-0.71-0.512-0.285-1.036-0.106-1.253 0.174l-0.449 0.564c-0.231 0.283-0.66 0.246-0.66 0.246-3.133-0.796-3.972-3.955-3.972-3.955s-0.037-0.426 0.249-0.656l0.565-0.448c0.278-0.215 0.458-0.737 0.171-1.248-0.219-0.383-0.457-0.756-0.713-1.115-0.27-0.351-0.547-0.697-0.834-1.035-0.126-0.157-0.305-0.263-0.504-0.297l0.001-0.002z"></path>
    </symbol>
    <symbol id="icon-whatsApp" viewBox="0 0 32 32">
      <path fill="none" stroke-linejoin="miter" stroke-linecap="butt" stroke-miterlimit="4" stroke-width="0.5" d="M6.888 22.11l0.027-0.101-0.053-0.090c-1.018-1.74-1.612-3.758-1.612-5.919 0-6.489 5.261-11.75 11.75-11.75s11.75 5.261 11.75 11.75c0 6.489-5.261 11.75-11.75 11.75-2.089 0-4.047-0.552-5.748-1.508l-0.084-0.047-5.717 1.275 1.436-5.36zM5.849 26.794l-0.106 0.398 5.459-1.214c1.709 1.006 3.673 1.566 5.799 1.566 6.351 0 11.544-5.193 11.544-11.544s-5.193-11.544-11.544-11.544-11.544 5.193-11.544 11.544c0 2.201 0.607 4.237 1.679 5.985l-1.286 4.809zM12.161 16.195v0l-0.002-0.003c-0.075-0.098-0.387-0.513-0.68-1.091-0.295-0.582-0.559-1.307-0.559-2.028 0-1.354 0.651-2.055 0.973-2.402 0.024-0.026 0.047-0.050 0.067-0.072 0.236-0.257 0.507-0.314 0.663-0.314h0.010c0.206 0 0.408 0 0.582 0.009v0l0.007 0c0.114 0.003 0.174 0.009 0.234 0.044s0.152 0.119 0.258 0.355h0c0.139 0.307 0.361 0.85 0.56 1.341 0.033 0.081 0.065 0.16 0.096 0.237 0.155 0.382 0.286 0.704 0.323 0.78 0.065 0.131 0.081 0.225 0.027 0.326l-0-0-0.003 0.007c-0.011 0.023-0.022 0.045-0.032 0.066-0.085 0.174-0.132 0.271-0.248 0.414-0.063 0.073-0.122 0.145-0.178 0.213-0.101 0.123-0.193 0.235-0.279 0.317l-0-0-0.004 0.004-0.005 0.005c-0.074 0.074-0.192 0.192-0.251 0.351-0.068 0.186-0.045 0.386 0.077 0.596 0.188 0.324 0.838 1.387 1.809 2.252 1.046 0.934 1.969 1.332 2.409 1.522 0.083 0.036 0.148 0.064 0.195 0.087 0.174 0.087 0.353 0.146 0.534 0.125 0.191-0.023 0.334-0.128 0.449-0.262 0.193-0.213 0.802-0.934 1.025-1.266v0l0.002-0.003c0.076-0.117 0.123-0.124 0.143-0.126 0.048-0.006 0.119 0.011 0.271 0.066l0.001 0c0.13 0.047 0.576 0.256 1.049 0.485 0.465 0.224 0.932 0.456 1.090 0.535 0.071 0.036 0.133 0.065 0.187 0.091 0.077 0.037 0.14 0.067 0.197 0.099 0.074 0.040 0.104 0.065 0.115 0.077 0.002 0.009 0.008 0.035 0.012 0.084 0.006 0.073 0.006 0.174-0.005 0.298-0.021 0.247-0.082 0.569-0.206 0.918-0.103 0.288-0.432 0.613-0.85 0.883-0.415 0.268-0.842 0.434-1.073 0.454l-0.002 0c-0.062 0.006-0.121 0.013-0.18 0.020-0.238 0.028-0.476 0.056-0.883 0.002-0.515-0.069-1.297-0.271-2.625-0.794-2.896-1.14-4.809-3.972-5.23-4.593-0.036-0.052-0.060-0.089-0.074-0.108z"></path>
    </symbol>
    <symbol id="icon-youtube" viewBox="0 0 32 32">
      <path fill="none" stroke="#fff" style="stroke: var(--color1, #fff)" stroke-linejoin="round" stroke-linecap="round" stroke-miterlimit="4" stroke-width="0.6667" d="M28.741 9.596c-0.151-0.565-0.449-1.080-0.862-1.493s-0.928-0.711-1.493-0.862c-1.543-0.596-16.488-0.888-20.824 0.017-0.565 0.152-1.080 0.449-1.493 0.863s-0.711 0.929-0.862 1.493c-0.697 3.055-0.749 9.661 0.017 12.785 0.152 0.565 0.449 1.079 0.862 1.493s0.928 0.711 1.493 0.862c3.055 0.703 17.581 0.802 20.824 0 0.565-0.151 1.080-0.449 1.493-0.862s0.711-0.928 0.862-1.493c0.743-3.329 0.795-9.525-0.017-12.802z"></path>
      <path fill="none" stroke="#fff" style="stroke: var(--color1, #fff)" stroke-linejoin="round" stroke-linecap="round" stroke-miterlimit="4" stroke-width="0.6667" d="M20.378 15.997l-6.965-3.994v7.988l6.965-3.994z"></path>
    </symbol>
    <symbol id="icon-cross" viewBox="0 0 32 32">
      <path stroke-linejoin="miter" stroke-linecap="butt" stroke-miterlimit="4" stroke-width="1.3333" d="M8 8l16 16M24 8l-16 16"></path>
    </symbol>
    <symbol id="icon-flat-color-icons_google" viewBox="0 0 33 32">
      <path fill="#ffc107" style="fill: var(--color1, #ffc107)" d="M29.574 13.389h-1.074v-0.055h-12v5.333h7.535c-1.099 3.105-4.053 5.333-7.535 5.333-4.418 0-8-3.582-8-8s3.582-8 8-8c2.039 0 3.895 0.769 5.307 2.026l3.771-3.771c-2.381-2.219-5.567-3.588-9.079-3.588-7.363 0-13.333 5.97-13.333 13.333s5.97 13.333 13.333 13.333c7.363 0 13.333-5.97 13.333-13.333 0-0.894-0.092-1.767-0.259-2.611z"></path>
      <path fill="#ff3d00" style="fill: var(--color2, #ff3d00)" d="M4.704 9.794l4.381 3.213c1.185-2.935 4.056-5.007 7.415-5.007 2.039 0 3.895 0.769 5.307 2.026l3.771-3.771c-2.381-2.219-5.567-3.588-9.079-3.588-5.121 0-9.563 2.891-11.796 7.127z"></path>
      <path fill="#4caf50" style="fill: var(--color3, #4caf50)" d="M16.5 29.333c3.444 0 6.573-1.318 8.939-3.461l-4.127-3.492c-1.383 1.053-3.074 1.622-4.813 1.62-3.468 0-6.413-2.211-7.522-5.297l-4.348 3.35c2.207 4.318 6.688 7.281 11.87 7.281z"></path>
      <path fill="#1976d2" style="fill: var(--color4, #1976d2)" d="M29.574 13.389h-1.074v-0.055h-12v5.333h7.535c-0.526 1.478-1.473 2.769-2.725 3.714l0.002-0.001 4.127 3.492c-0.292 0.265 4.394-3.205 4.394-9.871 0-0.894-0.092-1.767-0.259-2.611z"></path>
    </symbol>
    <symbol id="eye-open" viewBox="0 0 32 32">
      <path d="M30.457 15.797c-0.043-0.095-1.065-2.361-3.354-4.65-2.12-2.12-5.766-4.647-11.104-4.647s-8.984 2.528-11.104 4.647c-2.289 2.289-3.311 4.555-3.354 4.65-0.028 0.064-0.042 0.133-0.042 0.203s0.014 0.139 0.042 0.203c0.042 0.096 1.065 2.361 3.354 4.65 2.125 2.125 5.768 4.646 11.104 4.646s8.984-2.526 11.104-4.646c2.289-2.289 3.311-4.554 3.354-4.65 0.028-0.064 0.042-0.133 0.042-0.203s-0.014-0.139-0.042-0.203zM26.37 20.172c-2.884 2.875-6.375 4.328-10.375 4.328s-7.486-1.456-10.375-4.328c-1.229-1.226-2.263-2.633-3.065-4.172 0.804-1.54 1.839-2.947 3.070-4.172 2.889-2.871 6.375-4.327 10.375-4.327s7.486 1.456 10.375 4.327c1.231 1.226 2.266 2.633 3.070 4.172-0.804 1.54-1.839 2.947-3.070 4.172h-0.005zM16 10.5c-1.088 0-2.151 0.323-3.056 0.927s-1.609 1.463-2.026 2.468-0.525 2.111-0.313 3.178c0.212 1.067 0.736 2.047 1.505 2.816s1.749 1.293 2.816 1.505 2.173 0.103 3.178-0.313c1.005-0.416 1.864-1.121 2.468-2.026s0.927-1.968 0.927-3.056c-0.002-1.458-0.582-2.856-1.613-3.887s-2.429-1.611-3.887-1.613zM16 20.5c-0.89 0-1.76-0.264-2.5-0.758s-1.317-1.197-1.657-2.020c-0.341-0.822-0.43-1.727-0.256-2.6s0.602-1.675 1.232-2.304c0.629-0.629 1.431-1.058 2.304-1.232s1.778-0.085 2.6 0.256 1.525 0.917 2.020 1.657c0.494 0.74 0.758 1.61 0.758 2.5 0 1.193-0.474 2.338-1.318 3.182s-1.988 1.318-3.182 1.318z"></path>
    </symbol>
    <symbol id="eye-closed" viewBox="0 0 32 32">
      <path d="M6.375 4.664c-0.089-0.099-0.214-0.159-0.348-0.167s-0.264 0.039-0.364 0.128c-0.099 0.089-0.159 0.214-0.167 0.348s0.039 0.264 0.128 0.364l2.824 3.101c-4.781 2.688-6.824 7.164-6.906 7.36-0.028 0.064-0.042 0.133-0.042 0.203s0.014 0.139 0.042 0.203c0.042 0.096 1.065 2.361 3.354 4.65 2.125 2.125 5.768 4.646 11.104 4.646 2.292 0.015 4.559-0.484 6.633-1.461l3 3.297c0.044 0.049 0.097 0.090 0.157 0.119s0.124 0.045 0.19 0.049c0.066 0.004 0.132-0.006 0.195-0.028s0.12-0.056 0.169-0.101c0.049-0.044 0.089-0.098 0.117-0.158s0.044-0.125 0.047-0.191c0.003-0.066-0.008-0.132-0.030-0.194s-0.058-0.119-0.103-0.167l-19.997-22zM18.637 19.645c-0.897 0.644-2 0.936-3.098 0.82s-2.116-0.632-2.858-1.449c-0.743-0.817-1.159-1.879-1.169-2.984s0.386-2.174 1.113-3.005l6.012 6.618zM16 24.5c-4 0-7.486-1.456-10.375-4.328-1.231-1.226-2.266-2.633-3.070-4.172 0.456-0.904 2.511-4.601 6.585-6.804l2.806 3.087c-0.931 1.011-1.45 2.335-1.454 3.71s0.507 2.701 1.432 3.718c0.925 1.017 2.198 1.65 3.567 1.775s2.735-0.267 3.83-1.099l2.611 2.875c-1.867 0.83-3.889 1.252-5.933 1.238zM16.847 11.58c-0.13-0.025-0.245-0.101-0.319-0.21s-0.102-0.244-0.078-0.374c0.025-0.13 0.1-0.245 0.209-0.32s0.244-0.103 0.374-0.079c1.168 0.227 2.232 0.825 3.033 1.705s1.295 1.996 1.41 3.181c0.012 0.132-0.029 0.263-0.113 0.365s-0.206 0.166-0.338 0.178h-0.047c-0.125 0-0.246-0.046-0.338-0.13s-0.15-0.2-0.162-0.324c-0.094-0.968-0.498-1.88-1.152-2.599s-1.523-1.209-2.478-1.394zM30.457 16.205c-0.051 0.114-1.275 2.822-4.047 5.306-0.092 0.081-0.211 0.126-0.334 0.125-0.102 0.001-0.201-0.030-0.285-0.087s-0.148-0.139-0.185-0.235c-0.036-0.095-0.043-0.199-0.018-0.298s0.078-0.188 0.155-0.255c1.507-1.355 2.761-2.967 3.703-4.761-0.804-1.54-1.84-2.947-3.070-4.173-2.889-2.871-6.375-4.327-10.375-4.327-0.838-0.001-1.674 0.067-2.5 0.204-0.13 0.021-0.263-0.011-0.37-0.088s-0.179-0.193-0.201-0.323c-0.022-0.13 0.009-0.263 0.085-0.371s0.191-0.181 0.321-0.204c0.881-0.146 1.772-0.219 2.665-0.218 5.338 0 8.984 2.527 11.104 4.647 2.289 2.289 3.311 4.555 3.354 4.65 0.028 0.064 0.042 0.133 0.042 0.203s-0.014 0.139-0.042 0.203v0.001z"></path>
    </symbol>
    <symbol id="download-file" viewBox="0 0 32 32">
      <path stroke-linejoin="round" stroke-linecap="square" stroke-miterlimit="4" stroke-width="1.3333" d="M9.333 16l6.667 7M16 23l6.667-7M16 23v-18.2M8 27.2h16"></path>
    </symbol>
    <symbol id="exit-icon" viewBox="0 0 32 32">
      <path stroke-linejoin="round" stroke-linecap="round" stroke-miterlimit="4" stroke-width="1.0720" d="M29.638 16.2h-13.020M25.129 22.108l5.671-5.908-5.671-5.909M20.164 8.075v-4.875h-15.364v26h15.364v-4.875"></path>
    </symbol>
    <symbol id="file-icon" viewBox="0 0 32 32">
      <path stroke-linejoin="round" stroke-linecap="round" stroke-miterlimit="4" stroke-width="1.0667" d="M26.333 10.333h-6c-0.354 0-1.333 0-1.333 0s0-0.98 0-1.333v-6M26.333 10.333v17.333c0 0.354 0 1.333 0 1.333s-0.98 0-1.333 0h-18c-0.354 0-1.333 0-1.333 0s0-0.98 0-1.333v-23.333c0-0.354 0-1.333 0-1.333s0.98 0 1.333 0h12M26.333 10.333l-7.333-7.333"></path>
    </symbol>
    <symbol id="order-icon" viewBox="0 0 32 32">
      <path stroke-linejoin="round" stroke-linecap="round" stroke-miterlimit="4" stroke-width="1.0667" d="M26.333 10.333v-7.333h-19.333c-0.354 0-1.333 0-1.333 0s0 0.98 0 1.333v23.333c0 0.354 0 1.333 0 1.333s0.98 0 1.333 0h18c0.354 0 1.333 0 1.333 0s0-0.98 0-1.333v-17.333z"></path>
      <path d="M13.2 8.6c0-0.080 0.032-0.156 0.088-0.212s0.133-0.088 0.212-0.088h9.6c0.080 0 0.156 0.032 0.212 0.088s0.088 0.133 0.088 0.212-0.032 0.156-0.088 0.212c-0.056 0.056-0.133 0.088-0.212 0.088h-9.6c-0.080 0-0.156-0.032-0.212-0.088s-0.088-0.133-0.088-0.212zM23.1 13.1h-9.6c-0.080 0-0.156 0.032-0.212 0.088s-0.088 0.133-0.088 0.212c0 0.080 0.032 0.156 0.088 0.212s0.133 0.088 0.212 0.088h9.6c0.080 0 0.156-0.032 0.212-0.088s0.088-0.133 0.088-0.212-0.032-0.156-0.088-0.212c-0.056-0.056-0.133-0.088-0.212-0.088zM23.1 17.9h-9.6c-0.080 0-0.156 0.032-0.212 0.088s-0.088 0.133-0.088 0.212 0.032 0.156 0.088 0.212c0.056 0.056 0.133 0.088 0.212 0.088h9.6c0.080 0 0.156-0.032 0.212-0.088s0.088-0.133 0.088-0.212-0.032-0.156-0.088-0.212c-0.056-0.056-0.133-0.088-0.212-0.088zM10.2 12.8c-0.119 0-0.235 0.035-0.333 0.101s-0.176 0.16-0.221 0.269c-0.045 0.11-0.057 0.23-0.034 0.347s0.080 0.223 0.164 0.307c0.084 0.084 0.191 0.141 0.307 0.164s0.237 0.011 0.347-0.034c0.11-0.045 0.203-0.122 0.269-0.221s0.101-0.215 0.101-0.333c0-0.159-0.063-0.312-0.176-0.424s-0.265-0.176-0.424-0.176zM10.2 8c-0.119 0-0.235 0.035-0.333 0.101s-0.176 0.16-0.221 0.269c-0.045 0.11-0.057 0.23-0.034 0.347s0.080 0.223 0.164 0.307c0.084 0.084 0.191 0.141 0.307 0.164s0.237 0.011 0.347-0.034c0.11-0.045 0.203-0.122 0.269-0.221s0.101-0.215 0.101-0.333c0-0.159-0.063-0.312-0.176-0.424s-0.265-0.176-0.424-0.176zM10.2 17.6c-0.119 0-0.235 0.035-0.333 0.101s-0.176 0.16-0.221 0.269c-0.045 0.11-0.057 0.23-0.034 0.347s0.080 0.223 0.164 0.307c0.084 0.084 0.191 0.141 0.307 0.164s0.237 0.011 0.347-0.034c0.11-0.045 0.203-0.122 0.269-0.221s0.101-0.215 0.101-0.333c0-0.159-0.063-0.312-0.176-0.424s-0.265-0.176-0.424-0.176z"></path>
      <path d="M13.2 23c0-0.080 0.032-0.156 0.088-0.212s0.133-0.088 0.212-0.088h9.6c0.080 0 0.156 0.032 0.212 0.088s0.088 0.133 0.088 0.212-0.032 0.156-0.088 0.212c-0.056 0.056-0.133 0.088-0.212 0.088h-9.6c-0.080 0-0.156-0.032-0.212-0.088s-0.088-0.133-0.088-0.212zM10.2 22.4c-0.119 0-0.235 0.035-0.333 0.101s-0.176 0.16-0.221 0.269c-0.045 0.11-0.057 0.23-0.034 0.347s0.080 0.223 0.164 0.307c0.084 0.084 0.191 0.141 0.307 0.164s0.237 0.011 0.347-0.034c0.11-0.045 0.203-0.122 0.269-0.221s0.101-0.215 0.101-0.333c0-0.159-0.063-0.312-0.176-0.424s-0.265-0.176-0.424-0.176z"></path>
    </symbol>
    <symbol id="profile-icon" viewBox="0 0 32 32">
      <path stroke-linejoin="miter" stroke-linecap="square" stroke-miterlimit="4" stroke-width="1.0720" d="M26.303 24.929c-0.607-1.701-1.947-3.204-3.809-4.276s-4.145-1.653-6.493-1.653c-2.348 0-4.631 0.581-6.493 1.653s-3.203 2.575-3.809 4.276"></path>
      <path stroke-linejoin="miter" stroke-linecap="round" stroke-miterlimit="4" stroke-width="1.0720" d="M16 16c2.946 0 5.333-2.388 5.333-5.333s-2.388-5.333-5.333-5.333c-2.946 0-5.333 2.388-5.333 5.333s2.388 5.333 5.333 5.333z"></path>
    </symbol>
    <symbol id="upload-icon" viewBox="0 0 32 32">
      <path stroke-linejoin="round" stroke-linecap="square" stroke-miterlimit="4" stroke-width="1.3333" d="M9.333 11.8l6.667-7M16 4.8l6.667 7M16 4.8v18.2M8 27.2h16"></path>
    </symbol>
    <symbol id="arrow-down-icon" viewBox="0 0 32 32">
      <path stroke-linejoin="round" stroke-linecap="square" stroke-miterlimit="4" stroke-width="1.6" d="M7.2 12l11.2 11.2 11.2-11.2"></path>
    </symbol>
    <symbol id="lets-icons_back-light" viewBox="0 0 32 32">
      <path d="M5.333 13.333l-0.472 0.472-0.471-0.472 0.471-0.472 0.472 0.472zM11.528 20.472l-6.667-6.667 0.944-0.944 6.667 6.667-0.944 0.944zM4.861 12.861l6.667-6.667 0.944 0.944-6.667 6.667-0.944-0.944zM5.333 12.666h13.333v1.333h-13.333v-1.333zM27.333 21.333v2.667h-1.333v-2.667h1.333zM18.667 12.666c2.299 0 4.503 0.913 6.128 2.538s2.538 3.83 2.538 6.128h-1.333c0-1.945-0.773-3.81-2.148-5.185s-3.241-2.148-5.186-2.148v-1.333z"></path>
    </symbol>
    <symbol id="delete-icon" viewBox="0 0 29 32">
      <path d="M2.909 31.515v-27.151h-1.939v-1.939h7.758v-1.493h11.636v1.493h7.758v1.939h-1.939v27.151h-23.273zM4.848 29.576h19.394v-25.212h-19.394v25.212zM10.294 25.697h1.939v-17.455h-1.939v17.455zM16.857 25.697h1.939v-17.455h-1.939v17.455z"></path>
    </symbol>
    <symbol id="circum_edit" viewBox="0 0 32 32">
      <path d="M4.668 27.917h23.269v-1.333h-23.269c0 0 0 0.555 0 0.661s0 0.673 0 0.673zM12.884 22.907c0.563-0.158 1.077-0.456 1.493-0.867l12.72-12.72c0.436-0.437 1.573-1.64 1.573-1.64s-1.137-1.216-1.573-1.653c-0.436-0.437-0.809-0.817-1.253-1.24s-1.64-1.522-1.64-1.522-1.209 1.099-1.653 1.522l-12.72 12.707c-0.41 0.415-0.704 0.929-0.853 1.493l-0.54 2.513c-0.5 2.5 0 0-0.5 2.5 2.5-0.5 0 0 2.5-0.5l2.447-0.593zM13.431 21.093c-0.246 0.25-0.554 0.43-0.893 0.52l-1.293 0.347-1.333-1.333 0.347-1.293c0.092-0.338 0.271-0.646 0.52-0.893l0.507-0.493 2.653 2.653-0.507 0.493zM14.884 19.653l-2.653-2.653 8.973-8.973 2.653 2.653-8.973 8.973zM26.151 8.386l-1.347 1.347-2.653-2.653 1.347-1.36c0.188-0.187 0.442-0.292 0.707-0.292s0.519 0.105 0.707 0.292l1.24 1.253c0.186 0.188 0.29 0.442 0.29 0.707s-0.104 0.518-0.29 0.707z"></path>
    </symbol>
    <symbol id="file_download" viewBox="0 0 32 32">
      <path d="M16 4.334v16.333l7-7 1 0.88-8.667 8.667-8.667-8.667 1-0.88 7 7v-16.333h1.333zM4 24.334h1.333v2.667h20v-2.667h1.333v4h-22.667v-4z"></path>
    </symbol>
    <symbol id="icon-calendar" viewBox="0 0 32 32">
<path d="M24.584 6.606h-2.584v-1.877c0-0.349-0.307-0.683-0.667-0.667-0.176 0.003-0.343 0.075-0.468 0.199s-0.196 0.292-0.199 0.468v1.877h-9.333v-1.877c0-0.349-0.307-0.683-0.667-0.667-0.176 0.003-0.343 0.075-0.468 0.199s-0.196 0.292-0.199 0.468v1.877h-2.584c-0.884 0.001-1.731 0.353-2.356 0.978s-0.976 1.472-0.977 2.356v14.667c0 1.839 1.496 3.333 3.333 3.333h17.167c1.839 0 3.333-1.495 3.333-3.333v-14.667c0-0.884-0.351-1.731-0.976-2.357s-1.472-0.976-2.356-0.977zM7.416 7.939h2.584v0.789c0 0.349 0.307 0.683 0.667 0.667 0.361-0.016 0.667-0.293 0.667-0.667v-0.789h9.333v0.789c0 0.349 0.307 0.683 0.667 0.667 0.361-0.016 0.667-0.293 0.667-0.667v-0.789h2.583c1.103 0 2 0.897 2 2v2.112h-21.167v-2.112c0-1.103 0.897-2 2-2zM24.584 26.605h-17.168c-1.103 0-2-0.897-2-2v-11.221h21.167v11.221c0 0.53-0.211 1.039-0.585 1.414s-0.883 0.586-1.413 0.586z"></path>
</symbol>
<symbol id="icon-engine" viewBox="0 0 32 32">
<path d="M30 13.25h-1.689l-4.489-4.488c-0.162-0.163-0.355-0.292-0.567-0.38s-0.44-0.133-0.669-0.132h-5.336v-3.5h3.25c0.199 0 0.39-0.079 0.53-0.22s0.22-0.331 0.22-0.53-0.079-0.39-0.22-0.53c-0.141-0.141-0.332-0.22-0.53-0.22h-8c-0.199 0-0.39 0.079-0.53 0.22s-0.22 0.331-0.22 0.53c0 0.199 0.079 0.39 0.22 0.53s0.331 0.22 0.53 0.22h3.25v3.5h-7.75c-0.464 0-0.909 0.184-1.237 0.513s-0.513 0.773-0.513 1.237v6.75h-3.5v-3.25c0-0.199-0.079-0.39-0.22-0.53s-0.331-0.22-0.53-0.22c-0.199 0-0.39 0.079-0.53 0.22s-0.22 0.331-0.22 0.53v8c0 0.199 0.079 0.39 0.22 0.53s0.331 0.22 0.53 0.22 0.39-0.079 0.53-0.22c0.141-0.141 0.22-0.332 0.22-0.53v-3.25h3.5v2.836c-0.001 0.23 0.044 0.457 0.132 0.669s0.217 0.405 0.38 0.567l4.915 4.915c0.162 0.163 0.355 0.292 0.567 0.38s0.44 0.133 0.669 0.132h9.672c0.23 0 0.457-0.045 0.669-0.132s0.405-0.217 0.567-0.38l4.489-4.487h1.689c0.464 0 0.909-0.184 1.237-0.513s0.513-0.773 0.513-1.237v-6c0-0.464-0.184-0.909-0.513-1.237s-0.773-0.513-1.237-0.513zM30.25 21c0 0.066-0.026 0.13-0.073 0.177s-0.111 0.073-0.177 0.073h-2c-0.199 0-0.389 0.079-0.53 0.22l-4.707 4.708c-0.047 0.047-0.11 0.073-0.176 0.072h-9.672c-0.066 0-0.129-0.026-0.176-0.072l-4.915-4.915c-0.046-0.047-0.073-0.11-0.072-0.176v-11.086c0-0.066 0.026-0.13 0.073-0.177s0.11-0.073 0.177-0.073h14.586c0.066-0 0.129 0.026 0.176 0.072l4.707 4.707c0.141 0.141 0.331 0.22 0.53 0.22h2c0.066 0 0.13 0.026 0.177 0.073s0.073 0.11 0.073 0.177v6z"></path>
</symbol>
<symbol id="icon-update" viewBox="0 0 32 32">
<path d="M15.783 22.416l-4.583-10.416h1.607l4.211 9.612h-0.923l4.241-9.612h1.488l-4.568 10.416h-1.473z"></path>
<path d="M11.354 5.309c0.982-0.5 1.992-0.857 3.032-1.071s2.075-0.29 3.106-0.228c1.031 0.062 2.035 0.252 3.013 0.569s1.903 0.758 2.777 1.321c0.874 0.563 1.667 1.233 2.379 2.010s1.323 1.658 1.833 2.643c0.5 0.982 0.857 1.992 1.071 3.032s0.29 2.075 0.228 3.106-0.252 2.035-0.569 3.013c-0.318 0.977-0.758 1.903-1.321 2.777s-1.233 1.667-2.010 2.379c-0.777 0.712-1.658 1.323-2.643 1.833-1.197 0.61-2.443 1.004-3.738 1.181s-2.574 0.154-3.837-0.070-2.472-0.652-3.626-1.283c-1.154-0.631-2.184-1.439-3.090-2.424l1.103-1.009c0.793 0.868 1.691 1.572 2.694 2.113s2.061 0.914 3.174 1.118c1.113 0.205 2.233 0.226 3.36 0.064s2.22-0.504 3.278-1.026c0.856-0.436 1.624-0.968 2.304-1.595s1.265-1.32 1.756-2.078 0.874-1.572 1.15-2.44c0.276-0.869 0.443-1.747 0.499-2.635s-0.007-1.794-0.188-2.719c-0.182-0.925-0.492-1.81-0.932-2.655-0.436-0.856-0.968-1.624-1.595-2.304s-1.32-1.265-2.078-1.756c-0.758-0.49-1.572-0.874-2.44-1.15s-1.747-0.443-2.635-0.499c-0.888-0.056-1.794 0.007-2.719 0.188s-1.81 0.492-2.655 0.932c-0.898 0.458-1.708 1.028-2.429 1.711s-1.329 1.444-1.822 2.283c-0.493 0.839-0.873 1.738-1.138 2.697s-0.377 1.945-0.334 2.958l3.101-1.58 0.681 1.336-5.346 2.724-2.724-5.346 1.337-0.681 1.458 2.861c0.030-1.094 0.206-2.152 0.526-3.175s0.764-1.976 1.33-2.861c0.566-0.885 1.245-1.695 2.036-2.431s1.672-1.347 2.643-1.833z"></path>
</symbol>
<symbol id="icon-chip" viewBox="0 0 32 32">
<path d="M12.148 10.963h8c0.487 0 0.889 0.402 0.889 0.889v8.296c0 0.487-0.402 0.889-0.889 0.889h-8.296c-0.487 0-0.889-0.402-0.889-0.889v-8.296c0-0.487 0.402-0.889 0.889-0.889h0.296zM20.148 11.555h-8.296c-0.169 0-0.296 0.127-0.296 0.296v8.296c-0.001 0.039 0.006 0.078 0.021 0.115s0.036 0.069 0.064 0.097 0.061 0.049 0.097 0.064c0.036 0.015 0.075 0.022 0.115 0.021h8.296c0.169 0 0.296-0.127 0.296-0.296v-8.296c0-0.169-0.127-0.296-0.296-0.296z"></path>
<path d="M9.5 2.5v5h-0.5c-0.822 0-1.5 0.678-1.5 1.5v0.5h-5v1h5v3h-5v1h5v3h-5v1h5v3h-5v1h5v0.5c0 0.822 0.678 1.5 1.5 1.5h0.5v5h1v-5h3v5h1v-5h3v5h1v-5h3v5h1v-5h0.5c0.822 0 1.5-0.678 1.5-1.5v-0.5h5v-1h-5v-3h5v-1h-5v-3h5v-1h-5v-3h5v-1h-5v-0.5c0-0.822-0.678-1.5-1.5-1.5h-0.5v-5h-1v5h-3v-5h-1v5h-3v-5h-1v5h-3v-5h-1zM9 8.5h14c0.286 0 0.5 0.214 0.5 0.5v14c0 0.286-0.214 0.5-0.5 0.5h-14c-0.066 0.002-0.132-0.010-0.193-0.035s-0.117-0.061-0.164-0.108c-0.047-0.047-0.084-0.103-0.108-0.164s-0.036-0.127-0.035-0.193v-14c0-0.286 0.214-0.5 0.5-0.5z"></path>
</symbol>
<symbol id="icon-fuel" viewBox="0 0 32 32">
<path d="M17.884 30.223h-12.64c-0.335 0.011-0.668-0.046-0.98-0.167s-0.597-0.303-0.838-0.536c-0.24-0.233-0.432-0.512-0.562-0.82s-0.198-0.64-0.198-0.975v-23.404c0.026-0.682 0.321-1.327 0.821-1.791s1.164-0.713 1.846-0.689h12.64c0.327-0.007 0.653 0.052 0.956 0.174s0.579 0.305 0.81 0.537c0.231 0.232 0.413 0.508 0.534 0.812s0.179 0.63 0.171 0.957v23.404c-0.001 0.333-0.068 0.662-0.198 0.969s-0.319 0.584-0.558 0.817c-0.238 0.233-0.52 0.415-0.83 0.538s-0.641 0.181-0.974 0.174zM5.244 3.556c-0.103-0.004-0.206 0.014-0.302 0.050s-0.184 0.092-0.259 0.164c-0.075 0.071-0.134 0.157-0.175 0.251s-0.063 0.196-0.064 0.299v23.404c0 0.205 0.081 0.402 0.226 0.547s0.342 0.226 0.547 0.226h12.667c0.213 0.003 0.419-0.076 0.576-0.219s0.253-0.342 0.269-0.554v-23.404c-0.018-0.211-0.115-0.407-0.272-0.548s-0.361-0.219-0.573-0.216h-12.64z"></path>
<path stroke-linejoin="miter" stroke-linecap="butt" stroke-miterlimit="4" stroke-width="0.8" d="M7.259 6h8.6c0.122 0 0.24 0.048 0.327 0.134s0.134 0.203 0.134 0.325v8.6c0 0.122-0.048 0.24-0.134 0.327s-0.205 0.134-0.327 0.134h-8.6c-0.122-0-0.239-0.048-0.325-0.134s-0.134-0.205-0.134-0.327v-8.6l0.009-0.089c0.018-0.089 0.060-0.171 0.125-0.236s0.147-0.107 0.236-0.125l0.089-0.009z"></path>
<path stroke-linejoin="round" stroke-linecap="round" stroke-miterlimit="4" stroke-width="1.28" d="M20 12c0 0 1.539-0.369 2.4 0 0.812 0.348 1.6 1.6 1.6 1.6v11.2c0 0 1.916 0.899 3.2 0.8 0.985-0.076 2.4-0.8 2.4-0.8v-16l-4-4h-2.4"></path>
<path stroke-linejoin="round" stroke-linecap="butt" stroke-miterlimit="4" stroke-width="1.28" d="M26.4 5.6l-2.4 2.4 3.2 4 2.4-0.8"></path>
</symbol>
<symbol id="icon-shoper" viewBox="0 0 32 32">
<path stroke-linejoin="miter" stroke-linecap="butt" stroke-miterlimit="4" stroke-width="1.33" d="M5.5 13.79l6-11.79M26.5 13.79l-6-11.79M4.75 30l-3.75-16.21h30l-3.75 16.21h-22.5z"></path>
</symbol>
<symbol id="icon-number" viewBox="0 0 32 32">
<path d="M24.585 5.333c0.884 0 1.731 0.352 2.356 0.977s0.976 1.473 0.976 2.357v14.667c0 1.839-1.495 3.333-3.333 3.333h-17.167c-1.837 0-3.333-1.495-3.333-3.333v-14.667c0.001-0.884 0.353-1.731 0.977-2.356s1.472-0.976 2.356-0.977h17.168zM10.001 6.666h-2.584c-1.103 0-2 0.897-2 2v14.667c0 1.103 0.897 2 2 2h17.168c0.53-0 1.039-0.211 1.413-0.586s0.585-0.884 0.585-1.414v-14.667c0-1.103-0.897-2-2-2h-14.583z"></path>
<path stroke-linejoin="round" stroke-linecap="square" stroke-miterlimit="3.86874" stroke-width="1.12" d="M10.057 22.031v-10.259l5.931 10.259v-10.259M18.262 17.812h3.42M19.972 15.429c1.17 0 1.829-0.658 1.829-1.829s-0.658-1.829-1.829-1.829c-1.17 0-1.828 0.658-1.828 1.829s0.658 1.829 1.828 1.829z"></path>
</symbol>
<symbol id="icon-search" viewBox="0 0 32 32">
<path d="M30.516 31.814l-12.144-12.145c-0.97 0.826-2.085 1.466-3.345 1.918s-2.528 0.679-3.801 0.679c-3.106 0-5.734-1.075-7.886-3.225s-3.227-4.778-3.227-7.884c0-3.106 1.074-5.735 3.223-7.888s4.776-3.23 7.882-3.233c3.106-0.003 5.735 1.073 7.889 3.227s3.231 4.783 3.231 7.888c0 1.347-0.239 2.651-0.716 3.912s-1.104 2.339-1.881 3.235l12.144 12.143-1.369 1.373zM11.227 20.325c2.573 0 4.745-0.886 6.516-2.657s2.657-3.944 2.657-6.518c0-2.574-0.886-4.746-2.657-6.516s-3.943-2.656-6.516-2.657c-2.573-0.001-4.746 0.884-6.518 2.657s-2.658 3.945-2.657 6.516c0.001 2.572 0.887 4.744 2.657 6.516s3.942 2.658 6.516 2.657z"></path>
</symbol>
<symbol id="icon-speed" viewBox="0 0 30 32">
<path d="M13.661 20.054c0.394 0.395 0.899 0.574 1.516 0.538s1.068-0.257 1.351-0.665l6.67-9.299-9.347 6.624c-0.425 0.283-0.662 0.722-0.71 1.318s0.125 1.090 0.519 1.484zM15.238 7.112c1.167 0 2.23 0.142 3.187 0.427s1.913 0.717 2.865 1.302l-1.168 0.791c-0.748-0.408-1.521-0.718-2.321-0.931s-1.654-0.319-2.563-0.319c-2.815 0-5.212 0.99-7.191 2.969s-2.968 4.376-2.968 7.19c0 0.889 0.122 1.767 0.366 2.635s0.588 1.682 1.031 2.444h17.524c0.487-0.804 0.841-1.64 1.064-2.508s0.334-1.767 0.333-2.698c0-0.762-0.098-1.564-0.295-2.405s-0.507-1.625-0.932-2.352l0.792-1.168c0.618 1.060 1.055 2.057 1.312 2.992s0.387 1.907 0.392 2.918c0.005 1.092-0.116 2.111-0.364 3.058s-0.632 1.901-1.155 2.862c-0.102 0.169-0.256 0.307-0.464 0.413s-0.435 0.159-0.683 0.159h-17.524c-0.233 0-0.449-0.057-0.648-0.17s-0.365-0.281-0.5-0.499c-0.42-0.741-0.778-1.576-1.074-2.507s-0.444-1.988-0.444-3.173c0-1.561 0.296-3.034 0.889-4.42s1.4-2.599 2.424-3.641 2.236-1.863 3.634-2.466c1.399-0.603 2.892-0.903 4.481-0.902z"></path>
</symbol>
<symbol id="icon-toggle" viewBox="0 0 30 32">
<path d="M21.587 22.349c1.764 0 3.263-0.617 4.498-1.85s1.852-2.731 1.851-4.493c-0.001-1.762-0.618-3.262-1.851-4.502-1.235-1.236-2.734-1.854-4.498-1.854h-12.698c-1.763 0-3.263 0.617-4.498 1.85s-1.852 2.731-1.851 4.493c0.001 1.762 0.618 3.262 1.851 4.5 1.235 1.237 2.734 1.855 4.498 1.855h12.698zM21.587 21.079h-12.698c-1.397 0-2.593-0.497-3.587-1.492s-1.492-2.19-1.492-3.587c0-1.397 0.497-2.593 1.492-3.587s2.19-1.492 3.587-1.492h12.698c1.397 0 2.593 0.497 3.587 1.492s1.492 2.19 1.492 3.587c0 1.397-0.497 2.593-1.492 3.587s-2.19 1.492-3.587 1.492zM8.892 19.174c-0.88 0-1.63-0.308-2.249-0.924s-0.928-1.366-0.928-2.248c0-0.882 0.308-1.632 0.924-2.249s1.366-0.927 2.248-0.928c0.882-0.002 1.632 0.307 2.249 0.926s0.927 1.368 0.928 2.246c0.002 0.879-0.307 1.628-0.926 2.249s-1.368 0.93-2.246 0.928z"></path>
</symbol>
<symbol id="icon-package" viewBox="0 0 30 32">
<path fill="#cacaca" style="fill: var(--color1, #cacaca)" d="M0 0h30.476v32h-30.476v-32z"></path>
<path fill="#fff" style="fill: var(--color2, #fff)" d="M-211.81-5316.571h1060.571v5790.476h-1060.571v-5790.476z"></path>
<path fill="#fff" style="fill: var(--color2, #fff)" d="M-18.286-402.286h527.238v693.333h-527.238v-693.333z"></path>
<path fill="#0e0e0e" style="fill: var(--color3, #0e0e0e)" d="M15.638 1.699l10.476 5.736c0.225 0.123 0.412 0.304 0.543 0.524s0.2 0.472 0.2 0.728v11.386c-0 0.256-0.069 0.508-0.2 0.728s-0.318 0.402-0.543 0.524l-10.476 5.736c-0.21 0.116-0.446 0.176-0.686 0.176s-0.476-0.061-0.686-0.176l-10.476-5.736c-0.225-0.123-0.412-0.304-0.543-0.524s-0.2-0.472-0.2-0.728v-11.386c0-0.256 0.069-0.508 0.2-0.728s0.318-0.401 0.543-0.524l10.476-5.736c0.21-0.115 0.446-0.175 0.686-0.175s0.475 0.060 0.686 0.175zM14.952 2.475c-0.080 0-0.159 0.020-0.229 0.059l-4.305 2.358 10.476 5.736c0.024 0.014 0.048 0.030 0.069 0.048l4.544-2.487-10.327-5.655c-0.070-0.039-0.149-0.059-0.229-0.059zM4.396 8.19l10.556 5.774 5.027-2.749-10.556-5.779-5.027 2.754zM4.067 20.313c0.044 0.073 0.106 0.134 0.181 0.174l10.229 5.602v-11.299l-10.476-5.733v11.013c0 0.085 0.023 0.169 0.067 0.242zM15.429 26.082l10.229-5.593c0.075-0.041 0.137-0.101 0.181-0.174s0.067-0.157 0.067-0.242v-11.015l-10.476 5.733v11.292z"></path>
<path fill="none" stroke="#9747ff" style="stroke: var(--color4, #9747ff)" stroke-linejoin="miter" stroke-linecap="butt" stroke-miterlimit="4" stroke-width="1.5238" d="M-51.81-3302.857h594.286c3.787 0 6.857 3.070 6.857 6.857v3609.905c0 3.787-3.070 6.857-6.857 6.857h-594.286c-3.787 0-6.857-3.070-6.857-6.857v-3609.905c0-3.787 3.070-6.857 6.857-6.857z"></path>
</symbol>
    <symbol id="icon-Bee" viewBox="0 0 32 32">
<path stroke-linejoin="miter" stroke-linecap="butt" stroke-miterlimit="4" stroke-width="1.0667" d="M20.469 2.667l0.22 0.017 0.203 0.051 0.271 0.135 0.169 0.152 0.135 0.152 0.135 0.27 0.051 0.219v0.253l-0.051 0.236-0.085 0.202-0.119 0.219-0.474 0.64-0.373 0.472-0.22 0.286-0.186 0.236-0.22 0.27-0.355 0.455-0.068 0.101 0.051 0.084 0.203 0.202 0.119 0.135 0.305 0.303 0.119 0.135 0.254 0.253 0.119 0.135 0.119 0.118 0.152 0.185 0.186 0.219 0.237 0.32 0.203 0.32 0.169 0.303 0.203 0.337 0.203 0.286 0.135 0.168 0.152 0.168 0.135 0.135 0.237 0.185 0.288 0.202 0.355 0.202 0.542 0.27 0.593 0.253 0.491 0.219 0.626 0.286 0.491 0.236 0.474 0.219 0.576 0.286 0.474 0.219 0.559 0.27 0.355 0.202 0.254 0.168 0.203 0.152 0.186 0.152 0.22 0.202 0.169 0.168 0.152 0.185 0.237 0.303 0.203 0.32 0.203 0.371 0.169 0.387 0.118 0.337 0.102 0.354 0.102 0.505 0.034 0.253 0.017 0.219v0.573l-0.034 0.387-0.068 0.371-0.102 0.404-0.119 0.337-0.152 0.354-0.169 0.32-0.169 0.269-0.237 0.303-0.135 0.169-0.186 0.202-0.288 0.269-0.186 0.152-0.135 0.152-0.119 0.236-0.102 0.286-0.119 0.438-0.186 0.455-0.135 0.27-0.169 0.32-0.22 0.32-0.271 0.354-0.203 0.219-0.22 0.219-0.186 0.152-0.22 0.168-0.406 0.27-0.373 0.202-0.389 0.168-0.525 0.169-0.373 0.084-0.406 0.067-0.406 0.034h-0.237l-0.44-0.034-0.44-0.084-0.423-0.118-0.406-0.152-0.44-0.202-0.254-0.118-0.254-0.084-0.169-0.034h-0.237l-0.339 0.101-0.254 0.101-0.372 0.185-0.339 0.202-0.305 0.202-0.322 0.236-0.203 0.152-0.288 0.236-0.237 0.219-0.186 0.152-0.22 0.219-0.135 0.118-0.305 0.303-0.135 0.118-0.474 0.472-0.135 0.118-0.305 0.303-0.085 0.067-0.068-0.034-0.66-0.657-0.119-0.135-0.372-0.371-0.135-0.118-0.186-0.168-0.288-0.219-0.237-0.168-0.423-0.269-0.406-0.253-0.322-0.202-0.66-0.438-0.271-0.152-0.186-0.084-0.237-0.084-0.186-0.034h-0.339l-0.271 0.051-0.474 0.169-0.44 0.168-0.44 0.135-0.406 0.084-0.525 0.067h-0.728l-0.474-0.067-0.423-0.101-0.474-0.168-0.491-0.236-0.322-0.185-0.288-0.202-0.237-0.202-0.22-0.202-0.152-0.152-0.119-0.135-0.186-0.219-0.22-0.303-0.203-0.337-0.169-0.32-0.169-0.404-0.22-0.64-0.085-0.269-0.152-0.236-0.203-0.236-0.22-0.202-0.237-0.236-0.119-0.135-0.152-0.168-0.254-0.337-0.169-0.269-0.152-0.27-0.186-0.387-0.203-0.606-0.102-0.455-0.051-0.354-0.017-0.219v-0.522l0.051-0.421 0.085-0.421 0.102-0.371 0.135-0.371 0.237-0.489 0.22-0.371 0.271-0.371 0.169-0.185 0.119-0.135 0.288-0.286 0.186-0.152 0.288-0.219 0.322-0.202 0.305-0.168 0.88-0.438 0.474-0.219 0.694-0.337 0.474-0.219 0.609-0.286 0.982-0.455 0.677-0.32 0.542-0.27 0.169-0.118 0.085-0.152 0.203-0.438 0.203-0.421 0.203-0.354 0.203-0.32 0.22-0.303 0.186-0.236 0.22-0.253 0.118-0.135 0.169-0.168 0.085-0.101 0.135-0.118 0.22-0.202 0.169-0.135 0.339-0.253 0.203-0.135 0.068-0.051-0.017-0.084-0.237-0.32-0.169-0.202-0.22-0.286-0.169-0.219-0.22-0.27-0.169-0.219-0.44-0.573-0.22-0.27-0.203-0.303-0.135-0.27-0.068-0.202-0.017-0.084v-0.219l0.068-0.27 0.102-0.185 0.102-0.135 0.102-0.118 0.135-0.101 0.237-0.135 0.203-0.067 0.085-0.017h0.305l0.237 0.067 0.203 0.118 0.186 0.152 0.118 0.135 0.152 0.168 0.186 0.236 0.237 0.286 0.186 0.236 0.237 0.286 0.169 0.219 0.559 0.708 0.169 0.219 0.186 0.202 0.186 0.185 0.288 0.202 0.203 0.101 0.305 0.067h0.271l0.288-0.067h0.237l0.322 0.067 0.186 0.017h0.186l0.271-0.067 0.271-0.135 0.186-0.152 0.203-0.202 0.118-0.152 0.152-0.219 0.22-0.32 0.169-0.236 0.22-0.303 0.186-0.236 0.22-0.27 0.372-0.472 0.203-0.236 0.203-0.219 0.135-0.135 0.237-0.152 0.254-0.101 0.186-0.034zM15.628 8.495l-0.339 0.034-0.339 0.067-0.406 0.118-0.271 0.101-0.406 0.185-0.406 0.236-0.288 0.202-0.271 0.219-0.169 0.152-0.135 0.118-0.254 0.27-0.186 0.253-0.22 0.337-0.135 0.253-0.169 0.404-0.102 0.303-0.119 0.505-0.068 0.421v0.118l0.119 0.017 1.219 0.017h6.315l1.27-0.017 0.085-0.017-0.017-0.253-0.102-0.573-0.102-0.387-0.119-0.337-0.237-0.489-0.237-0.354-0.186-0.236-0.203-0.219-0.135-0.135-0.135-0.118-0.237-0.185-0.339-0.236-0.322-0.185-0.288-0.152-0.406-0.168-0.406-0.135-0.474-0.101-0.339-0.034h-0.44zM22.653 13.599l0.017 5.475 0.034 0.27 0.068 0.118 0.135 0.118 0.355 0.202 0.948 0.472 0.491 0.219 0.423 0.168 0.339 0.101 0.305 0.051h0.474l0.339-0.067 0.305-0.101 0.288-0.135 0.271-0.168 0.22-0.169 0.203-0.185 0.186-0.185 0.169-0.236 0.135-0.219 0.119-0.253 0.102-0.354 0.051-0.371v-0.421l-0.051-0.354-0.085-0.354-0.102-0.27-0.135-0.286-0.169-0.236-0.152-0.169-0.169-0.168-0.254-0.185-0.339-0.202-0.389-0.202-0.559-0.253-0.508-0.236-1.101-0.505-0.559-0.253-0.491-0.236-0.44-0.202-0.373-0.169-0.102-0.051zM8.991 13.717l-0.457 0.202-1.253 0.573-0.559 0.253-0.474 0.219-0.491 0.236-0.322 0.152-0.322 0.168-0.508 0.27-0.237 0.152-0.22 0.168-0.22 0.202-0.186 0.236-0.152 0.236-0.119 0.253-0.119 0.354-0.068 0.32-0.017 0.135v0.522l0.051 0.303 0.102 0.337 0.119 0.286 0.152 0.269 0.203 0.27 0.186 0.202 0.169 0.152 0.288 0.202 0.254 0.135 0.339 0.135 0.322 0.084 0.254 0.034h0.372l0.356-0.051 0.356-0.101 0.372-0.152 0.728-0.32 0.322-0.168 0.237-0.152 0.169-0.152 0.135-0.152 0.102-0.185 0.051-0.168 0.051-0.286 0.034-0.472 0.017-3.824v-0.876h-0.017zM13.054 15.789l-1.168 0.017-0.203 0.034-0.152 0.101-0.119 0.152-0.051 0.118-0.034 0.286v1.583h9.007l0.034-0.017 0.017-0.067 0.017-0.556v-0.421l-0.017-0.59-0.017-0.185-0.068-0.168-0.119-0.152-0.119-0.084-0.186-0.034-1.117-0.017h-5.705zM13.765 21.113l-2.302 0.017v0.169l0.034 0.371 0.068 0.32 0.085 0.286 0.135 0.32 0.135 0.27 0.169 0.269 0.237 0.32 0.203 0.219 0.322 0.32 0.288 0.219 0.237 0.168 0.305 0.185 0.322 0.169 0.457 0.185 0.356 0.101 0.389 0.067 0.305 0.034h0.491l0.457-0.051 0.491-0.101 0.389-0.118 0.406-0.168 0.271-0.135 0.305-0.169 0.254-0.168 0.305-0.236 0.254-0.236 0.22-0.219 0.152-0.185 0.169-0.236 0.22-0.371 0.152-0.337 0.152-0.489 0.068-0.354 0.034-0.27v-0.152l-0.051-0.017h-6.484zM22.569 22.107l-0.068 0.152-0.169 0.472-0.169 0.489-0.152 0.354 0.034 0.067 0.135 0.118 0.237 0.135 0.271 0.135 0.237 0.101 0.339 0.101 0.406 0.067h0.525l0.389-0.084 0.339-0.135 0.237-0.135 0.254-0.185 0.22-0.185 0.169-0.185 0.101-0.152-0.017-0.051-0.203-0.084-0.728-0.236-0.694-0.236-1.591-0.522h-0.102zM9.143 22.191l-0.796 0.253-1.575 0.522-0.474 0.152-0.271 0.084 0.102 0.135 0.186 0.202 0.085 0.101 0.186 0.152 0.237 0.169 0.423 0.202 0.356 0.101 0.203 0.034 0.203 0.017h0.271l0.305-0.051 0.322-0.084 0.322-0.135 0.288-0.152 0.169-0.118 0.017-0.084-0.085-0.286-0.271-0.775-0.102-0.303-0.051-0.135h-0.051z"></path>
</symbol>

<symbol id="icon-BeeDesk" viewBox="0 0 32 32">
<path stroke-linejoin="miter" stroke-linecap="butt" stroke-miterlimit="4" stroke-width="0.9846" d="M21 2.462l0.223 0.017 0.206 0.051 0.275 0.137 0.172 0.154 0.137 0.154 0.138 0.274 0.052 0.222v0.257l-0.052 0.239-0.086 0.205-0.12 0.222-0.481 0.65-0.378 0.479-0.224 0.291-0.189 0.239-0.224 0.274-0.361 0.462-0.069 0.103 0.052 0.086 0.206 0.205 0.12 0.137 0.309 0.308 0.12 0.137 0.258 0.257 0.12 0.137 0.12 0.12 0.155 0.188 0.189 0.222 0.241 0.325 0.206 0.325 0.172 0.308 0.206 0.342 0.206 0.291 0.138 0.171 0.155 0.171 0.137 0.137 0.241 0.188 0.292 0.205 0.361 0.205 0.55 0.274 0.602 0.257 0.499 0.222 0.636 0.291 0.499 0.239 0.481 0.222 0.584 0.291 0.481 0.222 0.567 0.274 0.361 0.205 0.258 0.171 0.206 0.154 0.189 0.154 0.224 0.205 0.172 0.171 0.155 0.188 0.241 0.308 0.206 0.325 0.206 0.376 0.172 0.393 0.12 0.342 0.103 0.359 0.103 0.513 0.034 0.257 0.017 0.222v0.582l-0.034 0.393-0.069 0.376-0.103 0.41-0.12 0.342-0.155 0.359-0.172 0.325-0.172 0.274-0.241 0.308-0.137 0.171-0.189 0.205-0.292 0.274-0.189 0.154-0.138 0.154-0.12 0.239-0.103 0.291-0.12 0.445-0.189 0.462-0.137 0.274-0.172 0.325-0.223 0.325-0.275 0.359-0.206 0.222-0.224 0.222-0.189 0.154-0.224 0.171-0.413 0.274-0.378 0.205-0.395 0.171-0.533 0.171-0.378 0.086-0.413 0.068-0.413 0.034h-0.241l-0.447-0.034-0.447-0.086-0.43-0.12-0.413-0.154-0.447-0.205-0.258-0.12-0.258-0.086-0.172-0.034h-0.241l-0.344 0.103-0.258 0.103-0.378 0.188-0.344 0.205-0.31 0.205-0.327 0.239-0.206 0.154-0.292 0.239-0.241 0.222-0.189 0.154-0.223 0.222-0.138 0.12-0.309 0.308-0.137 0.12-0.481 0.479-0.138 0.12-0.309 0.308-0.086 0.068-0.069-0.034-0.67-0.667-0.12-0.137-0.378-0.376-0.138-0.12-0.189-0.171-0.292-0.222-0.241-0.171-0.43-0.274-0.413-0.257-0.327-0.205-0.67-0.445-0.275-0.154-0.189-0.085-0.241-0.086-0.189-0.034h-0.344l-0.275 0.051-0.481 0.171-0.447 0.171-0.447 0.137-0.413 0.086-0.533 0.068h-0.739l-0.481-0.068-0.43-0.103-0.481-0.171-0.499-0.239-0.327-0.188-0.292-0.205-0.241-0.205-0.223-0.205-0.155-0.154-0.12-0.137-0.189-0.222-0.223-0.308-0.206-0.342-0.172-0.325-0.172-0.411-0.223-0.65-0.086-0.274-0.155-0.239-0.206-0.239-0.223-0.205-0.241-0.239-0.12-0.137-0.155-0.171-0.258-0.342-0.172-0.274-0.155-0.274-0.189-0.393-0.206-0.616-0.103-0.462-0.052-0.359-0.017-0.222v-0.53l0.052-0.428 0.086-0.428 0.103-0.376 0.138-0.376 0.241-0.496 0.223-0.376 0.275-0.376 0.172-0.188 0.12-0.137 0.292-0.291 0.189-0.154 0.292-0.222 0.327-0.205 0.309-0.171 0.894-0.445 0.481-0.222 0.705-0.342 0.481-0.222 0.619-0.291 0.997-0.462 0.688-0.325 0.55-0.274 0.172-0.12 0.086-0.154 0.206-0.445 0.206-0.428 0.206-0.359 0.206-0.325 0.223-0.308 0.189-0.239 0.223-0.257 0.12-0.137 0.172-0.171 0.086-0.103 0.138-0.12 0.223-0.205 0.172-0.137 0.344-0.257 0.206-0.137 0.069-0.051-0.017-0.085-0.241-0.325-0.172-0.205-0.223-0.291-0.172-0.222-0.223-0.274-0.172-0.222-0.447-0.582-0.223-0.274-0.206-0.308-0.138-0.274-0.069-0.205-0.017-0.086v-0.222l0.069-0.274 0.103-0.188 0.103-0.137 0.103-0.12 0.138-0.103 0.241-0.137 0.206-0.068 0.086-0.017h0.309l0.241 0.068 0.206 0.12 0.189 0.154 0.12 0.137 0.155 0.171 0.189 0.239 0.241 0.291 0.189 0.239 0.241 0.291 0.172 0.222 0.567 0.718 0.172 0.222 0.189 0.205 0.189 0.188 0.292 0.205 0.206 0.103 0.309 0.068h0.275l0.292-0.068h0.241l0.327 0.068 0.189 0.017h0.189l0.275-0.068 0.275-0.137 0.189-0.154 0.206-0.205 0.12-0.154 0.155-0.222 0.224-0.325 0.172-0.239 0.224-0.308 0.189-0.239 0.223-0.274 0.378-0.479 0.206-0.239 0.206-0.222 0.138-0.137 0.241-0.154 0.258-0.103 0.189-0.034zM16.083 8.38l-0.344 0.034-0.344 0.068-0.413 0.12-0.275 0.103-0.413 0.188-0.413 0.239-0.292 0.205-0.275 0.222-0.172 0.154-0.137 0.12-0.258 0.274-0.189 0.257-0.223 0.342-0.138 0.257-0.172 0.411-0.103 0.308-0.12 0.513-0.069 0.428v0.12l0.12 0.017 1.238 0.017h6.412l1.289-0.017 0.086-0.017-0.017-0.257-0.103-0.582-0.103-0.393-0.12-0.342-0.241-0.496-0.241-0.359-0.189-0.239-0.206-0.222-0.137-0.137-0.138-0.12-0.241-0.188-0.344-0.239-0.327-0.188-0.292-0.154-0.413-0.171-0.413-0.137-0.481-0.103-0.344-0.034h-0.447zM23.217 13.563l0.017 5.559 0.034 0.274 0.069 0.12 0.137 0.12 0.361 0.205 0.963 0.479 0.499 0.222 0.43 0.171 0.344 0.103 0.309 0.051h0.481l0.344-0.068 0.31-0.103 0.292-0.137 0.275-0.171 0.223-0.171 0.206-0.188 0.189-0.188 0.172-0.239 0.137-0.222 0.12-0.257 0.103-0.359 0.052-0.376v-0.428l-0.052-0.359-0.086-0.359-0.103-0.274-0.137-0.291-0.172-0.239-0.155-0.171-0.172-0.171-0.258-0.188-0.344-0.205-0.395-0.205-0.567-0.257-0.516-0.239-1.117-0.513-0.567-0.257-0.498-0.239-0.447-0.205-0.378-0.171-0.103-0.051zM9.345 13.682l-0.464 0.205-1.272 0.582-0.567 0.257-0.481 0.222-0.499 0.239-0.327 0.154-0.327 0.171-0.516 0.274-0.241 0.154-0.223 0.171-0.223 0.205-0.189 0.239-0.155 0.239-0.12 0.257-0.12 0.359-0.069 0.325-0.017 0.137v0.53l0.052 0.308 0.103 0.342 0.12 0.291 0.155 0.274 0.206 0.274 0.189 0.205 0.172 0.154 0.292 0.205 0.258 0.137 0.344 0.137 0.327 0.086 0.258 0.034h0.378l0.361-0.051 0.361-0.103 0.378-0.154 0.739-0.325 0.327-0.171 0.241-0.154 0.172-0.154 0.138-0.154 0.103-0.188 0.052-0.171 0.052-0.291 0.034-0.479 0.017-3.883v-0.889h-0.017zM13.47 15.786l-1.186 0.017-0.206 0.034-0.155 0.103-0.12 0.154-0.052 0.12-0.034 0.291v1.608h9.145l0.034-0.017 0.017-0.068 0.017-0.565v-0.428l-0.017-0.599-0.017-0.188-0.069-0.171-0.12-0.154-0.12-0.086-0.189-0.034-1.135-0.017h-5.793zM14.192 21.191l-2.338 0.017v0.171l0.034 0.376 0.069 0.325 0.086 0.291 0.138 0.325 0.138 0.274 0.172 0.274 0.241 0.325 0.206 0.222 0.327 0.325 0.292 0.222 0.241 0.171 0.309 0.188 0.327 0.171 0.464 0.188 0.361 0.103 0.395 0.068 0.309 0.034h0.499l0.464-0.051 0.499-0.103 0.395-0.12 0.413-0.171 0.275-0.137 0.309-0.171 0.258-0.171 0.309-0.239 0.258-0.239 0.224-0.222 0.155-0.188 0.172-0.239 0.224-0.376 0.155-0.342 0.155-0.496 0.069-0.359 0.034-0.274v-0.154l-0.052-0.017h-6.584zM23.131 22.201l-0.069 0.154-0.172 0.479-0.172 0.496-0.155 0.359 0.034 0.068 0.138 0.12 0.241 0.137 0.275 0.137 0.241 0.103 0.344 0.103 0.413 0.068h0.533l0.395-0.086 0.344-0.137 0.241-0.137 0.258-0.188 0.224-0.188 0.172-0.188 0.103-0.154-0.017-0.051-0.206-0.086-0.739-0.239-0.705-0.239-1.616-0.53h-0.103zM9.499 22.286l-0.808 0.257-1.599 0.53-0.481 0.154-0.275 0.085 0.103 0.137 0.189 0.205 0.086 0.103 0.189 0.154 0.241 0.171 0.43 0.205 0.361 0.103 0.206 0.034 0.206 0.017h0.275l0.309-0.051 0.327-0.086 0.327-0.137 0.292-0.154 0.172-0.12 0.017-0.086-0.086-0.291-0.275-0.787-0.103-0.308-0.052-0.137h-0.052z"></path>
</symbol>

<symbol id="icon-Web" viewBox="0 0 84 32">
<path stroke-linejoin="miter" stroke-linecap="butt" stroke-miterlimit="4" stroke-width="0.5818" d="M32.446 3.017c0.68 0 1.252 0.162 1.678 0.523h-0.001c0.434 0.342 0.638 0.835 0.638 1.433-0 0.129-0.031 0.355-0.081 0.653l-0.001 0.009-3.93 19.898c-0.336 1.74-0.911 3.072-1.751 3.96l0.001 0.001c-0.828 0.903-1.956 1.342-3.345 1.342-1.299-0-2.36-0.375-3.151-1.146l-0.155-0.159c-0.794-0.869-1.291-2.183-1.524-3.901l-2.518-17.666-0.001-0.007c-0.038-0.318-0.087-0.538-0.139-0.68l-0.052-0.116c-0.059-0.102-0.111-0.119-0.168-0.119-0.043 0-0.083 0.010-0.125 0.058l-0.043 0.061c-0.070 0.122-0.143 0.373-0.193 0.797v0.007l-2.482 17.666v0.003c-0.258 1.717-0.768 3.030-1.561 3.898l-0.001-0.001c-0.78 0.881-1.883 1.307-3.267 1.307-1.387 0-2.523-0.426-3.376-1.298l-0.003-0.003c-0.842-0.889-1.418-2.236-1.754-4.003l-3.893-19.906c-0.050-0.298-0.081-0.524-0.081-0.653 0-0.594 0.189-1.088 0.599-1.433l0.166-0.125c0.403-0.273 0.915-0.398 1.51-0.398 0.724 0 1.324 0.159 1.753 0.523h-0.001c0.39 0.29 0.654 0.715 0.804 1.249l0.058 0.239 0.001 0.007 3.777 20.688 0.075 0.342c0.069 0.291 0.134 0.494 0.193 0.619 0.067 0.086 0.152 0.129 0.286 0.129 0.118 0 0.217-0.047 0.311-0.19 0.104-0.159 0.191-0.429 0.24-0.839l0.001-0.006 2.595-18.577 0.082-0.469c0.224-1.065 0.667-1.929 1.341-2.574l0.308-0.268c0.743-0.583 1.641-0.872 2.679-0.872 1.208 0 2.213 0.375 2.987 1.141l0.274 0.29c0.521 0.606 0.874 1.371 1.065 2.284l0.082 0.469v0.001l2.635 18.582 0.044 0.301c0.049 0.271 0.112 0.451 0.18 0.56l0.057 0.072c0.064 0.063 0.148 0.095 0.27 0.095 0.099-0 0.156-0.033 0.206-0.119l0.006-0.010 0.078-0.149c0.082-0.179 0.172-0.45 0.267-0.827l3.739-20.68 0.057-0.237c0.148-0.536 0.398-0.964 0.771-1.256l0.176-0.125c0.428-0.27 0.972-0.392 1.608-0.392zM46.797 10.962c2.040 0 3.86 0.32 5.453 0.967l0.581 0.254c1.318 0.623 2.375 1.451 3.163 2.484h0.001c0.906 1.162 1.359 2.499 1.359 4 0 1.147-0.333 2.081-1.024 2.768l-0.143 0.135c-0.782 0.692-1.865 1.018-3.207 1.018h-12.068c0.065 1.341 0.588 2.366 1.558 3.109 1.050 0.804 2.58 1.227 4.632 1.227 1.176 0 2.206-0.124 3.091-0.368 0.883-0.243 1.704-0.633 2.466-1.169l0.010-0.006 0.276-0.173c0.269-0.162 0.516-0.293 0.742-0.389 0.297-0.127 0.574-0.203 0.821-0.203 0.439 0 0.852 0.234 1.234 0.614h-0.001c0.448 0.419 0.699 0.906 0.699 1.456-0 0.579-0.268 1.060-0.756 1.433l0.001 0.001c-2.201 1.818-5.072 2.714-8.582 2.714-2.222 0-4.174-0.384-5.848-1.162l-0.004-0.003c-1.65-0.805-2.928-1.952-3.824-3.44l-0.003-0.003c-0.87-1.489-1.298-3.245-1.298-5.254 0-3.113 0.936-5.581 2.84-7.362l0.365-0.322c1.866-1.562 4.366-2.328 7.467-2.328zM63.101 1.163c0.714 0 1.313 0.193 1.761 0.608l0.159 0.163c0.345 0.401 0.507 0.918 0.507 1.524l0.035 10.338c0.874-0.84 1.858-1.501 2.954-1.979l0.497-0.202c1.173-0.438 2.434-0.655 3.78-0.655 3.207 0 5.755 0.873 7.604 2.652l0.341 0.342c1.647 1.747 2.46 4.072 2.46 6.943 0 2.916-0.8 5.257-2.426 6.986l-0.337 0.337c-1.85 1.756-4.437 2.615-7.719 2.615-1.387 0-2.644-0.207-3.767-0.626l-0.473-0.193c-1.047-0.463-2.028-1.159-2.95-2.077v0.601c-0 0.672-0.215 1.242-0.659 1.682l-0.007 0.007-0.001-0.001c-0.449 0.415-1.046 0.608-1.76 0.608s-1.314-0.193-1.763-0.608l-0.007-0.006c-0.424-0.421-0.62-0.995-0.621-1.682v-25.082c0-0.687 0.196-1.261 0.621-1.682l0.007-0.007c0.449-0.415 1.049-0.607 1.763-0.607zM72.146 14.947c-2.058 0-3.662 0.552-4.842 1.626l-0.003 0.003c-1.175 1.046-1.773 2.475-1.773 4.322 0 1.876 0.587 3.318 1.737 4.362l0.222 0.19c1.135 0.922 2.678 1.398 4.659 1.398 2.010-0 3.519-0.528 4.568-1.544l0.19-0.196c0.923-1.003 1.4-2.395 1.401-4.21 0-1.882-0.553-3.326-1.629-4.369s-2.575-1.582-4.53-1.582zM46.797 14.872c-1.841 0-3.26 0.419-4.287 1.224l-0.003 0.003c-0.943 0.718-1.447 1.658-1.517 2.844h10.692c0.402 0 0.638-0.083 0.764-0.193l0.078-0.092c0.073-0.115 0.126-0.301 0.126-0.596-0-0.902-0.478-1.649-1.531-2.243l-0.004-0.003c-1.060-0.62-2.492-0.943-4.318-0.943z"></path>
</symbol>

<symbol id="icon-WebDesk" viewBox="0 0 85 32">
<path stroke-linejoin="miter" stroke-linecap="butt" stroke-miterlimit="4" stroke-width="0.5333" d="M32.786 2.936c0.68 0 1.248 0.16 1.672 0.513h0.001c0.438 0.339 0.646 0.83 0.646 1.431 0 0.128-0.030 0.354-0.081 0.655l-0.001 0.008-3.99 20.064c-0.341 1.755-0.924 3.095-1.773 3.986l-0.001-0.001c-0.834 0.901-1.966 1.342-3.367 1.342-1.312 0-2.382-0.375-3.178-1.147l-0.156-0.16c-0.801-0.87-1.303-2.19-1.539-3.919l-2.557-17.813v-0.006c-0.038-0.321-0.089-0.546-0.143-0.693l-0.056-0.121c-0.063-0.109-0.125-0.134-0.195-0.134-0.053 0-0.1 0.015-0.147 0.068l-0.048 0.066c-0.074 0.128-0.147 0.386-0.198 0.814l-0.001 0.005-2.517 17.814-0.001 0.003c-0.262 1.727-0.777 3.044-1.575 3.913l0.001 0.001c-0.785 0.883-1.899 1.31-3.298 1.31-1.401 0-2.546-0.427-3.405-1.301l-0.003-0.003c-0.85-0.891-1.433-2.244-1.773-4.023l-3.951-20.064-0.003-0.008 0.001-0.001c-0.051-0.3-0.082-0.526-0.082-0.654 0-0.594 0.191-1.083 0.6-1.424 0.425-0.358 0.996-0.52 1.681-0.52 0.722 0 1.317 0.156 1.744 0.508h0.001c0.399 0.288 0.667 0.717 0.82 1.258l0.059 0.238 0.001 0.006 3.835 20.866c0.099 0.484 0.193 0.801 0.276 0.974 0.074 0.094 0.169 0.142 0.314 0.142 0.131 0 0.239-0.052 0.339-0.203 0.109-0.166 0.199-0.442 0.249-0.858l0.001-0.005 2.634-18.73 0.083-0.471c0.226-1.071 0.673-1.938 1.353-2.583l0.152-0.138c0.778-0.671 1.736-1.002 2.858-1.003 1.219 0 2.232 0.375 3.012 1.141l0.277 0.29c0.526 0.607 0.882 1.375 1.075 2.293l0.083 0.471 2.673 18.729v0.008l0.044 0.305c0.050 0.275 0.116 0.461 0.188 0.574l0.062 0.079c0.070 0.068 0.162 0.101 0.293 0.102 0.112 0 0.179-0.039 0.234-0.134l0.005-0.009 0.082-0.152c0.084-0.183 0.176-0.459 0.272-0.839l3.794-20.854 0.057-0.237c0.149-0.537 0.402-0.965 0.776-1.254 0.45-0.354 1.058-0.513 1.79-0.513zM47.35 10.947c2.067 0 3.91 0.322 5.522 0.973l0.589 0.257c1.334 0.627 2.403 1.458 3.201 2.496h0.001c0.915 1.167 1.374 2.509 1.374 4.017 0 1.152-0.336 2.088-1.031 2.775l-0.143 0.134c-0.787 0.692-1.879 1.020-3.237 1.020h-12.277c0.060 1.372 0.595 2.424 1.594 3.184l0.207 0.148c1.063 0.719 2.556 1.094 4.512 1.094 1.196 0 2.243-0.124 3.145-0.371 0.9-0.246 1.737-0.64 2.513-1.182l0.008-0.007c0.382-0.247 0.726-0.435 1.029-0.564 0.3-0.127 0.576-0.203 0.82-0.203 0.434 0 0.847 0.23 1.233 0.611h-0.001c0.451 0.418 0.701 0.903 0.701 1.449-0 0.576-0.267 1.054-0.757 1.426l0.001 0.001c-2.228 1.828-5.134 2.731-8.691 2.731-2.251 0-4.227-0.387-5.922-1.169l-0.005-0.003c-1.67-0.809-2.962-1.962-3.869-3.458l-0.001-0.003c-0.88-1.497-1.315-3.263-1.315-5.285 0-3.134 0.949-5.614 2.874-7.404 1.922-1.788 4.577-2.665 7.928-2.665zM63.897 1.066c0.719 0 1.319 0.192 1.768 0.604l0.159 0.164c0.345 0.398 0.508 0.913 0.508 1.52l0.037 10.488c0.897-0.866 1.91-1.546 3.039-2.035l0.503-0.202c1.187-0.44 2.463-0.659 3.826-0.659 3.25 0 5.827 0.879 7.697 2.667l0.345 0.342c1.666 1.755 2.49 4.093 2.49 6.984-0 2.936-0.811 5.289-2.456 7.026l-0.34 0.339c-1.871 1.764-4.489 2.629-7.814 2.629-1.405 0-2.677-0.209-3.813-0.63l-0.478-0.194c-1.077-0.474-2.087-1.189-3.035-2.137v0.672c0 0.672-0.215 1.24-0.66 1.678l-0.007 0.007c-0.449 0.413-1.049 0.604-1.768 0.604s-1.321-0.191-1.77-0.604l-0.007-0.007c-0.425-0.418-0.621-0.99-0.621-1.678v-25.289c0-0.688 0.197-1.26 0.621-1.678l0.007-0.006 0.176-0.145c0.426-0.313 0.965-0.46 1.594-0.46zM73.077 14.913c-2.095 0-3.73 0.558-4.935 1.647l-0.001 0.003c-1.2 1.061-1.809 2.509-1.809 4.378 0 1.897 0.599 3.357 1.772 4.417l0.225 0.194c1.158 0.935 2.731 1.417 4.747 1.417 2.046 0 3.584-0.535 4.656-1.566 1.071-1.030 1.624-2.504 1.624-4.461 0-1.783-0.495-3.181-1.462-4.22l-0.199-0.203c-1.1-1.059-2.628-1.604-4.619-1.604zM47.35 14.836c-1.873 0-3.319 0.424-4.369 1.241l-0.003 0.003c-0.972 0.735-1.487 1.699-1.552 2.915h10.881c0.411 0 0.658-0.085 0.794-0.202l0.085-0.1c0.078-0.121 0.133-0.314 0.133-0.613 0-0.921-0.491-1.683-1.568-2.285l-0.004-0.003c-1.082-0.629-2.541-0.956-4.398-0.956z"></path>
</symbol>

<symbol id="icon-Bees" viewBox="0 0 96 32">
<path stroke-linejoin="miter" stroke-linecap="butt" stroke-miterlimit="4" stroke-width="1.1636" d="M7.19 30.136h9.138c2.778 0 4.958-0.765 6.538-2.295s2.371-3.633 2.371-6.31c0-1.366-0.395-2.609-1.185-3.729-0.765-1.12-1.784-1.939-3.059-2.458v-0.082c1.147-0.546 2.065-1.352 2.753-2.417s1.032-2.254 1.032-3.565c0-2.513-0.777-4.439-2.332-5.777-1.555-1.366-3.747-2.049-6.577-2.049h-8.909c-1.733 0-3.084 0.505-4.053 1.516s-1.453 2.404-1.453 4.179v17.168c0 1.83 0.497 3.264 1.491 4.302 1.020 1.011 2.434 1.516 4.244 1.516zM19.196 12.476c-0.79 0.765-1.861 1.147-3.212 1.147h-10.247v-6.392c0-0.656 0.153-1.175 0.459-1.557 0.331-0.382 0.777-0.574 1.338-0.574h8.335c3.008 0 4.512 1.407 4.512 4.22 0 1.338-0.395 2.39-1.185 3.155zM20.84 21.613c0 3.25-1.619 4.876-4.856 4.876h-8.45c-0.561 0-1.007-0.191-1.338-0.574-0.306-0.382-0.459-0.901-0.459-1.557v-7.17h10.247c1.504 0 2.689 0.396 3.556 1.188 0.867 0.765 1.3 1.844 1.3 3.237z"></path>
<path stroke-linejoin="miter" stroke-linecap="butt" stroke-miterlimit="4" stroke-width="1.1636" d="M39.665 30.545c3.467 0 6.271-0.956 8.412-2.868 0.433-0.355 0.65-0.792 0.65-1.311 0-0.492-0.204-0.942-0.612-1.352-0.357-0.382-0.701-0.574-1.032-0.574-0.382 0-0.943 0.259-1.682 0.778-0.79 0.601-1.644 1.038-2.562 1.311s-1.976 0.41-3.174 0.41c-2.090 0-3.696-0.464-4.818-1.393s-1.682-2.24-1.682-3.933h12.388c1.3 0 2.307-0.342 3.020-1.024s1.071-1.652 1.071-2.909c0-1.557-0.433-2.936-1.3-4.138-0.867-1.229-2.078-2.185-3.632-2.868s-3.339-1.024-5.353-1.024c-3.263 0-5.812 0.929-7.647 2.786s-2.753 4.439-2.753 7.744c0 2.131 0.421 3.974 1.262 5.532 0.867 1.557 2.103 2.759 3.709 3.606 1.631 0.82 3.543 1.229 5.735 1.229zM45.209 18.008c-0.204 0.191-0.523 0.287-0.956 0.287h-11.012c0-1.53 0.548-2.745 1.644-3.647 1.096-0.929 2.587-1.393 4.474-1.393 1.861 0 3.352 0.355 4.473 1.065 1.122 0.683 1.682 1.584 1.682 2.704 0 0.464-0.102 0.792-0.306 0.983z"></path>
<path stroke-linejoin="miter" stroke-linecap="butt" stroke-miterlimit="4" stroke-width="1.1636" d="M63.683 30.545c3.467 0 6.271-0.956 8.412-2.868 0.433-0.355 0.65-0.792 0.65-1.311 0-0.492-0.204-0.942-0.612-1.352-0.357-0.382-0.701-0.574-1.032-0.574-0.382 0-0.943 0.259-1.682 0.778-0.79 0.601-1.644 1.038-2.562 1.311s-1.975 0.41-3.174 0.41c-2.090 0-3.696-0.464-4.818-1.393s-1.682-2.24-1.682-3.933h12.388c1.3 0 2.307-0.342 3.021-1.024s1.071-1.652 1.071-2.909c0-1.557-0.433-2.936-1.3-4.138-0.867-1.229-2.077-2.185-3.632-2.868s-3.339-1.024-5.353-1.024c-3.263 0-5.812 0.929-7.647 2.786s-2.753 4.439-2.753 7.744c0 2.131 0.421 3.974 1.262 5.532 0.867 1.557 2.103 2.759 3.709 3.606 1.631 0.82 3.543 1.229 5.735 1.229zM69.227 18.008c-0.204 0.191-0.522 0.287-0.956 0.287h-11.012c0-1.53 0.548-2.745 1.644-3.647 1.096-0.929 2.587-1.393 4.473-1.393 1.861 0 3.352 0.355 4.474 1.065 1.122 0.683 1.682 1.584 1.682 2.704 0 0.464-0.102 0.792-0.306 0.983z"></path>
<path stroke-linejoin="miter" stroke-linecap="butt" stroke-miterlimit="4" stroke-width="1.1636" d="M86.516 30.545c-2.090 0-3.887-0.341-5.391-1.024-1.478-0.71-2.676-1.666-3.594-2.868-0.306-0.464-0.459-0.901-0.459-1.311 0-0.656 0.293-1.175 0.879-1.557 0.357-0.218 0.688-0.328 0.994-0.328 0.484 0 0.969 0.259 1.453 0.778 0.867 0.929 1.746 1.612 2.638 2.049 0.918 0.41 2.014 0.615 3.288 0.615 1.173 0 2.128-0.178 2.868-0.533s1.109-0.833 1.109-1.434c0-0.464-0.14-0.847-0.421-1.147-0.255-0.328-0.714-0.642-1.376-0.942s-1.695-0.696-3.097-1.188c-2.702-0.929-4.614-1.871-5.735-2.827-1.096-0.983-1.644-2.226-1.644-3.729 0-1.694 0.675-3.018 2.026-3.974 1.351-0.983 3.186-1.475 5.506-1.475 1.759 0 3.365 0.3 4.818 0.901s2.524 1.393 3.212 2.376c0.28 0.382 0.421 0.792 0.421 1.229 0 0.546-0.268 1.011-0.803 1.393-0.332 0.246-0.714 0.369-1.147 0.369-0.586 0-1.173-0.287-1.759-0.861-1.147-1.175-2.74-1.762-4.779-1.762-2.116 0-3.174 0.601-3.174 1.803 0 0.464 0.14 0.847 0.421 1.147s0.765 0.601 1.453 0.901c0.714 0.273 1.861 0.683 3.441 1.229 1.733 0.574 3.097 1.161 4.091 1.762s1.708 1.284 2.141 2.049c0.433 0.738 0.65 1.653 0.65 2.745 0 1.694-0.714 3.059-2.141 4.097-1.427 1.011-3.39 1.516-5.888 1.516z"></path>
</symbol>

<symbol id="icon-BeesDesk" viewBox="0 0 97 32">
<path stroke-linejoin="miter" stroke-linecap="butt" stroke-miterlimit="4" stroke-width="1.0667" d="M7.166 30.253h9.293c2.825 0 5.042-0.771 6.649-2.314s2.411-3.663 2.411-6.362c0-1.377-0.402-2.63-1.205-3.76-0.778-1.129-1.815-1.956-3.111-2.479v-0.083c1.167-0.551 2.1-1.363 2.8-2.438s1.050-2.272 1.050-3.594c0-2.534-0.791-4.476-2.372-5.825-1.581-1.377-3.811-2.066-6.688-2.066h-9.060c-1.763 0-3.137 0.51-4.122 1.529s-1.478 2.424-1.478 4.214v17.311c0 1.845 0.505 3.291 1.516 4.338 1.037 1.019 2.476 1.529 4.316 1.529zM19.375 12.447c-0.803 0.771-1.892 1.157-3.266 1.157h-10.42v-6.445c0-0.661 0.156-1.184 0.467-1.57 0.337-0.386 0.791-0.578 1.361-0.578h8.476c3.059 0 4.588 1.418 4.588 4.255 0 1.35-0.402 2.41-1.205 3.181zM21.047 21.66c0 3.278-1.646 4.916-4.938 4.916h-8.593c-0.57 0-1.024-0.193-1.361-0.578-0.311-0.386-0.467-0.909-0.467-1.57v-7.23h10.42c1.529 0 2.735 0.399 3.616 1.198 0.881 0.771 1.322 1.859 1.322 3.264z"></path>
<path stroke-linejoin="miter" stroke-linecap="butt" stroke-miterlimit="4" stroke-width="1.0667" d="M40.191 30.667c3.525 0 6.377-0.964 8.554-2.892 0.441-0.358 0.661-0.799 0.661-1.322 0-0.496-0.207-0.95-0.622-1.363-0.363-0.386-0.713-0.578-1.050-0.578-0.389 0-0.959 0.262-1.711 0.785-0.803 0.606-1.672 1.047-2.605 1.322s-2.009 0.413-3.227 0.413c-2.125 0-3.759-0.468-4.899-1.405s-1.711-2.259-1.711-3.966h12.598c1.322 0 2.346-0.344 3.072-1.033s1.089-1.666 1.089-2.933c0-1.57-0.441-2.961-1.322-4.173-0.881-1.239-2.113-2.203-3.694-2.892s-3.396-1.033-5.444-1.033c-3.318 0-5.91 0.936-7.777 2.809s-2.799 4.476-2.799 7.809c0 2.148 0.428 4.007 1.283 5.577 0.881 1.57 2.139 2.782 3.772 3.636 1.659 0.826 3.603 1.239 5.832 1.239zM45.829 18.024c-0.207 0.193-0.531 0.289-0.972 0.289h-11.198c0-1.542 0.557-2.768 1.672-3.677 1.115-0.937 2.631-1.405 4.549-1.405 1.892 0 3.409 0.358 4.549 1.074 1.141 0.689 1.711 1.597 1.711 2.727 0 0.468-0.104 0.799-0.311 0.992z"></path>
<path stroke-linejoin="miter" stroke-linecap="butt" stroke-miterlimit="4" stroke-width="1.0667" d="M64.615 30.667c3.525 0 6.377-0.964 8.554-2.892 0.441-0.358 0.661-0.799 0.661-1.322 0-0.496-0.207-0.95-0.622-1.363-0.363-0.386-0.713-0.578-1.050-0.578-0.389 0-0.959 0.262-1.711 0.785-0.803 0.606-1.672 1.047-2.605 1.322s-2.009 0.413-3.227 0.413c-2.126 0-3.759-0.468-4.899-1.405s-1.711-2.259-1.711-3.966h12.598c1.322 0 2.346-0.344 3.072-1.033s1.089-1.666 1.089-2.933c0-1.57-0.441-2.961-1.322-4.173-0.881-1.239-2.113-2.203-3.694-2.892s-3.396-1.033-5.444-1.033c-3.318 0-5.91 0.936-7.776 2.809s-2.8 4.476-2.8 7.809c0 2.148 0.428 4.007 1.283 5.577 0.881 1.57 2.139 2.782 3.772 3.636 1.659 0.826 3.603 1.239 5.832 1.239zM70.253 18.024c-0.207 0.193-0.531 0.289-0.972 0.289h-11.198c0-1.542 0.557-2.768 1.672-3.677 1.115-0.937 2.631-1.405 4.549-1.405 1.892 0 3.409 0.358 4.549 1.074 1.141 0.689 1.711 1.597 1.711 2.727 0 0.468-0.104 0.799-0.311 0.992z"></path>
<path stroke-linejoin="miter" stroke-linecap="butt" stroke-miterlimit="4" stroke-width="1.0667" d="M87.835 30.667c-2.126 0-3.953-0.344-5.482-1.033-1.503-0.716-2.722-1.68-3.655-2.892-0.311-0.468-0.467-0.909-0.467-1.322 0-0.661 0.298-1.184 0.894-1.57 0.363-0.22 0.7-0.331 1.011-0.331 0.493 0 0.985 0.262 1.478 0.785 0.881 0.936 1.776 1.625 2.683 2.066 0.933 0.413 2.048 0.62 3.344 0.62 1.192 0 2.164-0.179 2.916-0.537s1.128-0.84 1.128-1.446c0-0.468-0.143-0.854-0.428-1.157-0.259-0.331-0.726-0.647-1.4-0.95s-1.724-0.702-3.149-1.198c-2.748-0.937-4.692-1.887-5.832-2.851-1.115-0.991-1.672-2.245-1.672-3.76 0-1.708 0.687-3.043 2.061-4.008 1.374-0.992 3.24-1.487 5.599-1.487 1.789 0 3.422 0.303 4.899 0.909s2.566 1.405 3.266 2.396c0.285 0.386 0.428 0.799 0.428 1.239 0 0.551-0.272 1.019-0.817 1.405-0.337 0.248-0.726 0.372-1.166 0.372-0.596 0-1.192-0.289-1.789-0.868-1.166-1.184-2.787-1.777-4.86-1.777-2.151 0-3.227 0.606-3.227 1.818 0 0.468 0.143 0.854 0.428 1.157s0.778 0.606 1.478 0.909c0.726 0.275 1.892 0.689 3.499 1.239 1.763 0.578 3.15 1.171 4.161 1.777s1.737 1.295 2.177 2.066c0.441 0.744 0.661 1.666 0.661 2.768 0 1.708-0.726 3.085-2.177 4.131-1.452 1.019-3.448 1.529-5.988 1.529z"></path>
</symbol>

<symbol id="icon-plus" viewBox="0 0 32 32">
<path d="M6.4 16.738v-1.477h8.862v-8.862h1.477v8.862h8.862v1.477h-8.862v8.862h-1.477v-8.862h-8.862z"></path>
</symbol>

  </defs>
</svg>
