<svg width="40" height="40" viewBox="0 0 40 40" fill="none" xmlns="http://www.w3.org/2000/svg">
<path d="M25.3634 4L25.6275 4.02021L25.8713 4.08086L26.1964 4.24258L26.3995 4.42451L26.5621 4.60644L26.7246 4.92988L26.7856 5.19267V5.49589L26.7246 5.7789L26.623 6.02148L26.4808 6.28427L25.912 7.05243L25.465 7.61845L25.2009 7.9621L24.9774 8.2451L24.7133 8.56854L24.2867 9.11434L24.2054 9.23563L24.2664 9.3367L24.5102 9.57928L24.6524 9.741L25.0181 10.1049L25.1603 10.2666L25.465 10.5698L25.6072 10.7315L25.7494 10.873L25.9323 11.0954L26.1558 11.3582L26.4402 11.7423L26.684 12.1263L26.8871 12.4902L27.1309 12.8945L27.3747 13.2382L27.5372 13.4403L27.7201 13.6425L27.8826 13.8042L28.167 14.0265L28.5124 14.2691L28.9391 14.5117L29.5892 14.8351L30.3002 15.1383L30.8894 15.4011L31.6411 15.7448L32.2302 16.0278L32.7991 16.2906L33.4898 16.6342L34.0587 16.897L34.7291 17.2205L35.1558 17.463L35.4605 17.6652L35.7043 17.8471L35.9278 18.0291L36.1919 18.2716L36.395 18.4738L36.5779 18.6961L36.8623 19.06L37.1061 19.4441L37.3499 19.8888L37.553 20.3538L37.6953 20.7581L37.8172 21.1826L37.9391 21.789L37.9797 22.0922L38 22.355V23.0423L37.9594 23.5073L37.8781 23.952L37.7562 24.4371L37.614 24.8414L37.4312 25.2659L37.228 25.65L37.0248 25.9735L36.7404 26.3373L36.5779 26.5395L36.3544 26.7821L36.009 27.1055L35.7856 27.2874L35.623 27.4694L35.4808 27.7524L35.3589 28.096L35.2167 28.6216L34.9932 29.1674L34.8307 29.4908L34.6275 29.8749L34.3634 30.259L34.0384 30.6835L33.7946 30.9463L33.5305 31.2091L33.307 31.391L33.0429 31.5932L32.5553 31.9166L32.1084 32.1592L31.6411 32.3613L31.0113 32.5635L30.5643 32.6646L30.0767 32.7454L29.5892 32.7859H29.3047L28.7765 32.7454L28.2483 32.6443L27.7404 32.5028L27.2528 32.3209L26.7246 32.0783L26.4199 31.9368L26.1151 31.8358L25.912 31.7953H25.6275L25.2212 31.9166L24.9165 32.0379L24.4695 32.2603L24.0632 32.5028L23.6975 32.7454L23.3115 33.0284L23.0677 33.2104L22.7223 33.4934L22.4379 33.7562L22.2144 33.9381L21.9503 34.2009L21.7878 34.3424L21.4221 34.7063L21.2596 34.8478L20.6907 35.4138L20.5282 35.5553L20.1625 35.9191L20.0609 36L19.9797 35.9596L19.2483 35.2318L19.1874 35.1712L19.0451 35.0095L18.5982 34.5647L18.4357 34.4232L18.2122 34.2211L17.8668 33.9583L17.5824 33.7562L17.0745 33.4327L16.5869 33.1295L16.2009 32.8869L15.4086 32.3613L15.0835 32.1794L14.86 32.0783L14.5756 31.9773L14.3521 31.9368H13.9458L13.6208 31.9975L13.0519 32.1996L12.5237 32.4018L11.9955 32.5635L11.5079 32.6646L10.8781 32.7454H10.0045L9.43567 32.6646L8.92777 32.5433L8.35892 32.3411L7.76975 32.0581L7.38375 31.8358L7.03837 31.5932L6.75395 31.3506L6.48984 31.108L6.307 30.9261L6.16479 30.7644L5.94131 30.5016L5.6772 30.1377L5.43341 29.7334L5.23025 29.3493L5.02709 28.8642L4.76298 28.096L4.6614 27.7726L4.47856 27.4896L4.23476 27.2066L3.97065 26.964L3.68623 26.681L3.54402 26.5193L3.36117 26.3171L3.05643 25.9128L2.85327 25.5894L2.67043 25.2659L2.44695 24.801L2.20316 24.0733L2.08126 23.5275L2.02032 23.103L2 22.8402V22.2135L2.06095 21.7081L2.16253 21.2028L2.28442 20.7581L2.44695 20.3133L2.73138 19.7271L2.99549 19.2824L3.32054 18.8376L3.5237 18.6153L3.66591 18.4536L4.01129 18.1099L4.23476 17.928L4.58014 17.6652L4.96614 17.4226L5.33183 17.2205L6.38826 16.6949L6.95711 16.4321L7.79007 16.0278L8.35892 15.765L9.09029 15.4214L10.2686 14.8756L11.0813 14.4915L11.7314 14.168L11.9345 14.0265L12.0361 13.8446L12.2799 13.319L12.5237 12.8136L12.7675 12.3891L13.0113 12.0051L13.2754 11.6412L13.4989 11.3582L13.763 11.055L13.9052 10.8932L14.1084 10.6911L14.2099 10.5698L14.3725 10.4283L14.6366 10.1857L14.8397 10.024L15.246 9.72078L15.4898 9.55906L15.5711 9.49842L15.5508 9.39735L15.2664 9.01327L15.0632 8.77069L14.7991 8.42704L14.5959 8.16424L14.3318 7.84081L14.1287 7.57802L13.6005 6.89071L13.3363 6.56728L13.0926 6.20341L12.93 5.87997L12.8488 5.6374L12.8284 5.53632V5.27353L12.9097 4.95009L13.0316 4.72773L13.1535 4.56601L13.2754 4.42451L13.4379 4.30322L13.7223 4.1415L13.9661 4.06064L14.0677 4.04043H14.4334L14.7178 4.12129L14.9616 4.26279L15.1851 4.44473L15.3273 4.60644L15.5102 4.80859L15.7336 5.0916L16.0181 5.43525L16.2415 5.71826L16.526 6.06191L16.7291 6.3247L17.3995 7.17372L17.6027 7.43651L17.8262 7.67909L17.9074 7.75995L18.0497 7.90145L18.395 8.14403L18.6388 8.26532L19.0045 8.34618H19.3296L19.6749 8.26532H19.9594L20.3454 8.34618L20.5688 8.36639H20.7923L21.1174 8.28553L21.4424 8.12382L21.6659 7.94188L21.9097 7.69931L22.0519 7.51737L22.2348 7.25458L22.4989 6.8705L22.702 6.58749L22.9661 6.22363L23.1896 5.94062L23.4537 5.61718L23.9007 5.05117L24.1445 4.76816L24.3883 4.50537L24.5508 4.34365L24.8352 4.16172L25.14 4.04043L25.3634 4ZM19.553 10.9943L19.1467 11.0347L18.7404 11.1156L18.2528 11.2571L17.9278 11.3784L17.4402 11.6008L16.9526 11.8838L16.6072 12.1263L16.2822 12.3891L16.079 12.5711L15.9165 12.7126L15.6117 13.036L15.3883 13.3392L15.1242 13.7435L14.9616 14.0467L14.7585 14.5319L14.6366 14.8958L14.4944 15.5022L14.4131 16.0076V16.1491L14.5553 16.1693L16.0181 16.1895H23.5959L25.1196 16.1693L25.2212 16.1491L25.2009 15.8459L25.079 15.1586L24.9571 14.6936L24.8149 14.2893L24.5305 13.7031L24.246 13.2786L24.0226 12.9956L23.7788 12.7328L23.6163 12.5711L23.4537 12.4296L23.1693 12.2072L22.763 11.9242L22.377 11.7018L22.0316 11.5199L21.544 11.3178L21.0564 11.156L20.4876 11.0347L20.0813 10.9943H19.553ZM27.9842 17.1194L28.0045 23.6892L28.0451 24.0126L28.1264 24.1541L28.2889 24.2956L28.7156 24.5382L29.8533 25.1042L30.4424 25.367L30.9503 25.5692L31.3567 25.6905L31.7223 25.7511H32.2912L32.6975 25.6702L33.0632 25.549L33.4086 25.3872L33.7336 25.1851L33.9977 24.9829L34.2415 24.7606L34.465 24.5382L34.6682 24.2552L34.8307 23.9924L34.9729 23.6892L35.0948 23.2647L35.1558 22.82V22.3146L35.0948 21.8901L34.9932 21.4656L34.8713 21.1421L34.7088 20.7985L34.5056 20.5155L34.3228 20.3133L34.1196 20.1112L33.8149 19.8888L33.4086 19.6462L32.9413 19.4037L32.2709 19.1004L31.6614 18.8174L30.3409 18.211L29.6704 17.9078L29.0813 17.6248L28.553 17.3822L28.1061 17.18L27.9842 17.1194ZM11.5892 17.2609L11.0406 17.5035L9.53725 18.1908L8.86682 18.494L8.29797 18.7568L7.7088 19.0398L7.3228 19.2217L6.93679 19.4239L6.32731 19.7473L6.04289 19.9292L5.77878 20.1314L5.51467 20.374L5.2912 20.657L5.10835 20.94L4.96614 21.2432L4.82393 21.6677L4.74266 22.0518L4.72235 22.2135V22.8402L4.7833 23.204L4.90519 23.6083L5.0474 23.952L5.23025 24.2754L5.47404 24.5989L5.69752 24.8414L5.90068 25.0234L6.24605 25.2659L6.55079 25.4277L6.95711 25.5894L7.34312 25.6905L7.64786 25.7309H8.09481L8.52144 25.6702L8.94808 25.549L9.39503 25.367L10.2686 24.9829L10.6546 24.7808L10.9391 24.5989L11.1422 24.4169L11.3047 24.235L11.4266 24.0126L11.4876 23.8105L11.5485 23.4668L11.5892 22.9008L11.6095 18.3121V17.2609H11.5892ZM16.465 19.7473L15.0632 19.7675L14.8194 19.808L14.6366 19.9292L14.4944 20.1112L14.4334 20.2527L14.3928 20.5963V22.4965H25.2009L25.2415 22.4763L25.2619 22.3955L25.2822 21.7284V21.223L25.2619 20.5155L25.2415 20.2931L25.1603 20.091L25.0181 19.909L24.8758 19.808L24.6524 19.7675L23.3115 19.7473H16.465ZM17.3183 26.1352L14.5553 26.1554V26.3575L14.5959 26.8023L14.6772 27.1864L14.7788 27.53L14.9413 27.9141L15.1038 28.2375L15.307 28.561L15.5914 28.945L15.8352 29.2078L16.2212 29.5919L16.5666 29.8547L16.851 30.0569L17.2167 30.2792L17.6027 30.4814L18.1512 30.7037L18.5779 30.825L19.0451 30.9059L19.4108 30.9463H20L20.5485 30.8857L21.1377 30.7644L21.605 30.6229L22.0926 30.4207L22.4176 30.259L22.7833 30.0569L23.088 29.8547L23.4537 29.5717L23.7585 29.2887L24.0226 29.0259L24.2054 28.8035L24.4086 28.5205L24.6727 28.0758L24.8555 27.6715L25.0384 27.0853L25.1196 26.6608L25.1603 26.3373V26.1554L25.0993 26.1352H17.3183ZM27.8826 27.3279L27.8014 27.5098L27.5982 28.0758L27.395 28.662L27.2122 29.0865L27.2528 29.1674L27.4153 29.3089L27.6998 29.4706L28.0248 29.6323L28.3093 29.7536L28.7156 29.8749L29.2032 29.9558H29.833L30.3002 29.8547L30.7065 29.693L30.991 29.5313L31.2957 29.3089L31.5598 29.0865L31.763 28.8642L31.8849 28.6822L31.8646 28.6216L31.6208 28.5205L30.7472 28.2375L29.9142 27.9545L28.2483 27.4087L28.0045 27.3279H27.8826ZM11.772 27.4289L10.8172 27.7322L8.92777 28.3588L8.35892 28.5407L8.03386 28.6418L8.15576 28.8035L8.37923 29.0461L8.48081 29.1674L8.70429 29.3493L8.98871 29.5515L9.49661 29.7941L9.92325 29.9153L10.167 29.9558L10.4108 29.976H10.7359L11.1016 29.9153L11.4876 29.8143L11.8736 29.6526L12.219 29.4706L12.4221 29.3291L12.4424 29.228L12.3409 28.8844L12.0158 27.9545L11.8939 27.5907L11.833 27.4289H11.772Z" fill="#040404"/>
<path d="M19.553 10.9943L19.1467 11.0347L18.7404 11.1156L18.2528 11.2571L17.9278 11.3784L17.4402 11.6008L16.9526 11.8838L16.6072 12.1263L16.2822 12.3891L16.079 12.5711L15.9165 12.7126L15.6117 13.036L15.3883 13.3392L15.1242 13.7435L14.9616 14.0467L14.7585 14.5319L14.6366 14.8958L14.4944 15.5022L14.4131 16.0076V16.1491L14.5553 16.1693L16.0181 16.1895H23.5959L25.1196 16.1693L25.2212 16.1491L25.2009 15.8459L25.079 15.1586L24.9571 14.6936L24.8149 14.2893L24.5305 13.7031L24.246 13.2786L24.0226 12.9956L23.7788 12.7328L23.6163 12.5711L23.4537 12.4296L23.1693 12.2072L22.763 11.9242L22.377 11.7018L22.0316 11.5199L21.544 11.3178L21.0564 11.156L20.4876 11.0347L20.0813 10.9943H19.553Z" fill="#040404"/>
<path d="M17.3183 26.1352L14.5553 26.1554V26.3575L14.5959 26.8023L14.6772 27.1864L14.7788 27.53L14.9413 27.9141L15.1038 28.2375L15.307 28.561L15.5914 28.945L15.8352 29.2078L16.2212 29.5919L16.5666 29.8547L16.851 30.0569L17.2167 30.2792L17.6027 30.4814L18.1512 30.7037L18.5779 30.825L19.0451 30.9059L19.4108 30.9463H20L20.5485 30.8857L21.1377 30.7644L21.605 30.6229L22.0926 30.4207L22.4176 30.259L22.7833 30.0569L23.088 29.8547L23.4537 29.5717L23.7585 29.2887L24.0226 29.0259L24.2054 28.8035L24.4086 28.5205L24.6727 28.0758L24.8555 27.6715L25.0384 27.0853L25.1196 26.6608L25.1603 26.3373V26.1554L25.0993 26.1352H17.3183Z" fill="#E7A805"/>
<path d="M16.465 19.7473L15.0632 19.7675L14.8194 19.808L14.6366 19.9292L14.4944 20.1112L14.4334 20.2527L14.3928 20.5963V22.4965H25.2009L25.2415 22.4763L25.2619 22.3955L25.2822 21.7284V21.223L25.2619 20.5155L25.2415 20.2931L25.1603 20.091L25.0181 19.909L24.8758 19.808L24.6524 19.7675L23.3115 19.7473H16.465Z" fill="#E7A805"/>
<path d="M11.5892 17.2609L11.0406 17.5035L9.53725 18.1908L8.86682 18.494L8.29797 18.7568L7.7088 19.0398L7.3228 19.2217L6.93679 19.4239L6.32731 19.7473L6.04289 19.9292L5.77878 20.1314L5.51467 20.374L5.2912 20.657L5.10835 20.94L4.96614 21.2432L4.82393 21.6677L4.74266 22.0518L4.72235 22.2135V22.8402L4.7833 23.204L4.90519 23.6083L5.0474 23.952L5.23025 24.2754L5.47404 24.5989L5.69752 24.8414L5.90068 25.0234L6.24605 25.2659L6.55079 25.4277L6.95711 25.5894L7.34312 25.6905L7.64786 25.7309H8.09481L8.52144 25.6702L8.94808 25.549L9.39503 25.367L10.2686 24.9829L10.6546 24.7808L10.9391 24.5989L11.1422 24.4169L11.3047 24.235L11.4266 24.0126L11.4876 23.8105L11.5485 23.4668L11.5892 22.9008L11.6095 18.3121V17.2609H11.5892Z" fill="#DB9E04" fill-opacity="0.4"/>
<path d="M27.9842 17.1194L28.0045 23.6892L28.0451 24.0126L28.1264 24.1541L28.2889 24.2956L28.7156 24.5382L29.8533 25.1042L30.4424 25.367L30.9503 25.5692L31.3567 25.6905L31.7223 25.7511H32.2912L32.6975 25.6702L33.0632 25.549L33.4086 25.3872L33.7336 25.1851L33.9977 24.9829L34.2415 24.7606L34.465 24.5382L34.6682 24.2552L34.8307 23.9924L34.9729 23.6892L35.0948 23.2647L35.1558 22.82V22.3146L35.0948 21.8901L34.9932 21.4656L34.8713 21.1421L34.7088 20.7985L34.5056 20.5155L34.3228 20.3133L34.1196 20.1112L33.8149 19.8888L33.4086 19.6462L32.9413 19.4037L32.2709 19.1004L31.6614 18.8174L30.3409 18.211L29.6704 17.9078L29.0813 17.6248L28.553 17.3822L28.1061 17.18L27.9842 17.1194Z" fill="#DB9E04" fill-opacity="0.4"/>
<path d="M27.8826 27.3279L27.8014 27.5098L27.5982 28.0758L27.395 28.662L27.2122 29.0865L27.2528 29.1674L27.4153 29.3089L27.6998 29.4706L28.0248 29.6323L28.3093 29.7536L28.7156 29.8749L29.2032 29.9558H29.833L30.3002 29.8547L30.7065 29.693L30.991 29.5313L31.2957 29.3089L31.5598 29.0865L31.763 28.8642L31.8849 28.6822L31.8646 28.6216L31.6208 28.5205L30.7472 28.2375L29.9142 27.9545L28.2483 27.4087L28.0045 27.3279H27.8826Z" fill="#DB9E04" fill-opacity="0.4"/>
<path d="M11.772 27.4289L10.8172 27.7322L8.92777 28.3588L8.35892 28.5407L8.03386 28.6418L8.15576 28.8035L8.37923 29.0461L8.48081 29.1674L8.70429 29.3493L8.98871 29.5515L9.49661 29.7941L9.92325 29.9153L10.167 29.9558L10.4108 29.976H10.7359L11.1016 29.9153L11.4876 29.8143L11.8736 29.6526L12.219 29.4706L12.4221 29.3291L12.4424 29.228L12.3409 28.8844L12.0158 27.9545L11.8939 27.5907L11.833 27.4289H11.772Z" fill="#DB9E04" fill-opacity="0.4"/>
</svg>
